<svg xmlns="http://www.w3.org/2000/svg" width="24" height="24" viewBox="0 0 24 24" fill="none">
  <g clip-path="url(#clip0_193_2952)">
    <path fill-rule="evenodd" clip-rule="evenodd" d="M19.7823 11.0741C21.1409 12.5796 22.1537 13.8857 22.8208 15.0569C25.2635 19.346 21.7885 23.7023 17.1346 23.6239C12.4807 23.7023 9.00567 19.346 11.4484 15.0569C12.1155 13.8857 13.1283 12.5796 14.4869 11.0741C14.649 11.1255 14.8215 11.1532 15.0003 11.1532H19.2689C19.4477 11.1532 19.6202 11.1255 19.7823 11.0741ZM2.50622 0.375C1.33402 0.375 0.375 1.33406 0.375 2.50622V18.0864C0.375 19.2586 1.33402 20.2177 2.50622 20.2177H10.3544C9.58734 18.3848 9.81942 16.4017 10.7968 14.6857C10.9964 14.3352 11.2154 13.9878 11.4489 13.6446C11.3138 13.5572 11.2241 13.4052 11.2241 13.233V12.596C11.2241 12.3262 11.4442 12.1061 11.7141 12.1061H12.6027C12.9998 11.6179 13.4131 11.1427 13.8267 10.6839C13.7046 10.5681 13.5996 10.4344 13.5158 10.2872H11.7141C11.4442 10.2872 11.2241 10.0671 11.2241 9.79725V9.16026C11.2241 8.8904 11.4442 8.67033 11.7141 8.67033H13.4808C13.633 8.37384 13.8696 8.12728 14.1585 7.96256L13.6493 7.45345C13.3394 7.14356 13.1719 6.74395 13.1465 6.33698H3.21661C2.94675 6.33698 2.72667 6.11691 2.72667 5.84705V3.924C2.72667 3.65414 2.94675 3.43406 3.21661 3.43406H13.9954C14.2652 3.43406 14.4853 3.65414 14.4853 3.924V4.54055C14.8311 4.46123 15.1988 4.48762 15.5349 4.62548C15.7621 4.08155 16.2551 3.6863 16.837 3.58444V2.50622C16.837 1.33406 15.878 0.375 14.7058 0.375H2.50622ZM15.0003 10.4032C14.474 10.4032 14.0435 9.9727 14.0435 9.44644C14.0435 8.92022 14.4741 8.48967 15.0003 8.48967H19.2689C19.7952 8.48967 20.2257 8.92022 20.2257 9.44648C20.2257 9.97266 19.7952 10.4032 19.2689 10.4032H15.0003ZM3.66675 8.67033H5.49792C5.76778 8.67033 5.98786 8.8904 5.98786 9.16026V9.7972C5.98786 10.0671 5.76778 10.2871 5.49792 10.2871H3.66675C3.39689 10.2871 3.17681 10.0671 3.17681 9.7972V9.16026C3.17681 8.8904 3.39689 8.67033 3.66675 8.67033ZM7.69041 15.5418C7.42055 15.5418 7.20047 15.7619 7.20047 16.0317V16.6687C7.20047 16.9385 7.42055 17.1586 7.69041 17.1586H9.52158C9.79144 17.1586 10.0115 16.9385 10.0115 16.6687V16.0317C10.0115 15.7619 9.79144 15.5418 9.52158 15.5418H7.69041ZM3.66675 15.5418H5.49792C5.76778 15.5418 5.98786 15.7619 5.98786 16.0317V16.6687C5.98786 16.9385 5.76778 17.1586 5.49792 17.1586H3.66675C3.39689 17.1586 3.17681 16.9385 3.17681 16.6687V16.0317C3.17681 15.7619 3.39689 15.5418 3.66675 15.5418ZM7.69041 12.106C7.42055 12.106 7.20047 12.3261 7.20047 12.596V13.2329C7.20047 13.5028 7.42055 13.7228 7.69041 13.7228H9.52158C9.79144 13.7228 10.0115 13.5028 10.0115 13.2329V12.596C10.0115 12.3261 9.79144 12.106 9.52158 12.106H7.69041ZM3.66675 12.106H5.49792C5.76778 12.106 5.98786 12.3261 5.98786 12.596V13.2329C5.98786 13.5028 5.76778 13.7228 5.49792 13.7228H3.66675C3.39689 13.7228 3.17681 13.5028 3.17681 13.2329V12.596C3.17681 12.3262 3.39689 12.106 3.66675 12.106ZM7.69041 8.67033H9.52158C9.79144 8.67033 10.0115 8.8904 10.0115 9.16026V9.7972C10.0115 10.0671 9.79144 10.2871 9.52158 10.2871H7.69041C7.42055 10.2871 7.20047 10.0671 7.20047 9.7972V9.16026C7.20047 8.8904 7.42055 8.67033 7.69041 8.67033ZM17.0855 19.1243C16.798 19.1168 16.5188 19.039 16.2963 18.8908C16.095 18.7567 15.9411 18.5605 15.8768 18.3028C15.8196 18.0701 15.5846 17.9279 15.352 17.9851C15.1193 18.0424 14.9771 18.2774 15.0344 18.51C15.1557 18.9968 15.4427 19.3649 15.8174 19.6144C16.0732 19.7848 16.3704 19.8975 16.6816 19.9523V20.2899C16.6816 20.53 16.8763 20.7247 17.1165 20.7247C17.3566 20.7247 17.5513 20.5301 17.5513 20.2899V19.9606C17.9295 19.903 18.3148 19.7649 18.6173 19.5354C18.9809 19.2596 19.2227 18.8646 19.2101 18.3345C19.2087 18.2737 19.2052 18.2204 19.1997 18.1747C19.1292 17.5939 18.8149 17.2158 18.3982 16.9642C18.0322 16.7432 17.5933 16.6331 17.1908 16.5671C16.9006 16.5194 16.5949 16.4388 16.371 16.2926C16.1975 16.1794 16.0731 16.0154 16.0614 15.7757C16.0488 15.5163 16.1621 15.307 16.3405 15.1619C16.4803 15.0483 16.6586 14.9693 16.8519 14.9304C16.9297 14.9147 17.0098 14.9057 17.0906 14.9036C17.0992 14.9041 17.1077 14.9044 17.1165 14.9044C17.1269 14.9044 17.1373 14.904 17.1476 14.9032C17.2545 14.9048 17.3621 14.9185 17.4673 14.9452C17.7905 15.0271 18.0848 15.2401 18.2398 15.6093C18.3327 15.8307 18.5875 15.9348 18.8088 15.842C19.0302 15.7491 19.1344 15.4943 19.0415 15.273C18.7686 14.623 18.249 14.2474 17.6779 14.1027C17.636 14.092 17.5938 14.0827 17.5513 14.0747V13.7377C17.5513 13.4976 17.3566 13.3029 17.1165 13.3029C16.8764 13.3029 16.6816 13.4976 16.6816 13.7377V14.0812C16.3522 14.1476 16.0428 14.2867 15.7936 14.4893C15.4106 14.8007 15.1678 15.2528 15.1951 15.8165C15.2226 16.3829 15.5053 16.7628 15.8988 17.0197C16.2418 17.2436 16.6631 17.3595 17.0516 17.4232C17.3636 17.4745 17.6967 17.5554 17.9498 17.7082C18.1522 17.8305 18.3043 18.0091 18.3368 18.2767C18.3411 18.3124 18.3435 18.3383 18.3438 18.3549C18.3489 18.5677 18.2471 18.7298 18.0942 18.8459C17.9028 18.9911 17.634 19.0767 17.3652 19.1093C17.292 19.1182 17.2281 19.1233 17.1739 19.1245L17.1532 19.1249C17.1411 19.1239 17.1288 19.1234 17.1165 19.1234C17.106 19.1232 17.0957 19.1236 17.0855 19.1243ZM14.9962 7.73972L14.1796 6.92311C13.7972 6.5407 13.7972 5.91497 14.1796 5.53261C14.5049 5.20734 15.0197 5.15241 15.4067 5.4008C15.5505 5.49305 15.7156 5.50777 15.8733 5.44247C16.0311 5.37712 16.1374 5.25005 16.1738 5.08312C16.2702 4.64175 16.6653 4.30861 17.1346 4.30852C17.5953 4.30852 17.9972 4.63331 18.0954 5.08312C18.1319 5.25005 18.2382 5.37712 18.3959 5.44247C18.5537 5.50786 18.7188 5.49305 18.8625 5.4008C19.2427 5.15677 19.7578 5.20078 20.0895 5.53252V5.53261C20.472 5.91502 20.472 6.54075 20.0895 6.92311L19.2729 7.73972L19.2689 7.73967H15.0003L14.9962 7.73972Z" fill="#FCAF3B"/>
  </g>
  <defs>
    <clipPath id="clip0_193_2952">
      <rect width="24" height="24" fill="white"/>
    </clipPath>
  </defs>
</svg>