<svg xmlns="http://www.w3.org/2000/svg" width="24" height="24" viewBox="0 0 24 24" fill="none">
  <g clip-path="url(#clip0_79_22730)">
    <path d="M16.2656 8.53125C12.0009 8.53125 8.53125 12.0009 8.53125 16.2656C8.53125 20.5304 12.0009 24 16.2656 24C20.5304 24 24 20.5304 24 16.2656C24 12.0009 20.5304 8.53125 16.2656 8.53125ZM16.2656 15.5625C17.4288 15.5625 18.375 16.5087 18.375 17.6719C18.375 18.5873 17.7854 19.3605 16.9688 19.6517V21.1875H15.5625V19.6517C14.7458 19.3605 14.1562 18.5873 14.1562 17.6719H15.5625C15.5625 18.0598 15.8777 18.375 16.2656 18.375C16.6536 18.375 16.9688 18.0598 16.9688 17.6719C16.9688 17.2839 16.6536 16.9688 16.2656 16.9688C15.1025 16.9688 14.1562 16.0225 14.1562 14.8594C14.1562 13.9439 14.7458 13.1708 15.5625 12.8795V11.3438H16.9688V12.8795C17.7854 13.1708 18.375 13.9439 18.375 14.8594H16.9688C16.9688 14.4714 16.6536 14.1562 16.2656 14.1562C15.8777 14.1562 15.5625 14.4714 15.5625 14.8594C15.5625 15.2473 15.8777 15.5625 16.2656 15.5625Z" fill="#FCAF3B"/>
    <path d="M7.82812 8.53125C12.165 8.53125 15.5625 6.678 15.5625 4.3125C15.5625 1.947 12.165 0 7.82812 0C3.49125 0 0 1.947 0 4.3125C0 6.678 3.49125 8.53125 7.82812 8.53125Z" fill="#FCAF3B"/>
    <path d="M0 15.8232V16.9689C0 19.3344 3.49125 21.1877 7.82812 21.1877C8.07413 21.1877 8.31248 21.165 8.55469 21.1532C8.01534 20.3051 7.61311 19.3642 7.37625 18.3582C4.24008 18.2717 1.51697 17.308 0 15.8232Z" fill="#FCAF3B"/>
    <path d="M7.1588 16.9331C7.14267 16.7119 7.125 16.491 7.125 16.2658C7.125 15.5328 7.22105 14.8234 7.38483 14.1399C4.24477 14.0548 1.51833 13.0906 0 11.6045V12.7502C0 14.9902 3.15291 16.7506 7.1588 16.9331Z" fill="#FCAF3B"/>
    <path d="M7.82812 12.7502C7.82888 12.7502 7.82948 12.7501 7.83028 12.7501C8.29402 11.6418 8.96813 10.6427 9.80527 9.80557C9.17025 9.88582 8.514 9.93766 7.82812 9.93766C4.48983 9.93766 1.59028 8.94218 0 7.38574V8.53141C0 10.8969 3.49125 12.7502 7.82812 12.7502Z" fill="#FCAF3B"/>
  </g>
  <defs>
    <clipPath id="clip0_79_22730">
      <rect width="24" height="24" fill="white"/>
    </clipPath>
  </defs>
</svg>