<svg xmlns="http://www.w3.org/2000/svg" width="24" height="24" viewBox="0 0 24 24" fill="none">
  <path d="M7.51179 3.38086C6.89405 3.38086 6.38648 3.88843 6.38648 4.50616V4.88322H7.13473V4.50616C7.13473 4.45252 7.14475 4.40238 7.16334 4.35725C7.2191 4.22185 7.35086 4.13204 7.51179 4.13204H12.7686C12.9832 4.13204 13.1456 4.29158 13.1456 4.50616V4.88322H13.8976V4.50616C13.8976 3.88843 13.3863 3.38086 12.7686 3.38086H7.51179ZM18.4039 5.63367C12.8937 5.63356 7.38815 5.63514 1.87793 5.63514C1.26021 5.63511 0.752625 6.14271 0.752625 6.76044V9.7659C0.752625 10.08 0.904412 10.3585 1.10474 10.534C1.30507 10.7094 1.54053 10.8062 1.77009 10.8751L7.88664 12.8088V11.2734C7.88327 10.656 8.40044 10.1376 9.01782 10.14C9.76812 10.1401 10.5137 10.1386 11.264 10.1386C11.8814 10.1357 12.3986 10.6546 12.3952 11.2719V12.8073L18.5117 10.8736C18.7413 10.8047 18.9768 10.7079 19.1771 10.5325C19.3774 10.357 19.5292 10.0786 19.5292 9.76443V6.75897C19.5292 6.14127 19.0216 5.63367 18.4039 5.63367ZM9.01488 10.8912C8.80602 10.8905 8.63662 11.0601 8.63783 11.269V13.8974C8.63783 14.7232 9.31437 15.3998 10.1402 15.3998C10.966 15.3998 11.6433 14.7232 11.6433 13.8974V11.269C11.6444 11.0613 11.4769 10.892 11.2692 10.8912H9.01488ZM1.5016 11.5778L1.50087 19.5313C1.50084 20.149 2.01211 20.6566 2.62984 20.6566H15.4498C15.335 20.363 15.4304 20.1166 15.5437 19.8636C14.4826 20.0368 13.4792 19.2952 13.0767 18.5329C12.7553 17.8915 12.7714 17.2791 12.7715 17.274C12.7715 17.2729 12.7715 17.2725 12.7715 17.2711V17.2682C12.773 17.1141 12.8058 16.962 12.8838 16.7877L13.8609 14.587C13.3709 14.2493 13.0986 13.9057 13.1566 13.3553L12.3945 13.5959V13.8974C12.3945 15.1339 11.3763 16.1509 10.1402 16.1509C8.9041 16.1509 7.88664 15.1335 7.88664 13.8974V13.5959L1.5016 11.5778ZM18.4039 11.6409C18.2168 11.6398 18.0298 11.7641 18.0298 12.0136V12.7875C16.7696 12.8651 16.2941 13.5211 15.4021 13.5211C15.0575 13.5211 14.6798 13.3866 14.5394 13.2548C14.1693 12.9073 13.6667 13.4252 14.0069 13.7874C14.243 14.0388 14.7098 14.1815 14.8475 14.2114L13.5594 17.1134C13.5323 17.1732 13.5214 17.2251 13.5212 17.2777C13.5212 18.1836 14.1291 19.1549 15.4014 19.1549C16.6737 19.1549 17.2779 18.2137 17.2779 17.2777C17.2782 17.2133 17.2621 17.15 17.2309 17.0936L15.9486 14.2106C16.4675 14.1922 17.2224 13.5211 18.4039 13.5233V13.5262C19.5854 13.5234 20.3403 14.1951 20.8592 14.2136L19.5769 17.0965C19.5457 17.1529 19.5296 17.2163 19.53 17.2806C19.53 18.2166 20.1341 19.1579 21.4064 19.1579C22.6788 19.1579 23.2866 18.1865 23.2866 17.2806C23.2864 17.228 23.2755 17.176 23.2484 17.1163L21.9603 14.2143C22.098 14.1845 22.5649 14.0417 22.801 13.7903C23.1411 13.4281 22.6385 12.9103 22.2684 13.2577C22.128 13.3895 21.7503 13.524 21.4057 13.524C20.5137 13.524 20.0382 12.8681 18.778 12.7904V12.0165C18.778 11.767 18.591 11.6427 18.4039 11.6439V11.6409ZM18.0298 14.2708V19.9061H16.5084C15.9895 19.9332 16.0279 20.6817 16.5274 20.6573C17.7975 20.657 19.0576 20.6602 20.2804 20.6602C20.78 20.6846 20.8183 19.9362 20.2995 19.909H18.778V14.2737C18.5231 14.274 18.2751 14.2708 18.0298 14.2708ZM15.4021 14.821L16.325 16.9007H14.4786L15.4021 14.821ZM21.4057 14.8239L22.3293 16.9036H20.4829L21.4057 14.8239Z" fill="#FCAF3B"/>
</svg>