<svg xmlns="http://www.w3.org/2000/svg" width="24" height="24" viewBox="0 0 24 24" fill="none">
  <path d="M20.8942 1.41187H18.7765V3.52951C18.7765 3.95304 18.4236 4.23539 18.0706 4.23539C17.7177 4.23539 17.3648 3.95304 17.3648 3.52951V1.41187H6.07064V3.52951C6.07064 3.95304 5.7177 4.23539 5.36476 4.23539C5.01182 4.23539 4.65887 3.95304 4.65887 3.52951V1.41187H2.54123C1.4824 1.41187 0.705933 2.32951 0.705933 3.52951V6.07069H23.2942V3.52951C23.2942 2.32951 22.0236 1.41187 20.8942 1.41187ZM0.705933 7.55304V20.4707C0.705933 21.7413 1.4824 22.5883 2.61182 22.5883H20.9648C22.0942 22.5883 23.3648 21.6707 23.3648 20.4707V7.55304H0.705933ZM6.98829 19.4119H5.29417C5.01182 19.4119 4.72946 19.2001 4.72946 18.8472V17.0825C4.72946 16.8001 4.94123 16.5177 5.29417 16.5177H7.05887C7.34123 16.5177 7.62358 16.7295 7.62358 17.0825V18.8472C7.55299 19.2001 7.34123 19.4119 6.98829 19.4119ZM6.98829 13.0589H5.29417C5.01182 13.0589 4.72946 12.8472 4.72946 12.4942V10.7295C4.72946 10.4472 4.94123 10.1648 5.29417 10.1648H7.05887C7.34123 10.1648 7.62358 10.3766 7.62358 10.7295V12.4942C7.55299 12.8472 7.34123 13.0589 6.98829 13.0589ZM12.6353 19.4119H10.8706C10.5883 19.4119 10.3059 19.2001 10.3059 18.8472V17.0825C10.3059 16.8001 10.5177 16.5177 10.8706 16.5177H12.6353C12.9177 16.5177 13.2001 16.7295 13.2001 17.0825V18.8472C13.2001 19.2001 12.9883 19.4119 12.6353 19.4119ZM12.6353 13.0589H10.8706C10.5883 13.0589 10.3059 12.8472 10.3059 12.4942V10.7295C10.3059 10.4472 10.5177 10.1648 10.8706 10.1648H12.6353C12.9177 10.1648 13.2001 10.3766 13.2001 10.7295V12.4942C13.2001 12.8472 12.9883 13.0589 12.6353 13.0589ZM18.2824 19.4119H16.5177C16.2353 19.4119 15.953 19.2001 15.953 18.8472V17.0825C15.953 16.8001 16.1648 16.5177 16.5177 16.5177H18.2824C18.5648 16.5177 18.8471 16.7295 18.8471 17.0825V18.8472C18.8471 19.2001 18.6353 19.4119 18.2824 19.4119ZM18.2824 13.0589H16.5177C16.2353 13.0589 15.953 12.8472 15.953 12.4942V10.7295C15.953 10.4472 16.1648 10.1648 16.5177 10.1648H18.2824C18.5648 10.1648 18.8471 10.3766 18.8471 10.7295V12.4942C18.8471 12.8472 18.6353 13.0589 18.2824 13.0589Z" fill="#FCAF3B"/>
</svg>