<svg xmlns="http://www.w3.org/2000/svg" width="24" height="24" viewBox="0 0 24 24" fill="none">
  <g clip-path="url(#clip0_79_21673)">
    <path d="M22 5.00005H17V4.00002C17 2.897 16.1031 2 15 2H9C7.89698 2 6.99998 2.89695 6.99998 4.00002V5H2.00002C0.896953 5.00005 0 5.897 0 7.00002V10C0 11.1031 0.896953 12 2.00002 12H10V11.5C10 11.2236 10.2237 11 10.5 11H13.5C13.7764 11 14.0001 11.2236 14.0001 11.5V12H22.0001C23.103 12 24 11.1031 24 10V7.00002C24 5.897 23.103 5.00005 22 5.00005ZM15 5.00005H9V4.00002H15V5.00005Z" fill="#FCAF3B"/>
    <path d="M23.7226 12.5391C23.5522 12.4547 23.3486 12.4742 23.1982 12.5884C22.8427 12.8575 22.4287 12.9996 21.9999 12.9996H14V14.4996C14 14.776 13.7764 14.9996 13.5 14.9996H10.5C10.2236 14.9996 9.99998 14.776 9.99998 14.4996V12.9996H2.00002C1.5713 12.9996 1.15725 12.8575 0.80175 12.5884C0.650859 12.4732 0.44775 12.4537 0.277312 12.5391C0.107437 12.6236 0 12.7969 0 12.9869V19.9996C0 21.1026 0.896953 21.9996 2.00002 21.9996H22C23.103 21.9996 24 21.1027 24 19.9996V12.9869C24 12.7969 23.8926 12.6236 23.7226 12.5391Z" fill="#FCAF3B"/>
  </g>
  <defs>
    <clipPath id="clip0_79_21673">
      <rect width="24" height="24" fill="white"/>
    </clipPath>
  </defs>
</svg>