<svg xmlns="http://www.w3.org/2000/svg" width="24" height="24" viewBox="0 0 24 24" fill="none">
  <path d="M12 14.2432C13.2803 14.2432 14.3181 15.2683 14.3181 16.5328C14.3181 17.7974 13.2803 18.8225 12 18.8225C10.7198 18.8225 9.68192 17.7974 9.68192 16.5328C9.68192 15.2683 10.7198 14.2432 12 14.2432ZM12 4.4753C13.7701 4.4753 15.2051 5.91028 15.2051 7.68038C15.2051 9.45047 13.7701 10.8854 12 10.8854C10.2299 10.8854 8.79496 9.45042 8.79496 7.68033C8.79496 7.18036 8.90947 6.70716 9.11366 6.28547L7.79844 4.97025C7.29374 5.751 7.00063 6.68147 7.00063 7.68033C7.00063 10.4414 9.23891 12.6797 12 12.6797C14.7611 12.6797 16.9993 10.4414 16.9993 7.68033C16.9993 4.91925 14.7611 2.68097 12 2.68097C11.0011 2.68097 10.0707 2.97408 9.28991 3.47878L10.6052 4.794C11.0269 4.58986 11.5001 4.4753 12 4.4753ZM15.9949 14.7971C15.9949 16.0617 17.0327 17.0868 18.313 17.0868C19.5933 17.0868 20.6311 16.0617 20.6311 14.7971C20.6311 13.5326 19.5933 12.5074 18.313 12.5074C17.0327 12.5074 15.9949 13.5326 15.9949 14.7971ZM6.57519 4.03636L7.8965 4.07395L11.15 7.32741C11.1048 7.43611 11.0797 7.55531 11.0797 7.68038C11.0797 8.18864 11.4918 8.60067 12 8.60067C12.5083 8.60067 12.9203 8.18864 12.9203 7.68038C12.9203 7.17211 12.5083 6.76013 12 6.76013C11.875 6.76013 11.7558 6.78511 11.6471 6.8303L8.39361 3.57689L8.35602 2.25553L6.49897 0.398438L6.55119 2.23144L4.71819 2.17922L6.57519 4.03636ZM5.68705 17.0868C6.9673 17.0868 8.00521 16.0617 8.00521 14.7971C8.00521 13.5326 6.96735 12.5074 5.68705 12.5074C4.40675 12.5074 3.36894 13.5325 3.36894 14.7971C3.36894 16.0617 4.4068 17.0868 5.68705 17.0868ZM9.15589 18.4944C8.82505 17.8717 8.29907 17.3668 7.66091 17.0626C7.12977 17.5166 6.4385 17.79 5.68705 17.79C4.9356 17.79 4.24433 17.5166 3.71319 17.0626C2.60703 17.5898 1.83777 18.72 1.83777 20.0213V21.6674C1.83777 21.7766 1.92711 21.8659 2.03633 21.8659H7.44763V21.757C7.44763 20.4099 8.12497 19.2148 9.15589 18.4944ZM13.9739 18.7982C13.4428 19.2522 12.7515 19.5256 12 19.5256C11.2486 19.5256 10.5573 19.2522 10.0262 18.7982C8.92002 19.3254 8.15075 20.4556 8.15075 21.7569V23.403C8.15075 23.5122 8.2401 23.6016 8.34927 23.6016H15.6508C15.76 23.6016 15.8493 23.5122 15.8493 23.403V21.7569C15.8493 20.4556 15.08 19.3254 13.9739 18.7982ZM20.2869 17.0625C19.7557 17.5165 19.0645 17.79 18.313 17.79C17.5615 17.79 16.8703 17.5166 16.3392 17.0625C15.701 17.3668 15.1751 17.8717 14.8442 18.4943C15.8751 19.2148 16.5524 20.4099 16.5524 21.7569V21.8658H21.9637C22.073 21.8658 22.1623 21.7765 22.1623 21.6673V20.0212C22.1623 18.72 21.393 17.5898 20.2869 17.0625Z" fill="#FCAF3B"/>
</svg>