<svg xmlns="http://www.w3.org/2000/svg" width="24" height="25" viewBox="0 0 24 25" fill="none">
  <path fill-rule="evenodd" clip-rule="evenodd" d="M1.05973 7.58381C1.71505 5.13806 3.31447 3.19748 5.3607 2.04871L4.89566 1.43953C6.00242 1.1466 8.14456 1.10151 9.28808 1.98065C8.49823 2.3736 7.66344 3.27651 7.0063 4.20449L6.46466 3.49495C4.25248 4.67554 2.55655 6.96379 1.89031 9.45023C1.47013 11.0183 1.43998 12.5845 1.73516 14.0159C0.757907 12.0982 0.458797 9.82649 1.05973 7.58381ZM12 7.07995C11.4285 7.07995 10.9652 7.54326 10.9652 8.11476C10.9652 8.55398 11.2389 8.92926 11.6249 9.07945V11.1071H12.3749V9.07945C12.761 8.92926 13.0347 8.55398 13.0347 8.11476C13.0347 7.54326 12.5715 7.07995 12 7.07995ZM5.12352 7.07995C4.55202 7.07995 4.0887 7.54326 4.0887 8.11476C4.0887 8.68626 4.55202 9.14957 5.12352 9.14957C5.56273 9.14957 5.93802 8.87587 6.0882 8.48976H7.03405V10.1374H7.78405V8.11476C7.78405 7.90767 7.61614 7.73976 7.40905 7.73976H6.0882C5.93802 7.35365 5.56273 7.07995 5.12352 7.07995ZM14.7775 18.3887H9.22241C9.00898 18.3887 8.85345 18.1913 8.90338 17.9839C9.23975 16.5856 10.4985 15.5465 11.9999 15.5465C13.5014 15.5465 14.7601 16.5856 15.0965 17.9839C15.1465 18.1913 14.9909 18.3887 14.7775 18.3887ZM16.5909 10.8874C17.4803 10.8874 18.2012 11.6084 18.2012 12.4977C18.2012 13.3871 17.4802 14.108 16.5909 14.108C15.7016 14.108 14.9806 13.3871 14.9806 12.4977C14.9806 11.6084 15.7016 10.8874 16.5909 10.8874ZM11.9999 11.8571C11.1106 11.8571 10.3896 12.5781 10.3896 13.4674C10.3896 14.3568 11.1106 15.0777 11.9999 15.0777C12.8893 15.0777 13.6103 14.3567 13.6103 13.4674C13.6103 12.5781 12.8893 11.8571 11.9999 11.8571ZM7.40905 10.8874C6.51969 10.8874 5.79875 11.6084 5.79875 12.4977C5.79875 13.3871 6.51973 14.108 7.40905 14.108C8.29841 14.108 9.01939 13.3871 9.01939 12.4977C9.01939 11.6084 8.29841 10.8874 7.40905 10.8874ZM15.7104 17.419H19.3685C19.5818 17.419 19.7374 17.2216 19.6875 17.0142C19.3511 15.6159 18.0924 14.5768 16.5909 14.5768C15.6945 14.5768 14.8848 14.9472 14.306 15.5432C14.9423 16.0033 15.4396 16.6517 15.7104 17.419ZM4.63152 17.419H8.28955C8.56034 16.6517 9.05769 16.0033 9.69392 15.5432C9.1152 14.9472 8.30539 14.5768 7.40905 14.5768C5.90755 14.5768 4.64881 15.6159 4.31248 17.0142C4.26256 17.2216 4.41809 17.419 4.63152 17.419ZM16.2159 10.1374V8.11476C16.2159 7.90767 16.3838 7.73976 16.5909 7.73976H17.9117C18.0619 7.35365 18.4372 7.07995 18.8764 7.07995C19.4479 7.07995 19.9112 7.54326 19.9112 8.11476C19.9112 8.68626 19.4479 9.14957 18.8764 9.14957C18.4372 9.14957 18.0619 8.87587 17.9117 8.48976H16.9659V10.1374H16.2159ZM22.9402 17.4162C23.5412 15.1735 23.2421 12.9018 22.2648 10.9841C22.56 12.4154 22.5298 13.9816 22.1097 15.5497C21.4434 18.0361 19.7475 20.3244 17.5353 21.505L16.9936 20.7955C16.3365 21.7235 15.5017 22.6264 14.7118 23.0193C15.8554 23.8985 17.9975 23.8534 19.1043 23.5604L18.6393 22.9513C20.6855 21.8024 22.2849 19.8619 22.9402 17.4162Z" fill="#FCAF3B"/>
</svg>