<svg xmlns="http://www.w3.org/2000/svg" width="24" height="25" viewBox="0 0 24 25" fill="none">
  <path d="M11.5 12.7441C14.5376 12.7441 17 10.2817 17 7.24414C17 4.20657 14.5376 1.74414 11.5 1.74414C8.46243 1.74414 6 4.20657 6 7.24414C6 10.2817 8.46243 12.7441 11.5 12.7441Z" fill="#FCAF3B"/>
  <path fill-rule="evenodd" clip-rule="evenodd" d="M12.925 22.2564C11.886 21.1404 11.25 19.6444 11.25 18.0004C11.25 16.3174 11.917 14.7884 13.001 13.6644C12.511 13.6264 12.01 13.6064 11.5 13.6064C8.178 13.6064 5.237 14.4374 3.411 15.6824C2.018 16.6324 1.25 17.8394 1.25 19.1064V20.5564C1.25 21.0074 1.429 21.4404 1.748 21.7584C2.067 22.0774 2.499 22.2564 2.95 22.2564H12.925Z" fill="#FCAF3B"/>
  <path fill-rule="evenodd" clip-rule="evenodd" d="M17.5 12.75C14.602 12.75 12.25 15.102 12.25 18C12.25 20.898 14.602 23.25 17.5 23.25C20.398 23.25 22.75 20.898 22.75 18C22.75 15.102 20.398 12.75 17.5 12.75ZM17.5 21.25C16.948 21.25 16.5 20.802 16.5 20.25C16.5 19.698 16.948 19.25 17.5 19.25C18.052 19.25 18.5 19.698 18.5 20.25C18.5 20.802 18.052 21.25 17.5 21.25ZM18.25 18V15.5C18.25 15.086 17.914 14.75 17.5 14.75C17.086 14.75 16.75 15.086 16.75 15.5V18C16.75 18.414 17.086 18.75 17.5 18.75C17.914 18.75 18.25 18.414 18.25 18Z" fill="#FCAF3B"/>
</svg>