<svg xmlns="http://www.w3.org/2000/svg" width="24" height="24" viewBox="0 0 24 24" fill="none">
  <g clip-path="url(#clip0_193_2947)">
    <path fill-rule="evenodd" clip-rule="evenodd" d="M23.1901 9.32881C21.3029 8.94748 19.4158 9.13859 17.5286 9.90219C17.4128 9.94902 17.3542 10.0782 17.3951 10.1961L20.0607 17.8936C20.094 17.9897 20.1805 18.0512 20.2822 18.0512H23.1901V9.32881ZM6.88911 0.570312C7.90934 0.570312 8.73641 1.3872 8.73641 2.39492C8.73641 3.40264 7.90934 4.21953 6.88911 4.21953C5.86887 4.21953 5.04181 3.40264 5.04181 2.39492C5.04181 1.3872 5.86887 0.570312 6.88911 0.570312ZM12 1.9168C13.0203 1.9168 13.8473 2.73369 13.8473 3.74141C13.8473 4.74913 13.0203 5.56602 12 5.56602C10.9798 5.56602 10.1527 4.74913 10.1527 3.74141C10.1527 2.73369 10.9798 1.9168 12 1.9168ZM17.111 0.570312C18.1312 0.570312 18.9583 1.3872 18.9583 2.39492C18.9583 3.40264 18.1312 4.21953 17.111 4.21953C16.0908 4.21953 15.2637 3.40264 15.2637 2.39492C15.2637 1.3872 16.0908 0.570312 17.111 0.570312ZM8.85228 13.8447C8.85228 13.4826 8.97865 13.1882 9.24265 12.94L11.1709 11.1269C12.2935 10.0714 13.3306 10.2818 14.6395 10.6962C15.4023 10.9376 16.1444 11.1725 17.0082 11.2276L19.115 17.3113C18.8608 17.4379 18.5996 17.5634 18.3154 17.6794C17.8376 17.8744 17.3321 17.7732 16.9669 17.4082L12.7637 13.2077C12.6315 13.0762 12.4208 13.0719 12.2835 13.1944C12.2833 13.1942 12.143 13.3109 12.1304 13.321C11.6999 13.6685 10.9784 14.2509 10.9784 15.2143C10.9784 15.7656 10.7109 16.2224 10.3039 16.5519C9.91212 16.869 9.39355 17.0712 8.85228 17.1329V13.8447ZM6.91095 11.4615C7.25098 11.548 7.5815 11.6076 7.91136 11.6424C8.4777 11.7021 9.03641 11.6879 9.63275 11.6104L8.762 12.4291C8.36211 12.8051 8.14916 13.2957 8.14916 13.8447V17.5046C8.14916 17.6988 8.30656 17.8562 8.50072 17.8562C9.31817 17.8562 10.1438 17.5834 10.7461 17.0958C11.3105 16.6389 11.6815 15.9973 11.6815 15.2144C11.6815 14.6307 12.1596 14.2022 12.4939 13.9293L16.4724 17.9054C16.6632 18.0961 16.8824 18.2407 17.1182 18.337C17.2786 18.5046 17.4386 18.6726 17.5986 18.8406C17.8826 19.1375 17.8998 19.6094 17.6041 19.9051C17.3153 20.1939 16.8353 20.1939 16.5465 19.9051C15.7751 19.1338 15.017 18.3442 14.2542 17.5626C14.1192 17.4238 13.8972 17.4207 13.7584 17.5557C13.6196 17.6907 13.6165 17.9127 13.7515 18.0515L15.8442 20.1971C16.1347 20.4875 16.1345 20.9642 15.8441 21.2546C15.5538 21.545 15.077 21.545 14.7866 21.2547C13.9823 20.4503 13.1922 19.6296 12.397 18.8148C12.262 18.676 12.04 18.673 11.9012 18.808C11.7624 18.943 11.7593 19.165 11.8944 19.3037L13.9871 21.4493C14.2759 21.7382 14.276 22.218 13.9871 22.5068C13.708 22.786 13.182 22.7593 12.9295 22.5069C12.0561 21.6335 11.1982 20.7467 10.3349 19.862C10.1999 19.7232 9.97789 19.7202 9.83914 19.8552C9.70039 19.9902 9.6973 20.2122 9.8323 20.3509L11.9249 22.4965C12.1381 22.7097 12.136 23.0618 11.9213 23.2726C11.7127 23.4762 11.3695 23.4834 11.1613 23.2752C11.153 23.2835 7.71776 19.7481 7.40464 19.4272C6.61067 18.6139 5.90342 17.8918 4.86626 17.3657L6.91095 11.4615ZM8.93258 9.37438H15.0674V7.90442C15.0674 6.92192 14.5171 6.06181 13.7096 5.61678C13.2559 6.02286 12.6552 6.26909 12 6.26909C11.3448 6.26909 10.7441 6.02281 10.2904 5.61678C9.48284 6.06181 8.93253 6.92192 8.93253 7.90442V9.37438H8.93258ZM15.7706 8.02789V7.90442C15.7706 6.80919 15.2331 5.83466 14.4088 5.23081C14.6478 4.82919 14.9914 4.49628 15.4014 4.27034C15.855 4.67642 16.4558 4.92266 17.111 4.92266C17.7661 4.92266 18.3669 4.67642 18.8206 4.27034C19.6281 4.71533 20.1784 5.57548 20.1784 6.55794V8.02789H15.7706ZM3.82166 8.02789V6.55794C3.82166 5.57544 4.37192 4.71533 5.17948 4.27034C5.63319 4.67642 6.23394 4.92266 6.88911 4.92266C7.54428 4.92266 8.14498 4.67642 8.59869 4.27034C9.00861 4.49628 9.35225 4.82919 9.59126 5.23081C8.76697 5.83466 8.2295 6.80919 8.2295 7.90442V8.02789H3.82166ZM0.809937 9.32881V18.0513H3.71792C3.81959 18.0513 3.90612 17.9897 3.93936 17.8936L6.60505 10.1962C6.64592 10.0782 6.58728 9.94906 6.4715 9.90223C4.58431 9.13864 2.69712 8.94748 0.809937 9.32881Z" fill="#FCAF3B"/>
  </g>
  <defs>
    <clipPath id="clip0_193_2947">
      <rect width="24" height="24" fill="white"/>
    </clipPath>
  </defs>
</svg>