<svg xmlns="http://www.w3.org/2000/svg" width="24" height="24" viewBox="0 0 24 24" fill="none">
  <path fill-rule="evenodd" clip-rule="evenodd" d="M2.23596 4.75016V21.3683C2.23596 22.1258 2.85237 22.7422 3.61034 22.7422H17.8144C18.5705 22.7422 19.1869 22.1258 19.1869 21.3683V4.75016C19.1869 3.99266 18.5705 3.37625 17.8144 3.37625H3.61034C2.85237 3.37625 2.23596 3.99266 2.23596 4.75016ZM5.98784 13.3442H5.13424V9.56469H5.98784V13.3442ZM8.56268 13.3442H7.70909V10.6934H8.56268V13.3442ZM11.1394 13.3442H10.2858V8.43688H11.1394V13.3442ZM13.7161 13.3442H12.8606V9.73672H13.7161V13.3442ZM15.4369 7.45578H16.2905V13.3442H15.4369V7.45578ZM4.78784 2.81375V2.64734C4.78784 1.88984 5.40424 1.27344 6.16221 1.27344H20.3663C21.1224 1.27344 21.7388 1.88984 21.7388 2.64734V19.2655C21.7388 20.023 21.1224 20.6394 20.3663 20.6394H19.7499V4.75016C19.7499 3.68234 18.8808 2.81375 17.8144 2.81375H4.78784ZM5.38502 6.49156L7.8619 7.63344L10.1114 5.83859C10.1803 5.78422 10.2685 5.76453 10.3528 5.78516L13.3908 6.515L14.9358 4.98125H14.371C14.2158 4.98125 14.0897 4.85516 14.0897 4.7C14.0897 4.54484 14.2163 4.41875 14.371 4.41875H15.6174C15.7744 4.41875 15.8986 4.54484 15.8986 4.7V5.94734C15.8986 6.10297 15.7744 6.22859 15.6174 6.22859C15.4622 6.22859 15.3361 6.10297 15.3361 5.94734V5.37594L13.6763 7.02453C13.6074 7.09344 13.508 7.12109 13.4119 7.09859L10.3566 6.36406L8.07846 8.18141C8.0269 8.22219 7.96549 8.24281 7.90221 8.24281C7.8619 8.24281 7.82159 8.23438 7.78362 8.21703L5.14784 7.00297C5.00815 6.93781 4.94674 6.77094 5.0119 6.62984C5.07471 6.48828 5.24346 6.42688 5.38502 6.49156ZM7.42737 10.1305H8.84393C9.00096 10.1305 9.12518 10.2566 9.12518 10.4117V13.3442H9.72237V8.15609C9.72237 8.00094 9.84659 7.87484 10.0036 7.87484H11.4202C11.5753 7.87484 11.7014 8.00094 11.7014 8.15609V13.3442H12.2967V9.455C12.2967 9.29984 12.4233 9.17375 12.578 9.17375H13.9964C14.1516 9.17375 14.2777 9.29984 14.2777 9.455V13.3442H14.873V7.17453C14.873 7.01938 14.9996 6.89328 15.1542 6.89328H16.5708C16.726 6.89328 16.8521 7.01938 16.8521 7.17453V13.3442H17.4549C17.6119 13.3442 17.7361 13.4703 17.7361 13.6255C17.7361 13.7806 17.6119 13.9067 17.4549 13.9067H3.96659C3.81143 13.9067 3.68534 13.7806 3.68534 13.6255C3.68534 13.4703 3.8119 13.3442 3.96659 13.3442H4.57127V9.28344C4.57127 9.12828 4.69549 9.00219 4.85252 9.00219H6.26909C6.42424 9.00219 6.55034 9.12828 6.55034 9.28344V13.3442H7.14565V10.4117C7.14612 10.2566 7.27268 10.1305 7.42737 10.1305ZM4.17706 15.5506H12.7781C12.9333 15.5506 13.0594 15.6763 13.0594 15.8319C13.0594 15.987 12.9328 16.1131 12.7781 16.1131H4.17706C4.02002 16.1131 3.89581 15.987 3.89581 15.8319C3.89581 15.6763 4.02002 15.5506 4.17706 15.5506ZM4.17706 17.2494H16.9167C17.0738 17.2494 17.198 17.3755 17.198 17.5306C17.198 17.6858 17.0738 17.8119 16.9167 17.8119H4.17706C4.02002 17.8119 3.89581 17.6858 3.89581 17.5306C3.89581 17.375 4.02002 17.2494 4.17706 17.2494ZM4.17706 18.9481H16.9167C17.0738 18.9481 17.198 19.0737 17.198 19.2294C17.198 19.3845 17.0738 19.5106 16.9167 19.5106H4.17706C4.02002 19.5106 3.89581 19.3845 3.89581 19.2294C3.89581 19.0737 4.02002 18.9481 4.17706 18.9481ZM4.17706 20.6469H16.9167C17.0738 20.6469 17.198 20.773 17.198 20.9281C17.198 21.0833 17.0738 21.2094 16.9167 21.2094H4.17706C4.02002 21.2094 3.89581 21.0833 3.89581 20.9281C3.89581 20.7725 4.02002 20.6469 4.17706 20.6469Z" fill="#FCAF3B"/>
</svg>