<svg xmlns="http://www.w3.org/2000/svg" width="24" height="24" viewBox="0 0 24 24" fill="none">
  <g clip-path="url(#clip0_79_21153)">
    <path fill-rule="evenodd" clip-rule="evenodd" d="M23.1901 9.32955C21.3029 8.94822 19.4158 9.13933 17.5286 9.90292C17.4128 9.94975 17.3542 10.0789 17.3951 10.1969L20.0607 17.8943C20.094 17.9904 20.1805 18.052 20.2822 18.052H23.1901V9.32955ZM6.88911 0.571045C7.90934 0.571045 8.73641 1.38794 8.73641 2.39565C8.73641 3.40337 7.90934 4.22026 6.88911 4.22026C5.86887 4.22026 5.04181 3.40337 5.04181 2.39565C5.04181 1.38794 5.86887 0.571045 6.88911 0.571045ZM12 1.91753C13.0203 1.91753 13.8473 2.73442 13.8473 3.74214C13.8473 4.74986 13.0203 5.56675 12 5.56675C10.9798 5.56675 10.1527 4.74986 10.1527 3.74214C10.1527 2.73442 10.9798 1.91753 12 1.91753ZM17.111 0.571045C18.1312 0.571045 18.9583 1.38794 18.9583 2.39565C18.9583 3.40337 18.1312 4.22026 17.111 4.22026C16.0908 4.22026 15.2637 3.40337 15.2637 2.39565C15.2637 1.38794 16.0908 0.571045 17.111 0.571045ZM8.85228 13.8455C8.85228 13.4834 8.97865 13.1889 9.24265 12.9407L11.1709 11.1277C12.2935 10.0721 13.3306 10.2826 14.6395 10.6969C15.4023 10.9383 16.1444 11.1732 17.0082 11.2284L19.115 17.3121C18.8608 17.4386 18.5996 17.5641 18.3154 17.6801C17.8376 17.8751 17.3321 17.7739 16.9669 17.409L12.7637 13.2084C12.6315 13.0769 12.4208 13.0727 12.2835 13.1951C12.2833 13.195 12.143 13.3116 12.1304 13.3217C11.6999 13.6692 10.9784 14.2516 10.9784 15.215C10.9784 15.7664 10.7109 16.2232 10.3039 16.5526C9.91212 16.8698 9.39355 17.0719 8.85228 17.1336V13.8455ZM6.91095 11.4622C7.25098 11.5487 7.5815 11.6083 7.91136 11.6431C8.4777 11.7028 9.03641 11.6887 9.63275 11.6111L8.762 12.4299C8.36211 12.8058 8.14916 13.2964 8.14916 13.8455V17.5053C8.14916 17.6995 8.30656 17.8569 8.50072 17.8569C9.31817 17.8569 10.1438 17.5841 10.7461 17.0965C11.3105 16.6397 11.6815 15.9981 11.6815 15.2151C11.6815 14.6314 12.1596 14.2029 12.4939 13.93L16.4724 17.9061C16.6632 18.0968 16.8824 18.2415 17.1182 18.3377C17.2786 18.5054 17.4386 18.6734 17.5986 18.8414C17.8826 19.1383 17.8998 19.6101 17.6041 19.9059C17.3153 20.1947 16.8353 20.1947 16.5465 19.9059C15.7751 19.1345 15.017 18.345 14.2542 17.5633C14.1192 17.4245 13.8972 17.4214 13.7584 17.5564C13.6196 17.6914 13.6165 17.9134 13.7515 18.0522L15.8442 20.1978C16.1347 20.4883 16.1345 20.9649 15.8441 21.2553C15.5538 21.5457 15.077 21.5458 14.7866 21.2554C13.9823 20.451 13.1922 19.6304 12.397 18.8155C12.262 18.6767 12.04 18.6737 11.9012 18.8087C11.7624 18.9437 11.7593 19.1657 11.8944 19.3045L13.9871 21.4501C14.2759 21.7389 14.276 22.2187 13.9871 22.5076C13.708 22.7867 13.182 22.76 12.9295 22.5076C12.0561 21.6342 11.1982 20.7475 10.3349 19.8628C10.1999 19.724 9.97789 19.7209 9.83914 19.8559C9.70039 19.9909 9.6973 20.2129 9.8323 20.3516L11.9249 22.4972C12.1381 22.7104 12.136 23.0625 11.9213 23.2733C11.7127 23.4769 11.3695 23.4841 11.1613 23.2759C11.153 23.2843 7.71776 19.7488 7.40464 19.428C6.61067 18.6146 5.90342 17.8926 4.86626 17.3665L6.91095 11.4622ZM8.93258 9.37511H15.0674V7.90515C15.0674 6.92265 14.5171 6.06254 13.7096 5.61751C13.2559 6.02359 12.6552 6.26983 12 6.26983C11.3448 6.26983 10.7441 6.02354 10.2904 5.61751C9.48284 6.06254 8.93253 6.92265 8.93253 7.90515V9.37511H8.93258ZM15.7706 8.02862V7.90515C15.7706 6.80992 15.2331 5.83539 14.4088 5.23154C14.6478 4.82992 14.9914 4.49701 15.4014 4.27108C15.855 4.67715 16.4558 4.92339 17.111 4.92339C17.7661 4.92339 18.3669 4.67715 18.8206 4.27108C19.6281 4.71606 20.1784 5.57622 20.1784 6.55867V8.02862H15.7706ZM3.82166 8.02862V6.55867C3.82166 5.57617 4.37192 4.71606 5.17948 4.27108C5.63319 4.67715 6.23394 4.92339 6.88911 4.92339C7.54428 4.92339 8.14498 4.67715 8.59869 4.27108C9.00861 4.49701 9.35225 4.82992 9.59126 5.23154C8.76697 5.83539 8.2295 6.80992 8.2295 7.90515V8.02862H3.82166ZM0.809937 9.32955V18.052H3.71792C3.81959 18.052 3.90612 17.9904 3.93936 17.8944L6.60505 10.1969C6.64592 10.0789 6.58728 9.94979 6.4715 9.90297C4.58431 9.13937 2.69712 8.94822 0.809937 9.32955Z" fill="#FCAF3B"/>
  </g>
  <defs>
    <clipPath id="clip0_79_21153">
      <rect width="24" height="24" fill="white"/>
    </clipPath>
  </defs>
</svg>