<svg xmlns="http://www.w3.org/2000/svg" width="24" height="24" viewBox="0 0 24 24" fill="none">
  <path d="M7.78125 4.21875C6.61809 4.21875 5.67188 3.27253 5.67188 2.10938C5.67188 0.946219 6.61809 0 7.78125 0C8.94441 0 9.89062 0.946219 9.89062 2.10938C9.89062 3.27253 8.94441 4.21875 7.78125 4.21875Z" fill="#FCAF3B"/>
  <path d="M16.2188 4.21875C15.0556 4.21875 14.1094 3.27253 14.1094 2.10938C14.1094 0.946219 15.0556 0 16.2188 0C17.3819 0 18.3281 0.946219 18.3281 2.10938C18.3281 3.27253 17.3819 4.21875 16.2188 4.21875Z" fill="#FCAF3B"/>
  <path d="M9.1875 24V17.8892L1.45312 10.8579V8.4375H22.5469V10.8579L14.8125 17.8892V20.2502L9.1875 24Z" fill="#FCAF3B"/>
  <path d="M19.6632 7.03125C19.3366 5.42855 17.9164 4.21875 16.2188 4.21875C14.5211 4.21875 13.101 5.42855 12.7743 7.03125H19.6632Z" fill="#FCAF3B"/>
  <path d="M11.2257 7.03125C10.8991 5.42855 9.47889 4.21875 7.78126 4.21875C6.08364 4.21875 4.66346 5.42855 4.33679 7.03125H11.2257Z" fill="#FCAF3B"/>
</svg>