<svg xmlns="http://www.w3.org/2000/svg" width="42" height="42" viewBox="0 0 42 42" fill="none">
  <path fill-rule="evenodd" clip-rule="evenodd" d="M21 36.75C17.3758 36.75 14.4375 33.8113 14.4375 30.1875V9.18488C14.4375 8.14144 14.8523 7.14 15.5899 6.40237C16.3275 5.66475 17.3285 5.25 18.3724 5.25H18.3776C20.5511 5.25 22.3125 7.01137 22.3125 9.18488V27.5651C22.3125 28.2883 21.7263 28.875 21.0026 28.875H21C20.2755 28.875 19.6875 28.287 19.6875 27.5625V11.8125C19.6875 11.088 19.0995 10.5 18.375 10.5C17.6505 10.5 17.0625 11.088 17.0625 11.8125V27.5625C17.0625 29.7373 18.8256 31.5 21 31.5H21.0026C23.1761 31.5 24.9375 29.7386 24.9375 27.5651V9.18488C24.9375 5.56238 22.0001 2.625 18.3776 2.625H18.3724C16.6329 2.625 14.9643 3.31669 13.734 4.5465C12.5038 5.77631 11.8125 7.4445 11.8125 9.18488V30.1875C11.8125 35.2616 15.9259 39.375 21 39.375C23.4369 39.375 25.7731 38.4077 27.4969 36.6844C29.2198 34.9611 30.1875 32.6248 30.1875 30.1875C30.1875 22.4556 30.1875 11.8125 30.1875 11.8125C30.1875 11.088 29.5995 10.5 28.875 10.5C28.1505 10.5 27.5625 11.088 27.5625 11.8125V30.1875C27.5625 31.9279 26.8713 33.5974 25.6401 34.8285C24.4099 36.0583 22.7404 36.75 21 36.75Z" fill="#6A6A6A"/>
</svg>