<svg xmlns="http://www.w3.org/2000/svg" width="24" height="24" viewBox="0 0 24 24" fill="none">
  <g clip-path="url(#clip0_193_3087)">
    <path d="M12 0.75C9.77497 0.75 7.59989 1.4098 5.74984 2.64597C3.89979 3.88213 2.45785 5.63914 1.60636 7.69481C0.754875 9.75048 0.532087 12.0125 0.966171 14.1948C1.40025 16.3771 2.47171 18.3816 4.04505 19.955C5.61839 21.5283 7.62295 22.5998 9.80524 23.0338C11.9875 23.4679 14.2495 23.2451 16.3052 22.3936C18.3609 21.5422 20.1179 20.1002 21.354 18.2502C22.5902 16.4001 23.25 14.225 23.25 12C23.2463 9.01744 22.0599 6.15809 19.9509 4.0491C17.8419 1.94012 14.9826 0.753672 12 0.75ZM12 22.5C9.9233 22.5 7.89323 21.8842 6.16652 20.7304C4.4398 19.5767 3.09399 17.9368 2.29927 16.0182C1.50455 14.0996 1.29661 11.9884 1.70176 9.95155C2.1069 7.91475 3.10693 6.04383 4.57538 4.57538C6.04384 3.10693 7.91476 2.1069 9.95156 1.70175C11.9884 1.29661 14.0996 1.50454 16.0182 2.29926C17.9368 3.09399 19.5767 4.4398 20.7304 6.16651C21.8842 7.89323 22.5 9.9233 22.5 12C22.4969 14.7838 21.3897 17.4528 19.4212 19.4212C17.4528 21.3897 14.7838 22.4969 12 22.5Z" fill="#F1F2F2"/>
    <path d="M12 2.55469C10.1317 2.55469 8.30534 3.1087 6.75191 4.14667C5.19848 5.18464 3.98773 6.65994 3.27277 8.38601C2.5578 10.1121 2.37074 12.0114 2.73522 13.8438C3.09971 15.6762 3.99938 17.3594 5.32046 18.6804C6.64154 20.0015 8.3247 20.9012 10.1571 21.2657C11.9895 21.6302 13.8888 21.4431 15.6149 20.7281C17.341 20.0132 18.8163 18.8024 19.8542 17.249C20.8922 15.6956 21.4462 13.8692 21.4462 12.0009C21.4434 9.49649 20.4473 7.09541 18.6764 5.3245C16.9055 3.55359 14.5044 2.55747 12 2.55469ZM20.0812 12.2672C20.0447 12.3003 20.0029 12.3269 19.9575 12.3459C19.9126 12.3657 19.864 12.376 19.815 12.376C19.7659 12.376 19.7174 12.3657 19.6725 12.3459C19.6261 12.3287 19.5839 12.3019 19.5487 12.2672C19.479 12.1961 19.4399 12.1005 19.4399 12.0009C19.4399 11.9014 19.479 11.8058 19.5487 11.7347C19.5839 11.7 19.6261 11.6731 19.6725 11.6559C19.7638 11.6184 19.8662 11.6184 19.9575 11.6559C20.0029 11.675 20.0447 11.7016 20.0812 11.7347C20.1509 11.8058 20.19 11.9014 20.19 12.0009C20.19 12.1005 20.1509 12.1961 20.0812 12.2672ZM13.4287 12.0009C13.4301 12.3471 13.3054 12.6818 13.0779 12.9428C12.8505 13.2037 12.5359 13.3729 12.1928 13.4188C11.8497 13.4648 11.5017 13.3843 11.2136 13.1923C10.9256 13.0004 10.7172 12.7102 10.6275 12.3759H8.26122C8.16176 12.3759 8.06638 12.3364 7.99605 12.2661C7.92572 12.1958 7.88622 12.1004 7.88622 12.0009C7.88622 11.9015 7.92572 11.8061 7.99605 11.7358C8.06638 11.6654 8.16176 11.6259 8.26122 11.6259H10.6275C10.694 11.388 10.8207 11.1711 10.9954 10.9964C11.1702 10.8217 11.387 10.6949 11.625 10.6284V6.20719C11.625 6.10773 11.6645 6.01235 11.7348 5.94202C11.8051 5.8717 11.9005 5.83219 12 5.83219C12.0994 5.83219 12.1948 5.8717 12.2651 5.94202C12.3355 6.01235 12.375 6.10773 12.375 6.20719V10.6284C12.6763 10.7109 12.9424 10.8897 13.1326 11.1375C13.3229 11.3853 13.4269 11.6885 13.4287 12.0009ZM12.2662 4.45219C12.2478 4.46925 12.2277 4.48433 12.2062 4.49719C12.1871 4.51206 12.1655 4.52348 12.1425 4.53094C12.1201 4.54236 12.0961 4.54996 12.0712 4.55344C12.0477 4.55779 12.0239 4.5603 12 4.56094C11.9005 4.5602 11.8052 4.52126 11.7337 4.45219C11.6999 4.41552 11.6721 4.37376 11.6512 4.32844C11.6162 4.23666 11.6162 4.13521 11.6512 4.04344C11.6721 3.99812 11.6999 3.95635 11.7337 3.91969C11.7774 3.87645 11.831 3.84461 11.8898 3.82695C11.9487 3.8093 12.011 3.80637 12.0712 3.81844C12.0961 3.82191 12.1201 3.82952 12.1425 3.84094C12.1655 3.8484 12.1871 3.85982 12.2062 3.87469C12.2277 3.88755 12.2478 3.90263 12.2662 3.91969C12.2993 3.95616 12.3259 3.99801 12.345 4.04344C12.3642 4.08852 12.3744 4.13693 12.375 4.18594C12.3735 4.28521 12.3347 4.38028 12.2662 4.45219ZM6.84747 6.47344C6.84821 6.52342 6.83929 6.57308 6.82122 6.61969C6.78104 6.70988 6.70891 6.78201 6.61871 6.82219C6.57223 6.84111 6.52265 6.85128 6.47247 6.85219C6.4234 6.85199 6.37488 6.84192 6.32979 6.8226C6.28469 6.80327 6.24395 6.77508 6.20996 6.73969C6.17382 6.70637 6.14563 6.66536 6.12747 6.61969C6.10819 6.57331 6.09801 6.52366 6.09747 6.47344C6.09767 6.42438 6.10773 6.37586 6.12705 6.33076C6.14638 6.28567 6.17458 6.24492 6.20996 6.21094C6.26273 6.15899 6.32948 6.12353 6.40207 6.10888C6.47465 6.09423 6.54993 6.10102 6.61871 6.12844C6.66439 6.1466 6.7054 6.1748 6.73871 6.21094C6.75765 6.22617 6.77301 6.24537 6.78372 6.26719C6.79839 6.28708 6.81096 6.30844 6.82122 6.33094C6.82921 6.35419 6.83548 6.37801 6.83996 6.40219C6.84616 6.4254 6.84869 6.44944 6.84747 6.47344ZM6.20996 17.2622C6.24427 17.2267 6.28535 17.1985 6.33077 17.1793C6.37618 17.16 6.42501 17.1501 6.47434 17.1501C6.52367 17.1501 6.5725 17.16 6.61791 17.1793C6.66333 17.1985 6.70441 17.2267 6.73871 17.2622C6.77393 17.2969 6.80173 17.3384 6.82043 17.3841C6.83912 17.4299 6.84832 17.479 6.84747 17.5284C6.84869 17.5524 6.84616 17.5765 6.83996 17.5997C6.83594 17.624 6.82967 17.6478 6.82122 17.6709C6.81096 17.6934 6.79839 17.7148 6.78372 17.7347C6.77301 17.7565 6.75765 17.7757 6.73871 17.7909C6.7054 17.8271 6.66439 17.8553 6.61871 17.8734C6.57223 17.8924 6.52265 17.9025 6.47247 17.9034C6.3983 17.9031 6.32589 17.8808 6.2644 17.8394C6.20291 17.7979 6.15509 17.7391 6.12699 17.6705C6.09889 17.6019 6.09178 17.5264 6.10655 17.4538C6.12132 17.3811 6.15731 17.3144 6.20996 17.2622ZM11.6512 19.9584C11.6162 19.8667 11.6162 19.7652 11.6512 19.6734C11.6721 19.6281 11.6999 19.5864 11.7337 19.5497C11.7774 19.5065 11.831 19.4746 11.8898 19.457C11.9487 19.4393 12.011 19.4364 12.0712 19.4484C12.0961 19.4519 12.1201 19.4595 12.1425 19.4709C12.1655 19.4784 12.1871 19.4898 12.2062 19.5047C12.2277 19.5175 12.2478 19.5326 12.2662 19.5497C12.3001 19.5855 12.3268 19.6275 12.345 19.6734C12.3642 19.7185 12.3744 19.7669 12.375 19.8159C12.3735 19.9152 12.3347 20.0103 12.2662 20.0822C12.2475 20.0972 12.2287 20.1122 12.2062 20.1272C12.1871 20.1421 12.1655 20.1535 12.1425 20.1609C12.1201 20.1724 12.0961 20.18 12.0712 20.1834C12.0477 20.1878 12.0239 20.1903 12 20.1909C11.9005 20.1902 11.8052 20.1513 11.7337 20.0822C11.7007 20.0449 11.673 20.0032 11.6512 19.9584ZM17.1525 17.5284C17.1517 17.4785 17.1606 17.4288 17.1787 17.3822C17.1982 17.3373 17.2263 17.2965 17.2612 17.2622C17.2782 17.244 17.297 17.2276 17.3175 17.2134C17.3362 17.2022 17.3587 17.1909 17.3812 17.1797C17.4045 17.1717 17.4283 17.1654 17.4525 17.1609C17.5069 17.1502 17.5631 17.1516 17.6169 17.165C17.6708 17.1785 17.721 17.2036 17.764 17.2387C17.807 17.2739 17.8417 17.318 17.8656 17.3681C17.8896 17.4182 17.9021 17.4729 17.9025 17.5284C17.9023 17.5775 17.8922 17.626 17.8729 17.6711C17.8535 17.7162 17.8254 17.757 17.79 17.7909C17.7566 17.8271 17.7156 17.8553 17.67 17.8734C17.6249 17.8927 17.5765 17.9028 17.5275 17.9034C17.4778 17.9036 17.4286 17.8937 17.3828 17.8744C17.3371 17.8551 17.2957 17.8267 17.2612 17.7909C17.2263 17.7566 17.1982 17.7159 17.1787 17.6709C17.1607 17.6256 17.1517 17.5772 17.1525 17.5284ZM17.79 6.73969C17.7556 6.77465 17.7149 6.80266 17.67 6.82219C17.6247 6.84025 17.5762 6.84917 17.5275 6.84844C17.478 6.8493 17.4289 6.8401 17.3832 6.8214C17.3374 6.80271 17.2959 6.77491 17.2612 6.73969C17.2263 6.70536 17.1982 6.66462 17.1787 6.61969C17.1606 6.57308 17.1517 6.52342 17.1525 6.47344C17.1517 6.42467 17.1607 6.37624 17.1787 6.33094C17.1982 6.28601 17.2263 6.24526 17.2612 6.21094C17.2782 6.19274 17.297 6.17639 17.3175 6.16219C17.3362 6.15094 17.3587 6.13969 17.3812 6.12844C17.4037 6.11719 17.43 6.11344 17.4525 6.10594C17.513 6.09435 17.5755 6.09787 17.6344 6.11618C17.6932 6.1345 17.7467 6.16704 17.79 6.21094C17.8254 6.24492 17.8535 6.28567 17.8729 6.33076C17.8922 6.37586 17.9023 6.42438 17.9025 6.47344C17.9023 6.52305 17.8922 6.57213 17.8729 6.61784C17.8536 6.66354 17.8254 6.70496 17.79 6.73969ZM4.45122 12.2672C4.38951 12.3301 4.30786 12.3697 4.22023 12.379C4.1326 12.3884 4.04443 12.3671 3.97079 12.3187C3.89716 12.2703 3.84263 12.1978 3.81652 12.1136C3.79042 12.0294 3.79437 11.9388 3.8277 11.8572C3.86102 11.7756 3.92165 11.7081 3.99922 11.6663C4.07679 11.6244 4.16649 11.6109 4.25297 11.6278C4.33945 11.6448 4.41735 11.6913 4.47334 11.7594C4.52934 11.8274 4.55996 11.9128 4.55997 12.0009C4.55851 12.1002 4.51968 12.1953 4.45122 12.2672Z" fill="#F1F2F2"/>
    <path d="M12 12.6778C12.3749 12.6778 12.6788 12.3739 12.6788 11.9991C12.6788 11.6242 12.3749 11.3203 12 11.3203C11.6252 11.3203 11.3213 11.6242 11.3213 11.9991C11.3213 12.3739 11.6252 12.6778 12 12.6778Z" fill="#F1F2F2"/>
  </g>
  <defs>
    <clipPath id="clip0_193_3087">
      <rect width="24" height="24" fill="white"/>
    </clipPath>
  </defs>
</svg>