<svg xmlns="http://www.w3.org/2000/svg" width="24" height="24" viewBox="0 0 24 24" fill="none">
  <g clip-path="url(#clip0_79_21208)">
    <path d="M12 0C5.4 0 0 5.4 0 12C0 18.6 5.4 24 12 24C18.6 24 24 18.6 24 12C24 5.4 18.6 0 12 0ZM12 22.0875C6.45 22.0875 1.9125 17.55 1.9125 12C1.9125 6.45 6.4125 1.9125 12 1.9125C17.5875 1.9125 22.0875 6.45 22.0875 12C22.0875 17.55 17.55 22.0875 12 22.0875Z" fill="#6A6A6A" fill-opacity="0.4"/>
    <path d="M12.0001 2.6626C6.8626 2.6626 2.6626 6.8626 2.6626 12.0001C2.6626 17.1751 6.8626 21.3376 12.0001 21.3376C17.1376 21.3376 21.3376 17.1751 21.3376 12.0001C21.3376 6.8626 17.1376 2.6626 12.0001 2.6626ZM4.2376 12.3751H3.4876C3.3001 12.3751 3.1126 12.2251 3.1126 12.0001C3.1126 11.8126 3.2626 11.6251 3.4876 11.6251H4.2376C4.4251 11.6251 4.6126 11.7751 4.6126 12.0001C4.5751 12.1876 4.4251 12.3751 4.2376 12.3751ZM11.6251 3.4501C11.6251 3.2626 11.7751 3.0751 12.0001 3.0751C12.1876 3.0751 12.3751 3.2251 12.3751 3.4501V4.2001C12.3751 4.3876 12.2251 4.5751 12.0001 4.5751C11.8126 4.5751 11.6251 4.4251 11.6251 4.2001V3.4501ZM6.7501 17.7751L6.2251 18.3001C6.1501 18.3751 6.0751 18.4126 5.9626 18.4126C5.8501 18.4126 5.7751 18.3751 5.7001 18.3001C5.5501 18.1501 5.5501 17.9251 5.7001 17.7751L6.2251 17.2501C6.3751 17.1001 6.6001 17.1001 6.7501 17.2501C6.9001 17.4001 6.9001 17.6251 6.7501 17.7751ZM6.7501 6.7501C6.6751 6.8251 6.6001 6.8626 6.4876 6.8626C6.3751 6.8626 6.3001 6.8251 6.2251 6.7501L5.7001 6.2251C5.5501 6.0751 5.5501 5.8501 5.7001 5.7001C5.8501 5.5501 6.0751 5.5501 6.2251 5.7001L6.7501 6.2251C6.9001 6.3751 6.9001 6.6001 6.7501 6.7501ZM12.3751 20.5501C12.3751 20.7376 12.2251 20.9251 12.0001 20.9251C11.8126 20.9251 11.6251 20.7751 11.6251 20.5501V19.8001C11.6251 19.6126 11.7751 19.4251 12.0001 19.4251C12.1876 19.4251 12.3751 19.5751 12.3751 19.8001V20.5501ZM16.0501 12.3751H13.2001C13.0501 12.9001 12.5626 13.2751 12.0001 13.2751C11.2876 13.2751 10.7251 12.7126 10.7251 12.0001C10.7251 11.4376 11.1001 10.9501 11.6251 10.8001V6.1501C11.6251 5.9626 11.7751 5.7751 12.0001 5.7751C12.1876 5.7751 12.3751 5.9251 12.3751 6.1501V10.8001C12.7876 10.9126 13.0876 11.2501 13.2001 11.6251H16.0501C16.2376 11.6251 16.4251 11.7751 16.4251 12.0001C16.4251 12.1876 16.2376 12.3751 16.0501 12.3751ZM18.3001 18.3001C18.2251 18.3751 18.1501 18.4126 18.0376 18.4126C17.9626 18.4126 17.8501 18.3751 17.7751 18.3001L17.2501 17.7751C17.1001 17.6251 17.1001 17.4001 17.2501 17.2501C17.4001 17.1001 17.6251 17.1001 17.7751 17.2501L18.3001 17.7751C18.4501 17.9251 18.4501 18.1501 18.3001 18.3001ZM18.3001 6.2251L17.7376 6.7501C17.6626 6.8251 17.5876 6.8626 17.4751 6.8626C17.3626 6.8626 17.2876 6.8251 17.2126 6.7501C17.0626 6.6001 17.0626 6.3751 17.2126 6.2251L17.7376 5.7001C17.8876 5.5501 18.1126 5.5501 18.2626 5.7001C18.4501 5.8501 18.4501 6.0751 18.3001 6.2251ZM20.5501 12.3751H19.8001C19.6126 12.3751 19.4251 12.2251 19.4251 12.0001C19.4251 11.8126 19.5751 11.6251 19.8001 11.6251H20.5501C20.7376 11.6251 20.9251 11.7751 20.9251 12.0001C20.8876 12.1876 20.7376 12.3751 20.5501 12.3751Z" fill="#6A6A6A" fill-opacity="0.4"/>
    <path d="M12.0001 11.4751C11.7001 11.4751 11.4751 11.7001 11.4751 12.0001C11.4751 12.3001 11.7001 12.5251 12.0001 12.5251C12.3001 12.5251 12.5251 12.3001 12.5251 12.0001C12.5251 11.7001 12.3001 11.4751 12.0001 11.4751Z" fill="#6A6A6A" fill-opacity="0.4"/>
  </g>
  <defs>
    <clipPath id="clip0_79_21208">
      <rect width="24" height="24" fill="white"/>
    </clipPath>
  </defs>
</svg>