<svg xmlns="http://www.w3.org/2000/svg" width="24" height="24" viewBox="0 0 24 24" fill="none">
  <g clip-path="url(#clip0_79_21658)">
    <path d="M23.2967 24H0.703121C0.314811 24 0 23.6852 0 23.2969V21.8906C0 21.5023 0.314811 21.1875 0.703121 21.1875H23.2967C23.6851 21.1875 23.9999 21.5023 23.9999 21.8906V23.2969C23.9999 23.6852 23.6851 24 23.2967 24Z" fill="#FCAF3B"/>
    <path d="M15.0469 19.0781C15.0469 18.6898 14.7321 18.375 14.3438 18.375H9.65625C9.26794 18.375 8.95312 18.6898 8.95312 19.0781V19.7812H15.0469V19.0781Z" fill="#FCAF3B"/>
    <path d="M22.5469 19.0781C22.5469 18.6898 22.2321 18.375 21.8438 18.375H17.1562C16.7679 18.375 16.4531 18.6898 16.4531 19.0781V19.7812H22.5469V19.0781Z" fill="#FCAF3B"/>
    <path d="M7.54688 19.0781C7.54688 18.6898 7.23206 18.375 6.84375 18.375H2.15625C1.76794 18.375 1.45312 18.6898 1.45312 19.0781V19.7812H7.54688V19.0781Z" fill="#FCAF3B"/>
    <path d="M8.95312 9.14062C8.95312 9.52894 9.26794 9.84375 9.65625 9.84375H14.3438C14.7321 9.84375 15.0469 9.52894 15.0469 9.14062V8.4375H8.95312V9.14062Z" fill="#FCAF3B"/>
    <path d="M16.4531 9.14062C16.4531 9.52894 16.7679 9.84375 17.1562 9.84375H21.8438C22.2321 9.84375 22.5469 9.52894 22.5469 9.14062V8.4375H16.4531V9.14062Z" fill="#FCAF3B"/>
    <path d="M1.45312 9.14062C1.45312 9.52894 1.76794 9.84375 2.15625 9.84375H6.84375C7.23206 9.84375 7.54688 9.52894 7.54688 9.14062V8.4375H1.45312V9.14062Z" fill="#FCAF3B"/>
    <path d="M17.8594 11.25H21.1406V16.9688H17.8594V11.25Z" fill="#FCAF3B"/>
    <path d="M10.3594 11.25H13.6406V16.9688H10.3594V11.25Z" fill="#FCAF3B"/>
    <path d="M2.85938 11.25H6.14063V16.9688H2.85938V11.25Z" fill="#FCAF3B"/>
    <path d="M23.6102 5.69869L12.3134 0.0737222C12.116 -0.0245741 11.884 -0.0245741 11.6866 0.0737222L0.389789 5.69869C0.0977126 5.84414 -0.0559428 6.17142 0.0187287 6.48909C0.0934001 6.80676 0.376852 7.03124 0.703193 7.03124H23.2968C23.6231 7.03124 23.9066 6.80671 23.9813 6.48909C24.056 6.17142 23.9023 5.84414 23.6102 5.69869ZM12 4.45313C11.6117 4.45313 11.2969 4.13832 11.2969 3.75001C11.2969 3.3617 11.6117 3.04689 12 3.04689C12.3883 3.04689 12.7031 3.3617 12.7031 3.75001C12.7031 4.13832 12.3884 4.45313 12 4.45313Z" fill="#FCAF3B"/>
  </g>
  <defs>
    <clipPath id="clip0_79_21658">
      <rect width="24" height="24" fill="white"/>
    </clipPath>
  </defs>
</svg>