<svg xmlns="http://www.w3.org/2000/svg" width="24" height="24" viewBox="0 0 24 24" fill="none">
  <g clip-path="url(#clip0_79_21532)">
    <path d="M5.625 6H1.18506L6 1.18506V5.625C6 5.82715 5.82751 6 5.625 6ZM14.7074 15.75L13.2074 18.75L16.2074 17.25L20.9249 12.5325L19.4249 11.0325L14.7074 15.75ZM22.9574 9C22.545 8.58765 21.8474 8.61035 21.405 9.04468L20.4825 9.96753L21.9825 11.4675L22.905 10.5447C23.3474 10.1104 23.3701 9.41235 22.9574 9ZM11.8649 18.0828C11.58 18.6599 11.6924 19.3572 12.1501 19.8076C12.4351 20.0999 12.8174 20.25 13.2074 20.25C13.4326 20.25 13.6652 20.1973 13.875 20.0925L16.875 18.5925C17.0251 18.5178 17.1526 18.4277 17.265 18.3076L18.75 16.8223V21.375C18.75 22.4099 17.9099 23.25 16.875 23.25H2.625C1.59009 23.25 0.75 22.4099 0.75 21.375V7.5H5.625C6.65991 7.5 7.5 6.65991 7.5 5.625V0.75H16.875C17.9099 0.75 18.75 1.59009 18.75 2.625V9.57715L13.6425 14.6924C13.53 14.8052 13.4399 14.9326 13.3649 15.0828L11.8649 18.0828ZM6.53247 17.4675C6.23987 17.1753 5.76013 17.1753 5.46753 17.4675L4.5 18.4424L4.28247 18.2175C3.98987 17.9253 3.51013 17.9253 3.21753 18.2175C2.92493 18.5098 2.92493 18.9902 3.21753 19.2825L3.96753 20.0325C4.11768 20.1753 4.30518 20.25 4.5 20.25C4.69482 20.25 4.88232 20.1753 5.03247 20.0325L6.53247 18.5325C6.82507 18.2402 6.82507 17.7598 6.53247 17.4675ZM6.53247 13.7175C6.23987 13.4253 5.76013 13.4253 5.46753 13.7175L4.5 14.6924L4.28247 14.4675C3.98987 14.1753 3.51013 14.1753 3.21753 14.4675C2.92493 14.7598 2.92493 15.2402 3.21753 15.5325L3.96753 16.2825C4.11768 16.4253 4.30518 16.5 4.5 16.5C4.69482 16.5 4.88232 16.4253 5.03247 16.2825L6.53247 14.7825C6.82507 14.4902 6.82507 14.0098 6.53247 13.7175ZM6.53247 9.96753C6.23987 9.67529 5.76013 9.67529 5.46753 9.96753L4.5 10.9424L4.28247 10.7175C3.98987 10.4253 3.51013 10.4253 3.21753 10.7175C2.92493 11.0098 2.92493 11.4902 3.21753 11.7825L3.96753 12.5325C4.11768 12.6753 4.30518 12.75 4.5 12.75C4.69482 12.75 4.88232 12.6753 5.03247 12.5325L6.53247 11.0325C6.82507 10.7402 6.82507 10.2598 6.53247 9.96753ZM8.25 11.25C8.25 11.6624 8.58765 12 9 12H15.75C16.1624 12 16.5 11.6624 16.5 11.25C16.5 10.8376 16.1624 10.5 15.75 10.5H9C8.58765 10.5 8.25 10.8376 8.25 11.25ZM11.25 18.75C11.25 18.3376 10.9124 18 10.5 18H9C8.58765 18 8.25 18.3376 8.25 18.75C8.25 19.1624 8.58765 19.5 9 19.5H10.5C10.9124 19.5 11.25 19.1624 11.25 18.75ZM12 15C12 14.5876 11.6624 14.25 11.25 14.25H9C8.58765 14.25 8.25 14.5876 8.25 15C8.25 15.4124 8.58765 15.75 9 15.75H11.25C11.6624 15.75 12 15.4124 12 15Z" fill="#FCAF3B"/>
  </g>
  <defs>
    <clipPath id="clip0_79_21532">
      <rect width="24" height="24" fill="white"/>
    </clipPath>
  </defs>
</svg>