<svg xmlns="http://www.w3.org/2000/svg" width="25" height="25" viewBox="0 0 25 25" fill="none">
  <path d="M21.9125 11.1064C21.7138 11.107 21.5233 11.1862 21.3828 11.3268C21.2423 11.4673 21.1631 11.6577 21.1625 11.8564V12.3252C21.1634 12.327 21.1619 19.18 21.1625 19.1915C21.1631 19.3902 21.2423 19.5806 21.3828 19.7211C21.5233 19.8617 21.7138 19.9409 21.9125 19.9414H23V11.1064H21.9125Z" fill="#FCAF3B"/>
  <path d="M13.6588 12.9366L9.7288 14.7404C9.64773 14.7779 9.578 14.8361 9.52665 14.9092C9.4753 14.9823 9.44414 15.0676 9.43633 15.1566C9.42704 15.88 10.6443 16.0367 11.1876 15.7641L14.2063 14.4554C14.2553 14.4344 14.3081 14.4241 14.3613 14.425C14.4146 14.426 14.467 14.4382 14.5152 14.4609C14.5633 14.4835 14.6062 14.5161 14.6408 14.5566C14.6755 14.597 14.7012 14.6443 14.7162 14.6954C14.7312 14.7441 15.1476 15.9404 17.4951 15.7979C17.5944 15.7923 17.6919 15.8262 17.7664 15.8922C17.8409 15.9583 17.8862 16.051 17.8925 16.1504C17.9092 16.6716 17.2323 16.5475 16.9063 16.5554L17.3938 16.9341C17.5418 17.0516 17.6649 17.1975 17.7556 17.3633C17.8464 17.5291 17.903 17.7114 17.9223 17.8994C17.9415 18.0874 17.9229 18.2774 17.8675 18.4581C17.8122 18.6388 17.7212 18.8066 17.6 18.9516L20.4125 18.9441V12.7041H14.7238C14.3563 12.7046 13.9931 12.7839 13.6588 12.9366Z" fill="#FCAF3B"/>
  <path d="M3.00873 11.1064H2V19.9414H3.00873C3.20746 19.9409 3.39789 19.8617 3.53842 19.7211C3.67895 19.5806 3.75815 19.3902 3.75873 19.1914V11.8564C3.75815 11.6577 3.67895 11.4673 3.53842 11.3268C3.39789 11.1862 3.20746 11.107 3.00873 11.1064Z" fill="#FCAF3B"/>
  <path d="M15.1887 16.1653C14.7793 15.9694 14.4307 15.6661 14.1799 15.2878L11.4875 16.4541C11.194 16.5817 10.8775 16.6481 10.5575 16.6491C9.68698 16.6596 8.58313 16.0913 8.68996 15.0891C8.70836 14.8685 8.78508 14.6567 8.91225 14.4755C9.03942 14.2943 9.21248 14.1502 9.41369 14.0578L11.0524 13.3078C10.633 12.9318 10.0931 12.7178 9.52997 12.7041L4.50867 12.7041V18.9441C5.07465 18.9468 5.84094 18.8681 6.30492 19.2441C7.96616 20.4141 9.51494 21.4679 10.5462 22.1279C10.6882 22.2148 10.858 22.2448 11.0212 22.2117C11.1844 22.1786 11.3291 22.0849 11.426 21.9494C11.523 21.814 11.565 21.6469 11.5437 21.4817C11.5224 21.3165 11.4393 21.1655 11.3112 21.0591C11.0449 20.8491 10.2362 20.1953 9.98744 19.9941C9.91179 19.9313 9.86383 19.8413 9.85389 19.7435C9.84395 19.6457 9.87283 19.5479 9.9343 19.4712C9.99577 19.3945 10.0849 19.345 10.1825 19.3334C10.2802 19.3218 10.3784 19.349 10.4562 19.4091L12.6274 21.1491C12.6975 21.2039 12.7777 21.2443 12.8635 21.2678C12.9493 21.2913 13.0389 21.2975 13.1271 21.286C13.2153 21.2746 13.3003 21.2457 13.3773 21.2011C13.4542 21.1564 13.5215 21.0969 13.5752 21.0261C13.6289 20.9552 13.668 20.8743 13.6902 20.7882C13.7123 20.702 13.7172 20.6124 13.7043 20.5243C13.6915 20.4363 13.6613 20.3518 13.6155 20.2755C13.5697 20.1993 13.5092 20.1329 13.4374 20.0803L11.8099 18.7791C11.7339 18.7164 11.6856 18.6264 11.6755 18.5284C11.6654 18.4304 11.6942 18.3324 11.7558 18.2555C11.8174 18.1786 11.9068 18.1291 12.0047 18.1176C12.1025 18.1061 12.2009 18.1336 12.2787 18.1941C12.6032 18.4504 14.0851 19.641 14.3787 19.8741C14.5166 19.9808 14.6906 20.0297 14.8639 20.0102C15.0371 19.9907 15.196 19.9045 15.3068 19.7699C15.4175 19.6352 15.4715 19.4627 15.4571 19.2889C15.4428 19.1151 15.3613 18.9538 15.2299 18.8391L13.6324 17.5641C13.5578 17.5004 13.511 17.4101 13.5018 17.3124C13.4926 17.2146 13.5218 17.1172 13.5833 17.0407C13.6447 16.9641 13.7335 16.9145 13.8309 16.9023C13.9283 16.8901 14.0266 16.9163 14.1049 16.9754C14.3706 17.1852 15.8145 18.3455 16.0437 18.5354C16.8022 19.0684 17.6175 18.1633 16.9287 17.5229L15.1887 16.1653Z" fill="#FCAF3B"/>
  <path d="M12.5 10.9934C13.5938 10.9927 14.6427 10.5579 15.4161 9.78446C16.1895 9.01102 16.6244 7.96218 16.625 6.86837C16.3979 1.39594 8.60118 1.39754 8.375 6.86839C8.37565 7.9622 8.81046 9.01103 9.58391 9.78447C10.3574 10.5579 11.4062 10.9927 12.5 10.9934ZM10.5987 6.49337H14.4013C14.5007 6.49337 14.5961 6.53287 14.6664 6.6032C14.7368 6.67353 14.7763 6.76891 14.7763 6.86837C14.7763 6.96782 14.7368 7.0632 14.6664 7.13353C14.5961 7.20386 14.5007 7.24337 14.4013 7.24337H10.5987C10.5002 7.2419 10.4063 7.20175 10.3371 7.13159C10.268 7.06142 10.2292 6.96687 10.2292 6.86837C10.2292 6.76986 10.268 6.67531 10.3371 6.60515C10.4063 6.53498 10.5002 6.49483 10.5987 6.49337Z" fill="#FCAF3B"/>
</svg>