<svg xmlns="http://www.w3.org/2000/svg" width="24" height="24" viewBox="0 0 24 24" fill="none">
  <g clip-path="url(#clip0_79_21682)">
    <path fill-rule="evenodd" clip-rule="evenodd" d="M5.7257 12.5634C5.41593 12.3265 5.13214 11.8548 5.00924 11.313C4.83037 10.5334 5.04021 9.90074 5.48088 9.90174C5.48788 9.90074 5.49387 9.90174 5.53484 9.90574C5.53185 9.90374 5.56182 9.90774 5.5908 9.91473C5.43792 8.89723 5.11716 7.97369 5.30102 7.01916C5.33 6.84625 5.37896 6.66433 5.44991 6.47843C5.80464 5.26103 7.54434 3.75977 10.1154 3.75977C12.6875 3.75977 14.4252 5.18606 14.7789 6.40346C14.8499 6.58937 14.8999 6.77128 14.9288 6.9442C15.1117 7.89873 14.7929 8.89723 14.642 9.91473C14.673 9.90774 14.707 9.90274 14.697 9.90574C14.743 9.90174 14.746 9.90074 14.751 9.90174C15.1926 9.90074 15.4015 10.5334 15.2236 11.313C15.0997 11.8548 14.8149 12.3265 14.5071 12.5634C13.427 15.0182 12.054 16.5035 10.1154 16.5035C8.17787 16.5035 6.80589 15.0182 5.7257 12.5634ZM13.7717 12.3076C13.8137 12.2116 13.8776 12.1286 13.9596 12.0647C14.1104 11.9477 14.3183 11.6359 14.4152 11.2051C14.4612 11.0162 14.4672 10.8683 14.4622 10.7563C14.4632 10.7433 14.4632 10.7293 14.4632 10.7163C14.4632 10.5224 14.3543 10.3505 14.1924 10.2606C13.8876 10.1626 13.6198 10.9132 13.4769 11.33C13.6248 10.6044 13.8257 9.67885 13.8456 9.05915C10.5681 8.90823 9.28105 7.99868 8.1349 6.83225C7.43343 6.90022 6.86585 7.36699 6.45915 8.04765V8.9682L6.46015 8.9632C6.46015 9.5809 6.67499 10.5654 6.83088 11.33C6.68698 10.9132 6.42018 10.1626 6.11541 10.2606C5.95353 10.3505 5.84461 10.5224 5.84461 10.7163C5.84461 10.7293 5.84461 10.7433 5.84561 10.7563C5.84062 10.8683 5.84661 11.0162 5.89158 11.2051C5.9895 11.6359 6.19735 11.9477 6.34824 12.0647C6.43018 12.1286 6.49413 12.2116 6.5361 12.3076C7.51636 14.5734 8.30677 15.7539 10.1544 15.7539C12 15.7539 12.7914 14.5734 13.7717 12.3076Z" fill="#FCAF3B"/>
    <path fill-rule="evenodd" clip-rule="evenodd" d="M9.55389 17.252C9.31707 17.4778 9.13221 17.7307 8.99231 18.0016C9.23513 18.6763 9.6808 19.0821 10.1165 19.5008C10.5761 19.0561 10.9878 18.5823 11.2406 18.0016C11.0977 17.7117 10.9209 17.4519 10.6781 17.252H9.55389Z" fill="#FCAF3B"/>
    <path fill-rule="evenodd" clip-rule="evenodd" d="M10.1165 18.752L8.99231 21.4296C9.24612 21.8624 9.65681 22.1973 10.1165 22.5001C10.5801 22.1853 10.9748 21.8384 11.2406 21.4296L10.1165 18.752Z" fill="#FCAF3B"/>
    <path fill-rule="evenodd" clip-rule="evenodd" d="M0.778403 20.001C2.08543 18.8995 4.45366 18.6376 6.74395 18.002C6.64602 18.6356 6.65202 19.2084 6.90983 19.7261C7.27056 20.4368 8.33076 22.5097 10.1164 23.3993C11.9021 22.5097 12.9633 20.4358 13.323 19.7261C13.5818 19.2084 13.5878 18.6346 13.4899 18.002C15.7802 18.6386 18.1474 18.8985 19.4555 20.001C20.2099 21.1054 20.2698 22.3648 20.2209 23.999H0.0119752C-0.035989 22.3648 0.0239663 21.1064 0.778403 20.001Z" fill="#FCAF3B"/>
    <path fill-rule="evenodd" clip-rule="evenodd" d="M23.9811 3.00977H16.4877V4.50803H23.9811V3.00977Z" fill="#FCAF3B"/>
  </g>
  <defs>
    <clipPath id="clip0_79_21682">
      <rect width="24" height="24" fill="white"/>
    </clipPath>
  </defs>
</svg>