<svg xmlns="http://www.w3.org/2000/svg" width="14" height="15" viewBox="0 0 14 15" fill="none">
  <path fill-rule="evenodd" clip-rule="evenodd" d="M6.29998 1.8999C6.17001 1.89997 6.04263 1.93622 5.93211 2.00459C5.82158 2.07296 5.73227 2.17075 5.67418 2.287L5.16738 3.2999H2.79998C2.61432 3.2999 2.43628 3.37365 2.305 3.50493C2.17373 3.6362 2.09998 3.81425 2.09998 3.9999C2.09998 4.18555 2.17373 4.3636 2.305 4.49488C2.43628 4.62615 2.61432 4.6999 2.79998 4.6999V11.6999C2.79998 12.0712 2.94748 12.4273 3.21003 12.6899C3.47258 12.9524 3.82867 13.0999 4.19998 13.0999H9.79997C10.1713 13.0999 10.5274 12.9524 10.7899 12.6899C11.0525 12.4273 11.2 12.0712 11.2 11.6999V4.6999C11.3856 4.6999 11.5637 4.62615 11.695 4.49488C11.8262 4.3636 11.9 4.18555 11.9 3.9999C11.9 3.81425 11.8262 3.6362 11.695 3.50493C11.5637 3.37365 11.3856 3.2999 11.2 3.2999H8.83257L8.32578 2.287C8.26768 2.17075 8.17837 2.07296 8.06784 2.00459C7.95732 1.93622 7.82994 1.89997 7.69998 1.8999H6.29998ZM4.89998 6.0999C4.89998 5.91425 4.97373 5.7362 5.105 5.60493C5.23628 5.47365 5.41432 5.3999 5.59998 5.3999C5.78563 5.3999 5.96367 5.47365 6.09495 5.60493C6.22623 5.7362 6.29998 5.91425 6.29998 6.0999V10.2999C6.29998 10.4856 6.22623 10.6636 6.09495 10.7949C5.96367 10.9262 5.78563 10.9999 5.59998 10.9999C5.41432 10.9999 5.23628 10.9262 5.105 10.7949C4.97373 10.6636 4.89998 10.4856 4.89998 10.2999V6.0999ZM8.39997 5.3999C8.21432 5.3999 8.03628 5.47365 7.905 5.60493C7.77373 5.7362 7.69998 5.91425 7.69998 6.0999V10.2999C7.69998 10.4856 7.77373 10.6636 7.905 10.7949C8.03628 10.9262 8.21432 10.9999 8.39997 10.9999C8.58563 10.9999 8.76367 10.9262 8.89495 10.7949C9.02623 10.6636 9.09997 10.4856 9.09997 10.2999V6.0999C9.09997 5.91425 9.02623 5.7362 8.89495 5.60493C8.76367 5.47365 8.58563 5.3999 8.39997 5.3999Z" fill="#FC3B3B"/>
</svg>