<svg xmlns="http://www.w3.org/2000/svg" width="10" height="10" viewBox="0 0 10 10" fill="none">
  <g clip-path="url(#clip0_79_18209)">
    <path d="M5.43542 8.54102H1.66667C1.32208 8.54102 1.04167 8.2606 1.04167 7.91602V3.12435H8.33333V5.35143C8.33333 5.46664 8.42646 5.55977 8.54167 5.55977C8.65687 5.55977 8.75 5.46664 8.75 5.35143V2.08268C8.75 1.50831 8.28271 1.04102 7.70833 1.04102H7.08333C7.08333 0.696432 6.80292 0.416016 6.45833 0.416016C6.11375 0.416016 5.83333 0.696432 5.83333 1.04102H3.54167C3.54167 0.696432 3.26125 0.416016 2.91667 0.416016C2.57208 0.416016 2.29167 0.696432 2.29167 1.04102H1.66667C1.09229 1.04102 0.625 1.50831 0.625 2.08268V7.91602C0.625 8.49039 1.09229 8.95768 1.66667 8.95768H5.43542C5.55062 8.95768 5.64375 8.86456 5.64375 8.74935C5.64375 8.63414 5.55062 8.54102 5.43542 8.54102ZM6.25 1.04102C6.25 0.926224 6.34333 0.832682 6.45833 0.832682C6.57333 0.832682 6.66667 0.926224 6.66667 1.04102V1.45768C6.66667 1.57247 6.57333 1.66602 6.45833 1.66602C6.34333 1.66602 6.25 1.57247 6.25 1.45768V1.04102ZM2.70833 1.04102C2.70833 0.926224 2.80167 0.832682 2.91667 0.832682C3.03167 0.832682 3.125 0.926224 3.125 1.04102V1.45768C3.125 1.57247 3.03167 1.66602 2.91667 1.66602C2.80167 1.66602 2.70833 1.57247 2.70833 1.45768V1.04102ZM1.04167 2.08268C1.04167 1.7381 1.32208 1.45768 1.66667 1.45768H2.29167C2.29167 1.80227 2.57208 2.08268 2.91667 2.08268C3.26125 2.08268 3.54167 1.80227 3.54167 1.45768H5.83333C5.83333 1.80227 6.11375 2.08268 6.45833 2.08268C6.80292 2.08268 7.08333 1.80227 7.08333 1.45768H7.70833C8.05292 1.45768 8.33333 1.7381 8.33333 2.08268V2.70768H1.04167V2.08268Z" fill="#6A6A6A"/>
    <path d="M3.12484 4.37565C3.12484 4.14586 2.93796 3.95898 2.70817 3.95898H2.08317C1.85338 3.95898 1.6665 4.14586 1.6665 4.37565V5.00065C1.6665 5.23044 1.85338 5.41732 2.08317 5.41732H2.70817C2.93796 5.41732 3.12484 5.23044 3.12484 5.00065V4.37565ZM2.08317 5.00065V4.37565H2.70817V5.00065H2.08317Z" fill="#6A6A6A"/>
    <path d="M5.41683 4.37565C5.41683 4.14586 5.22995 3.95898 5.00016 3.95898H4.37516C4.14537 3.95898 3.9585 4.14586 3.9585 4.37565V5.00065C3.9585 5.23044 4.14537 5.41732 4.37516 5.41732H5.00016C5.22995 5.41732 5.41683 5.23044 5.41683 5.00065V4.37565ZM4.37516 5.00065V4.37565H5.00016V5.00065H4.37516Z" fill="#6A6A6A"/>
    <path d="M6.66667 3.95898C6.43688 3.95898 6.25 4.14586 6.25 4.37565V5.00065C6.25 5.23044 6.43688 5.41732 6.66667 5.41732H7.29167C7.52146 5.41732 7.70833 5.23044 7.70833 5.00065V4.37565C7.70833 4.14586 7.52146 3.95898 7.29167 3.95898H6.66667ZM6.66667 5.00065V4.37565H7.29167V5.00065H6.66667Z" fill="#6A6A6A"/>
    <path d="M2.70817 6.25H2.08317C1.85338 6.25 1.6665 6.43688 1.6665 6.66667V7.29167C1.6665 7.52146 1.85338 7.70833 2.08317 7.70833H2.70817C2.93796 7.70833 3.12484 7.52146 3.12484 7.29167V6.66667C3.12484 6.43688 2.93796 6.25 2.70817 6.25ZM2.08317 7.29167V6.66667H2.70817L2.70859 7.29167H2.08317Z" fill="#6A6A6A"/>
    <path d="M5.00016 6.25H4.37516C4.14537 6.25 3.9585 6.43688 3.9585 6.66667V7.29167C3.9585 7.52146 4.14537 7.70833 4.37516 7.70833H5.00016C5.22995 7.70833 5.41683 7.52146 5.41683 7.29167V6.66667C5.41683 6.43688 5.22995 6.25 5.00016 6.25ZM4.37516 7.29167V6.66667H5.00016L5.00058 7.29167H4.37516Z" fill="#6A6A6A"/>
    <path d="M7.7085 5.83398C6.67454 5.83398 5.8335 6.67503 5.8335 7.70898C5.8335 8.74294 6.67454 9.58398 7.7085 9.58398C8.74245 9.58398 9.5835 8.74294 9.5835 7.70898C9.5835 6.67503 8.74245 5.83398 7.7085 5.83398ZM7.7085 9.16732C6.90454 9.16732 6.25016 8.51294 6.25016 7.70898C6.25016 6.90503 6.90454 6.25065 7.7085 6.25065C8.51245 6.25065 9.16683 6.90503 9.16683 7.70898C9.16683 8.51294 8.51245 9.16732 7.7085 9.16732Z" fill="#6A6A6A"/>
    <path d="M8.18609 7.14508L7.50005 7.83112L7.23068 7.56174C7.14922 7.48029 7.01755 7.48029 6.93609 7.56174C6.85464 7.6432 6.85464 7.77487 6.93609 7.85633L7.35276 8.273C7.39339 8.31362 7.44672 8.33404 7.50005 8.33404C7.55339 8.33404 7.60672 8.31362 7.64734 8.273L8.48068 7.43966C8.56214 7.3582 8.56214 7.22654 8.48068 7.14508C8.39922 7.06362 8.26755 7.06362 8.18609 7.14508Z" fill="#6A6A6A"/>
  </g>
  <defs>
    <clipPath id="clip0_79_18209">
      <rect width="10" height="10" fill="white"/>
    </clipPath>
  </defs>
</svg>