<svg xmlns="http://www.w3.org/2000/svg" width="10" height="11" viewBox="0 0 10 11" fill="none">
  <g clip-path="url(#clip0_213_7679)">
    <path d="M9.22961 6.78177C9.09204 6.78177 8.98056 6.89326 8.98056 7.03082V9.24213C8.98007 9.65462 8.64589 9.9889 8.2334 9.98929H1.24526C0.832767 9.9889 0.49859 9.65462 0.498104 9.24213V2.75209C0.49859 2.3397 0.832767 2.00543 1.24526 2.00494H3.45657C3.59413 2.00494 3.70562 1.89345 3.70562 1.75589C3.70562 1.61842 3.59413 1.50684 3.45657 1.50684H1.24526C0.557837 1.50761 0.000778287 2.06467 0 2.75209V9.24223C0.000778287 9.92965 0.557837 10.4867 1.24526 10.4875H8.2334C8.92082 10.4867 9.47788 9.92965 9.47866 9.24223V7.03082C9.47866 6.89326 9.36717 6.78177 9.22961 6.78177Z" fill="#6A6A6A"/>
    <path d="M9.37986 0.866353C8.94217 0.428664 8.23257 0.428664 7.79488 0.866353L3.35164 5.30959C3.32119 5.34004 3.2992 5.37779 3.28772 5.41923L2.70342 7.52868C2.67939 7.61517 2.70381 7.70779 2.76724 7.77131C2.83077 7.83474 2.92339 7.85916 3.00987 7.83523L5.11932 7.25083C5.16077 7.23936 5.19851 7.21737 5.22896 7.18692L9.67211 2.74358C10.1091 2.3056 10.1091 1.59658 9.67211 1.1586L9.37986 0.866353ZM3.8943 5.47148L7.53075 1.83493L8.70353 3.00771L5.06698 6.64426L3.8943 5.47148ZM3.66004 5.94156L4.597 6.87862L3.30095 7.2377L3.66004 5.94156ZM9.31993 2.39141L9.0558 2.65554L7.88292 1.48266L8.14715 1.21853C8.39027 0.97541 8.78447 0.97541 9.02759 1.21853L9.31993 1.51077C9.56266 1.75418 9.56266 2.14809 9.31993 2.39141Z" fill="#6A6A6A"/>
  </g>
  <defs>
    <clipPath id="clip0_213_7679">
      <rect width="10" height="10" fill="white" transform="translate(0 0.5)"/>
    </clipPath>
  </defs>
</svg>