<svg xmlns="http://www.w3.org/2000/svg" width="10" height="10" viewBox="0 0 10 10" fill="none">
  <g clip-path="url(#clip0_79_18183)">
    <path d="M4.92861 4.81704C5.59039 4.81704 6.16335 4.57969 6.63165 4.1114C7.09978 3.64318 7.33721 3.07029 7.33721 2.40844C7.33721 1.74682 7.09986 1.17386 6.63157 0.705489C6.16328 0.23735 5.59031 0 4.92861 0C4.26677 0 3.69388 0.23735 3.22566 0.705565C2.75745 1.17378 2.52002 1.74675 2.52002 2.40844C2.52002 3.07029 2.75745 3.64326 3.22566 4.11147C3.69403 4.57961 4.26699 4.81704 4.92861 4.81704ZM3.64009 1.11992C3.99936 0.760649 4.4208 0.586013 4.92861 0.586013C5.43635 0.586013 5.85787 0.760649 6.21722 1.11992C6.57648 1.47926 6.7512 1.90078 6.7512 2.40844C6.7512 2.91625 6.57648 3.3377 6.21722 3.69704C5.85787 4.05639 5.43635 4.23103 4.92861 4.23103C4.42096 4.23103 3.99951 4.05631 3.64009 3.69704C3.28075 3.33778 3.10603 2.91625 3.10603 2.40844C3.10603 1.90078 3.28075 1.47926 3.64009 1.11992Z" fill="#6A6A6A"/>
    <path d="M9.14313 7.68919C9.12962 7.49433 9.10231 7.28178 9.0621 7.05732C9.02151 6.83119 8.96925 6.61741 8.90669 6.42202C8.842 6.22007 8.75418 6.02064 8.64546 5.82953C8.53278 5.63116 8.40033 5.45843 8.25171 5.3163C8.0963 5.1676 7.90602 5.04805 7.68599 4.96085C7.46672 4.8741 7.22373 4.83015 6.96379 4.83015C6.86171 4.83015 6.76299 4.87204 6.57233 4.99617C6.45499 5.07269 6.31774 5.16119 6.16454 5.25908C6.03354 5.34254 5.85608 5.42074 5.63689 5.49155C5.42304 5.56074 5.20591 5.59584 4.99152 5.59584C4.77729 5.59584 4.56016 5.56074 4.34615 5.49155C4.12719 5.42082 3.94966 5.34262 3.81889 5.25915C3.66714 5.16219 3.52981 5.07368 3.41072 4.99609C3.22021 4.87196 3.12149 4.83008 3.0194 4.83008C2.7594 4.83008 2.51648 4.8741 2.29728 4.96092C2.07741 5.04797 1.88705 5.16753 1.73149 5.31637C1.58287 5.45859 1.45042 5.63124 1.33781 5.82953C1.22925 6.02064 1.14136 6.22 1.07666 6.4221C1.01418 6.61749 0.961914 6.83119 0.921325 7.05732C0.881042 7.28147 0.853805 7.49411 0.840301 7.68942C0.827026 7.88038 0.820312 8.07913 0.820312 8.27993C0.820312 8.80193 0.986252 9.22452 1.31348 9.53618C1.63666 9.84373 2.06421 9.99967 2.5843 9.99967H7.39936C7.9193 9.99967 8.34685 9.84373 8.67011 9.53618C8.99741 9.22475 9.16334 8.80201 9.16334 8.27985C9.16327 8.07836 9.15648 7.87962 9.14313 7.68919ZM8.26605 9.11161C8.05251 9.31486 7.769 9.41366 7.39928 9.41366H2.5843C2.21451 9.41366 1.931 9.31486 1.71753 9.11169C1.5081 8.91233 1.40633 8.64019 1.40633 8.27993C1.40633 8.09255 1.4125 7.90754 1.42486 7.72993C1.43692 7.55567 1.46156 7.36425 1.49811 7.16085C1.53419 6.95997 1.58012 6.77145 1.63475 6.60078C1.68716 6.43713 1.75865 6.27508 1.8473 6.11899C1.93191 5.97021 2.02926 5.84257 2.13669 5.73973C2.23716 5.64352 2.36381 5.56479 2.51304 5.50574C2.65106 5.45111 2.80616 5.4212 2.97454 5.4167C2.99507 5.42761 3.03161 5.44844 3.09082 5.48704C3.21128 5.56555 3.35014 5.65512 3.50364 5.75316C3.67668 5.86348 3.89961 5.96312 4.16595 6.0491C4.43824 6.13714 4.71595 6.18185 4.9916 6.18185C5.26725 6.18185 5.54503 6.13714 5.81717 6.04918C6.08375 5.96304 6.3066 5.86348 6.47986 5.753C6.63695 5.6526 6.77192 5.56563 6.89238 5.48704C6.95159 5.44852 6.98813 5.42761 7.00866 5.4167C7.17711 5.4212 7.33222 5.45111 7.47031 5.50574C7.61946 5.56479 7.74611 5.6436 7.84659 5.73973C7.95401 5.8425 8.05136 5.97014 8.13597 6.11906C8.2247 6.27508 8.29627 6.43721 8.3486 6.6007C8.40331 6.7716 8.44931 6.96005 8.48532 7.16078C8.52179 7.36456 8.54651 7.55606 8.55856 7.73001V7.73016C8.571 7.90708 8.57726 8.09202 8.57733 8.27993C8.57726 8.64027 8.47548 8.91233 8.26605 9.11161Z" fill="#6A6A6A"/>
  </g>
  <defs>
    <clipPath id="clip0_79_18183">
      <rect width="9.99998" height="10" fill="white"/>
    </clipPath>
  </defs>
</svg>