<svg xmlns="http://www.w3.org/2000/svg" width="10" height="11" viewBox="0 0 10 11" fill="none">
  <g clip-path="url(#clip0_79_18188)">
    <path d="M2.0946 2.84375C1.55161 2.84375 1.26962 3.12806 1.1338 3.3997C0.997977 3.67134 1 3.93835 1 3.93835V6.9061C1 6.9061 0.997977 7.1731 1.1338 7.44474C1.26962 7.71639 1.55334 8.00069 2.0946 8.00069H3.42795V7.68811H2.0946C1.69949 7.68811 1.51263 7.50229 1.41408 7.30518C1.31553 7.10807 1.31258 6.9061 1.31258 6.9061V3.93835C1.31258 3.93835 1.31553 3.73637 1.41408 3.53926C1.51263 3.34216 1.70174 3.15633 2.0946 3.15633H5.53179C5.92745 3.15633 6.11375 3.34216 6.21231 3.53926C6.31086 3.73637 6.31265 3.93835 6.31265 3.93835V4.25092H6.62523V3.93835C6.62523 3.93835 6.62726 3.67134 6.49144 3.3997C6.35561 3.12806 6.07429 2.84375 5.53179 2.84375H2.0946Z" fill="#6A6A6A"/>
    <path d="M3.81332 0.65625C2.87015 0.65625 2.09623 1.43195 2.09588 2.37485L2.09473 3H2.4073L2.40846 2.37485C2.40874 1.60289 3.04123 0.968827 3.81332 0.968827C4.58546 0.968827 5.21963 1.60258 5.21934 2.37485V3H5.53192V2.37485C5.53227 1.43144 4.75645 0.65625 3.81332 0.65625Z" fill="#6A6A6A"/>
    <path d="M3.81309 1.59375C3.35696 1.59375 3.03239 1.93815 3.03223 2.37577V3.00092H3.3448V2.37577C3.34491 2.08979 3.54737 1.90633 3.81309 1.90633C4.07649 1.90633 4.28264 2.09042 4.28253 2.37577L4.28138 3.00092H4.59396L4.59511 2.37577C4.59527 1.93835 4.26962 1.59375 3.81309 1.59375Z" fill="#6A6A6A"/>
    <path d="M5.53182 4.09375C5.49565 4.09371 5.46058 4.10623 5.43261 4.12915C5.40463 4.15208 5.38548 4.184 5.37841 4.21947L5.31843 4.51706C5.05736 4.58505 4.80904 4.6893 4.57794 4.82848L4.31957 4.65777C4.2895 4.63773 4.25341 4.62873 4.21745 4.6323C4.18148 4.63588 4.14787 4.65181 4.12234 4.67738L3.45912 5.3406C3.43383 5.36606 3.41808 5.39945 3.41451 5.43516C3.41094 5.47086 3.41977 5.50671 3.43951 5.53668L3.60906 5.79043C3.47084 6.0235 3.36844 6.27393 3.30225 6.53669L3.00121 6.59667C2.96574 6.60374 2.93382 6.6229 2.91089 6.65087C2.88797 6.67885 2.87545 6.71391 2.87549 6.75008V7.68665C2.87545 7.72282 2.88797 7.75788 2.91089 7.78586C2.93382 7.81383 2.96574 7.83299 3.00121 7.84006L3.29879 7.89888C3.36679 8.16044 3.47194 8.41019 3.61137 8.64169L3.43951 8.90005C3.41947 8.93013 3.41047 8.96621 3.41404 9.00218C3.41762 9.03814 3.43355 9.07175 3.45912 9.09729L4.12234 9.75935C4.14787 9.78492 4.18148 9.80085 4.21745 9.80443C4.25341 9.808 4.2895 9.799 4.31957 9.77896L4.57217 9.61056C4.80522 9.74874 5.05686 9.85121 5.31959 9.91737L5.37841 10.2173C5.38548 10.2527 5.40463 10.2847 5.43261 10.3076C5.46058 10.3305 5.49565 10.343 5.53182 10.343H6.46955C6.50571 10.343 6.54078 10.3305 6.56875 10.3076C6.59673 10.2847 6.61588 10.2527 6.62295 10.2173L6.68177 9.92083C6.9468 9.85555 7.19975 9.75367 7.43496 9.61517L7.68179 9.77896C7.71186 9.799 7.74795 9.808 7.78391 9.80443C7.81988 9.80085 7.85349 9.78492 7.87902 9.75935L8.54224 9.09729C8.56781 9.07175 8.58374 9.03814 8.58732 9.00218C8.59089 8.96622 8.58189 8.93013 8.56185 8.90005L8.39691 8.65207C8.53538 8.41668 8.63855 8.1641 8.70372 7.89889L9.00015 7.84006C9.03562 7.83299 9.06754 7.81384 9.09047 7.78586C9.11339 7.75789 9.12591 7.72282 9.12587 7.68666V6.75008C9.12591 6.71391 9.11339 6.67885 9.09047 6.65087C9.06754 6.6229 9.03562 6.60374 9.00015 6.59667L8.70949 6.539C8.64094 6.27503 8.5347 6.02372 8.39345 5.79043L8.56185 5.53668C8.58159 5.50671 8.59042 5.47087 8.58685 5.43516C8.58328 5.39945 8.56753 5.36606 8.54224 5.3406L7.87902 4.67738C7.85349 4.65181 7.81988 4.63588 7.78391 4.6323C7.74795 4.62873 7.71186 4.63773 7.68179 4.65777L7.4315 4.82502C7.1973 4.68652 6.94578 4.58287 6.68177 4.51706L6.62295 4.21947C6.61588 4.184 6.59673 4.15208 6.56875 4.12915C6.54078 4.10623 6.50571 4.09371 6.46955 4.09375H5.53182ZM5.65984 4.40633H6.34152L6.39227 4.65777C6.39827 4.68777 6.41295 4.71534 6.43447 4.73708C6.456 4.75881 6.48344 4.77375 6.51338 4.78004C6.81696 4.84275 7.1067 4.96218 7.36691 5.13067C7.39241 5.14706 7.42212 5.15567 7.45243 5.15547C7.48274 5.15526 7.51234 5.14625 7.53761 5.12952L7.74869 4.98881L8.23082 5.47094L8.08779 5.68432C8.07075 5.70995 8.06166 5.74005 8.06166 5.77082C8.06166 5.8016 8.07075 5.8317 8.08779 5.85733C8.25969 6.11645 8.38172 6.40467 8.44766 6.70856C8.45415 6.73828 8.46917 6.76547 8.49089 6.78678C8.51261 6.80809 8.54008 6.82259 8.56992 6.82851L8.8133 6.87811V7.55862L8.563 7.60938C8.53285 7.61546 8.50517 7.63031 8.48342 7.65206C8.46167 7.67381 8.44683 7.70149 8.44074 7.73164C8.3788 8.03666 8.25994 8.32706 8.09125 8.58863C8.07487 8.61413 8.06626 8.64385 8.06647 8.67416C8.06668 8.70447 8.0757 8.73406 8.09243 8.75934L8.23085 8.9658L7.74871 9.44793L7.54225 9.31067C7.51686 9.2937 7.48704 9.28454 7.4565 9.28433C7.42596 9.28412 7.39602 9.29287 7.37039 9.30949C7.10882 9.47817 6.81842 9.59588 6.5134 9.65782C6.4831 9.66399 6.4553 9.67901 6.43354 9.70097C6.41178 9.72294 6.39702 9.75088 6.39114 9.78124L6.34154 10.0304H5.65984L5.60909 9.77781C5.60309 9.74781 5.58841 9.72023 5.56689 9.6985C5.54536 9.67677 5.51792 9.66183 5.48798 9.65554C5.18536 9.59231 4.89721 9.47327 4.63791 9.3049C4.61229 9.28828 4.58235 9.27954 4.55181 9.27975C4.52126 9.27995 4.49145 9.28911 4.46605 9.30608L4.25267 9.44793L3.77054 8.9658L3.91587 8.7478C3.93308 8.72228 3.94237 8.69225 3.94258 8.66147C3.94278 8.63069 3.93389 8.60053 3.91702 8.57479C3.74699 8.31716 3.62618 8.03097 3.56062 7.72933C3.55413 7.6996 3.53911 7.67242 3.51739 7.65111C3.49567 7.6298 3.4682 7.6153 3.43836 7.60938L3.18807 7.55862V6.87811L3.44182 6.82735C3.47181 6.82135 3.49939 6.80668 3.52112 6.78515C3.54286 6.76362 3.55779 6.73618 3.56408 6.70625C3.62731 6.40362 3.74635 6.11547 3.91472 5.85618C3.93135 5.83055 3.9401 5.80062 3.93989 5.77007C3.93969 5.73953 3.93053 5.70972 3.91357 5.68432L3.77054 5.47093L4.25267 4.9888L4.47067 5.13414C4.4963 5.15117 4.5264 5.16026 4.55718 5.16026C4.58795 5.16026 4.61805 5.15117 4.64368 5.13414C4.90131 4.9641 5.18865 4.84329 5.49029 4.77773C5.52002 4.77124 5.5472 4.75621 5.56851 4.7345C5.58982 4.71278 5.60433 4.68531 5.61025 4.65547L5.65984 4.40633Z" fill="#6A6A6A"/>
    <path d="M5.99992 5.1875C4.87995 5.1875 3.96875 6.0987 3.96875 7.21867C3.96875 8.33865 4.87995 9.24985 5.99992 9.24985C7.1199 9.24985 8.0311 8.33865 8.0311 7.21867C8.0311 6.0987 7.1199 5.1875 5.99992 5.1875ZM5.99992 5.50008C6.95101 5.50008 7.71967 6.26758 7.71967 7.21867C7.71967 8.16976 6.95101 8.93727 5.99992 8.93727C5.04883 8.93727 4.28133 8.16976 4.28133 7.21867C4.28133 6.26758 5.04883 5.50008 5.99992 5.50008Z" fill="#6A6A6A"/>
    <path d="M6.0001 5.8125C5.57048 5.8125 5.21924 6.16374 5.21924 6.59337C5.21924 7.02299 5.57048 7.37538 6.0001 7.37538C6.42973 7.37538 6.78212 7.02299 6.78212 6.59337C6.78212 6.16374 6.42973 5.8125 6.0001 5.8125ZM6.0001 6.12508C6.26084 6.12508 6.46955 6.33263 6.46955 6.59337C6.46955 6.8541 6.26084 7.06281 6.0001 7.06281C5.73937 7.06281 5.53182 6.8541 5.53182 6.59337C5.53182 6.33263 5.73937 6.12508 6.0001 6.12508Z" fill="#6A6A6A"/>
    <path d="M6.00013 7.53125C5.32884 7.53125 4.775 8.06571 4.75098 8.73657L5.06355 8.74811C5.08168 8.24207 5.49377 7.84383 6.00013 7.84383C6.5068 7.84383 6.92015 8.24175 6.93786 8.74811L7.24928 8.73773C7.22581 8.06645 6.67182 7.53125 6.00013 7.53125Z" fill="#6A6A6A"/>
  </g>
  <defs>
    <clipPath id="clip0_79_18188">
      <rect width="10" height="10" fill="white" transform="translate(0 0.5)"/>
    </clipPath>
  </defs>
</svg>