<svg xmlns="http://www.w3.org/2000/svg" width="24" height="24" viewBox="0 0 24 24" fill="none">
  <path d="M12.75 1.5V5.25H16.5L12.75 1.5Z" fill="#FCAF3B"/>
  <path d="M16.5 18.75C16.9915 18.75 17.4744 18.6217 17.9012 18.3779L22.5 15.75C22.5 15.3358 22.1642 15 21.75 15H11.25C10.8358 15 10.5 15.3358 10.5 15.75L15.0988 18.3779C15.5256 18.6217 16.0085 18.75 16.5 18.75Z" fill="#FCAF3B"/>
  <path d="M16.5 19.5C16.0085 19.5 15.5256 19.3717 15.0988 19.1279L10.5 16.5V21C10.5 21.8284 11.1716 22.5 12 22.5H21C21.8284 22.5 22.5 21.8284 22.5 21V16.5L17.9012 19.1279C17.4744 19.3717 16.9915 19.5 16.5 19.5Z" fill="#FCAF3B"/>
  <path d="M9.75 21V15.75C9.75 14.9215 10.4216 14.25 11.25 14.25H16.5V6H12.75C12.3358 6 12 5.66418 12 5.25V1.5H2.25C1.83577 1.5 1.5 1.83577 1.5 2.25V21.75C1.5 22.1642 1.83577 22.5 2.25 22.5H10.3339C9.97476 22.1013 9.75 21.5789 9.75 21ZM4.125 7.5H13.875C14.0823 7.5 14.25 7.66772 14.25 7.875C14.25 8.08228 14.0823 8.25 13.875 8.25H4.125C3.91772 8.25 3.75 8.08228 3.75 7.875C3.75 7.66772 3.91772 7.5 4.125 7.5ZM4.125 9.75H13.875C14.0823 9.75 14.25 9.91772 14.25 10.125C14.25 10.3323 14.0823 10.5 13.875 10.5H4.125C3.91772 10.5 3.75 10.3323 3.75 10.125C3.75 9.91772 3.91772 9.75 4.125 9.75ZM4.125 12H13.875C14.0823 12 14.25 12.1677 14.25 12.375C14.25 12.5823 14.0823 12.75 13.875 12.75H4.125C3.91772 12.75 3.75 12.5823 3.75 12.375C3.75 12.1677 3.91772 12 4.125 12ZM7.875 19.5H4.125C3.91772 19.5 3.75 19.3323 3.75 19.125C3.75 18.9177 3.91772 18.75 4.125 18.75H7.875C8.08228 18.75 8.25 18.9177 8.25 19.125C8.25 19.3323 8.08228 19.5 7.875 19.5ZM7.875 17.25H4.125C3.91772 17.25 3.75 17.0823 3.75 16.875C3.75 16.6677 3.91772 16.5 4.125 16.5H7.875C8.08228 16.5 8.25 16.6677 8.25 16.875C8.25 17.0823 8.08228 17.25 7.875 17.25ZM7.875 15H4.125C3.91772 15 3.75 14.8323 3.75 14.625C3.75 14.4177 3.91772 14.25 4.125 14.25H7.875C8.08228 14.25 8.25 14.4177 8.25 14.625C8.25 14.8323 8.08228 15 7.875 15Z" fill="#FCAF3B"/>
</svg>