<svg xmlns="http://www.w3.org/2000/svg" width="42" height="42" viewBox="0 0 42 42" fill="none">
  <path d="M38.3508 26.5127L32.6808 20.7902C32.6544 20.7573 32.6201 20.7315 32.5811 20.7155C32.542 20.6994 32.4996 20.6935 32.4577 20.6983C32.4153 20.6999 32.3737 20.71 32.3354 20.7281C32.2971 20.7461 32.2627 20.7717 32.2345 20.8033L28.4545 24.8064C28.2101 25.0664 27.9153 25.2737 27.5881 25.4159C27.2609 25.5581 26.9082 25.6321 26.5514 25.6333C26.1946 25.6321 25.8419 25.5581 25.5147 25.4159C25.1875 25.2737 24.8927 25.0664 24.6483 24.8064L16.537 16.1571C16.4793 16.1054 16.4045 16.0769 16.327 16.0769C16.2495 16.0769 16.1748 16.1054 16.117 16.1571L3.49078 26.0008L1.86328 23.8877L14.437 14.0439C15.0141 13.5953 15.7383 13.3788 16.4669 13.4371C17.1956 13.4954 17.8761 13.8242 18.3745 14.3589L26.4727 23.0083L30.2264 19.0052C30.495 18.7156 30.8197 18.4837 31.1807 18.3235C31.5417 18.1633 31.9315 18.0782 32.3264 18.0733C32.7214 18.0631 33.1143 18.1347 33.4802 18.2838C33.8462 18.4329 34.1773 18.6562 34.4527 18.9396L40.1227 24.6621L38.3508 26.5127Z" fill="#6A6A6A"/>
  <path d="M35.5425 40.6875H6.4575C5.09296 40.6875 3.78431 40.1454 2.81944 39.1806C1.85456 38.2157 1.3125 36.907 1.3125 35.5425V6.4575C1.3125 5.09296 1.85456 3.78431 2.81944 2.81944C3.78431 1.85456 5.09296 1.3125 6.4575 1.3125H35.5425C36.907 1.3125 38.2157 1.85456 39.1806 2.81944C40.1454 3.78431 40.6875 5.09296 40.6875 6.4575V35.5425C40.6875 36.907 40.1454 38.2157 39.1806 39.1806C38.2157 40.1454 36.907 40.6875 35.5425 40.6875ZM6.4575 3.9375C5.78915 3.9375 5.14818 4.203 4.67559 4.67559C4.203 5.14818 3.9375 5.78915 3.9375 6.4575V35.5425C3.9375 35.8734 4.00268 36.2011 4.12932 36.5069C4.25597 36.8126 4.44159 37.0904 4.67559 37.3244C4.90959 37.5584 5.1874 37.744 5.49314 37.8707C5.79888 37.9973 6.12657 38.0625 6.4575 38.0625H35.5425C35.8734 38.0625 36.2011 37.9973 36.5069 37.8707C36.8126 37.744 37.0904 37.5584 37.3244 37.3244C37.5584 37.0904 37.744 36.8126 37.8707 36.5069C37.9973 36.2011 38.0625 35.8734 38.0625 35.5425V6.4575C38.0625 6.12657 37.9973 5.79888 37.8707 5.49314C37.744 5.1874 37.5584 4.90959 37.3244 4.67559C37.0904 4.44159 36.8126 4.25597 36.5069 4.12932C36.2011 4.00268 35.8734 3.9375 35.5425 3.9375H6.4575Z" fill="#6A6A6A"/>
  <path d="M26.6836 15.5273C28.1333 15.5273 29.3086 14.3521 29.3086 12.9023C29.3086 11.4526 28.1333 10.2773 26.6836 10.2773C25.2338 10.2773 24.0586 11.4526 24.0586 12.9023C24.0586 14.3521 25.2338 15.5273 26.6836 15.5273Z" fill="#6A6A6A"/>
  <path d="M2.625 25.5935L15.1331 15.5266L17.4431 15.251L25.0162 23.336C25.0162 23.336 26.3288 25.1341 27.4444 23.9004L31.2113 19.8972C31.2113 19.8972 31.9594 18.2566 33.5606 19.8972C35.1619 21.5379 39.375 26.906 39.375 26.906L39.2831 36.3954C39.2831 36.3954 38.8894 39.3747 35.0306 39.3747C31.1719 39.3747 6.15563 38.9679 6.15563 38.9679C6.15563 38.9679 2.625 39.8341 2.625 35.5422C2.625 31.2504 2.625 25.5935 2.625 25.5935Z" fill="#6A6A6A"/>
</svg>