<svg xmlns="http://www.w3.org/2000/svg" width="24" height="24" viewBox="0 0 24 24" fill="none">
  <g clip-path="url(#clip0_79_21623)">
    <path d="M1.25315 9.8C1.23475 9.796 1.21795 9.788 1.19995 9.7832V16.4C1.19995 16.6122 1.28424 16.8157 1.43427 16.9657C1.58429 17.1157 1.78778 17.2 1.99995 17.2H10.8152C10.8468 16.928 10.9688 16.6745 11.1616 16.48C11.3462 16.3037 11.5799 16.1875 11.8319 16.1467C12.0838 16.1059 12.3423 16.1423 12.5732 16.2512L16.2532 12.5732C16.1396 12.3426 16.1009 12.0822 16.1425 11.8285C16.184 11.5748 16.3036 11.3404 16.4848 11.158C16.6852 10.9701 16.9409 10.8519 17.2139 10.821C17.4869 10.7901 17.7626 10.8481 18 10.9864V9.7832C17.982 9.7876 17.9656 9.7956 17.9472 9.7996L12 11.12V12.4C12 12.7183 11.8735 13.0235 11.6485 13.2485C11.4234 13.4736 11.1182 13.6 10.8 13.6H8.39995C8.08169 13.6 7.77647 13.4736 7.55142 13.2485C7.32638 13.0235 7.19995 12.7183 7.19995 12.4V11.12L1.25315 9.8Z" fill="#FCAF3B"/>
    <path d="M10.8 12.7992C10.9061 12.7992 11.0078 12.7571 11.0828 12.6821C11.1579 12.607 11.2 12.5053 11.2 12.3992V11.1992H8V12.3992C8 12.5053 8.04214 12.607 8.11716 12.6821C8.19217 12.7571 8.29391 12.7992 8.4 12.7992H10.8Z" fill="#FCAF3B"/>
    <path d="M14 3.20078V1.60078C14 1.38861 13.9157 1.18512 13.7656 1.0351C13.6156 0.885067 13.4121 0.800781 13.2 0.800781H5.99995C5.78778 0.800781 5.5843 0.885067 5.43427 1.0351C5.28424 1.18512 5.19995 1.38861 5.19995 1.60078V3.20078H5.99995V2.40078C5.99995 2.18861 6.08424 1.98512 6.23427 1.8351C6.38429 1.68507 6.58778 1.60078 6.79995 1.60078H12.4C12.6121 1.60078 12.8156 1.68507 12.9656 1.8351C13.1157 1.98512 13.2 2.18861 13.2 2.40078V3.20078H14Z" fill="#FCAF3B"/>
    <path d="M19.72 18.5137L18.512 19.7217L21.7404 22.9509C21.9013 23.1076 22.1175 23.1946 22.3422 23.1931C22.5668 23.1916 22.7819 23.1017 22.9407 22.9428C23.0995 22.7839 23.1894 22.5689 23.1908 22.3442C23.1923 22.1196 23.1051 21.9034 22.9484 21.7425L19.72 18.5137Z" fill="#FCAF3B"/>
    <path d="M17.3552 11.5997C17.2983 11.5992 17.242 11.61 17.1894 11.6315C17.1368 11.653 17.089 11.6847 17.0488 11.7249C16.9669 11.8068 16.9209 11.9178 16.9209 12.0337C16.9209 12.1495 16.9669 12.2605 17.0488 12.3425L21.1868 16.4797C21.2699 16.5588 21.3803 16.603 21.4952 16.603C21.61 16.603 21.7204 16.5588 21.8036 16.4797C21.8854 16.3977 21.9314 16.2867 21.9314 16.1709C21.9314 16.055 21.8854 15.944 21.8036 15.8621L17.6656 11.7249C17.6248 11.6844 17.5763 11.6524 17.523 11.6309C17.4697 11.6094 17.4126 11.5988 17.3552 11.5997Z" fill="#FCAF3B"/>
    <path d="M16.4828 21.8039C16.5646 21.722 16.6106 21.6109 16.6106 21.4951C16.6106 21.3793 16.5646 21.2682 16.4828 21.1863L12.3444 17.0471C12.2637 16.9662 12.1542 16.9204 12.04 16.9199C11.9538 16.9207 11.8698 16.9468 11.7983 16.995C11.7269 17.0431 11.6711 17.1111 11.638 17.1907C11.6048 17.2702 11.5958 17.3577 11.6119 17.4423C11.628 17.5269 11.6687 17.605 11.7288 17.6667L15.8656 21.8039C15.9475 21.8856 16.0585 21.9314 16.1742 21.9314C16.2898 21.9314 16.4008 21.8856 16.4828 21.8039Z" fill="#FCAF3B"/>
    <path d="M18.552 14.9778L16.7656 13.1914L13.1927 16.7642L14.9792 18.551L16.7656 20.3378L20.3384 16.7642L18.552 14.9778Z" fill="#FCAF3B"/>
    <path d="M1.42686 9.0184L7.64366 10.4H11.5565L17.7737 9.0184C17.9517 8.97965 18.111 8.88098 18.225 8.73886C18.3391 8.59674 18.4008 8.4198 18.4001 8.2376V4.8C18.4001 4.58783 18.3158 4.38434 18.1657 4.23431C18.0157 4.08429 17.8122 4 17.6001 4H1.60006C1.38788 4 1.1844 4.08429 1.03437 4.23431C0.884341 4.38434 0.800056 4.58783 0.800056 4.8V8.2376C0.799297 8.41985 0.861135 8.59684 0.975228 8.73897C1.08932 8.88109 1.24875 8.97973 1.42686 9.0184Z" fill="#FCAF3B"/>
  </g>
  <defs>
    <clipPath id="clip0_79_21623">
      <rect width="24" height="24" fill="white"/>
    </clipPath>
  </defs>
</svg>