<svg xmlns="http://www.w3.org/2000/svg" width="110" height="37" viewBox="0 0 110 37" fill="none">
  <path d="M16.3537 17.0188C16.1525 18.0615 15.4574 21.2261 15.1464 22.2505H0.0366211V21.3176C2.8354 21.1347 3.10979 20.8969 3.10979 18.0615V4.68955C3.10979 1.85418 2.90857 1.68955 0.146377 1.48833V0.537109H8.87199V1.48833C6.23784 1.68955 5.94516 1.8176 5.94516 4.68955V17.8969C5.94516 19.6895 6.10979 20.3664 6.71345 20.7139C7.39028 21.0798 8.50613 21.153 9.91467 21.153C11.7622 21.153 12.8964 20.9883 13.6464 20.1103C14.25 19.4335 14.8537 18.3725 15.3476 16.8359L16.3537 17.0188Z" fill="#004780"/>
  <path d="M28.628 22.2495V21.3532L29.2683 21.28C30.2561 21.1337 30.4756 20.8959 30 19.6703L29.0853 17.1459H23.6158C23.3414 17.8227 23.0853 18.5727 22.8475 19.469C22.4634 20.8044 22.7744 21.0605 23.7439 21.2068L24.5488 21.2983V22.1946H18.4756V21.3349C20.0305 21.1703 20.6524 20.9507 21.6402 18.4995L26.561 6.53611L27.5853 6.26172L32.7622 19.0666C33.5305 21.0239 34.1158 21.2434 35.6707 21.3349V22.2312H28.628V22.2495ZM26.378 10.0483H26.3049L24.0914 15.8837H28.5366L26.378 10.0483Z" fill="#004780"/>
  <path d="M58.4086 7.67049C56.6159 7.9083 56.3781 8.18269 55.7012 9.88391C55.061 11.6217 53.4695 16.2315 51.4573 22.6339H50.4878L46.2439 11.6766H46.1707L42.0732 22.579H41.1586L37.1342 10.0485C36.5122 8.03635 36.0915 7.83513 34.5183 7.6522V6.75586H41.2866V7.6522L40.5549 7.79854C39.4939 8.03635 39.311 8.12781 39.6768 9.35342L42.4939 18.3168H42.5671L46.5183 7.19488H47.3964L51.6586 18.2254H51.7317C52.6098 15.6827 53.872 11.64 54.3659 9.48147C54.6586 8.27415 54.5122 8.05464 53.3232 7.83513L52.5 7.68879V6.79245H58.4086V7.67049Z" fill="#004780"/>
  <path d="M68.9268 0.536585C71.3049 0.536585 73.2439 0.920733 74.5792 1.89025C75.878 2.87805 76.7195 4.43293 76.7195 6.59146C76.7195 10.9268 73.4817 13.0305 70.2073 13.4512C69.6951 13.5244 69.0731 13.5244 68.7073 13.4695L66.2378 12.8476V18.1159C66.2378 20.9512 66.5305 21.1159 69.5305 21.3171V22.2683H60.4756V21.3171C63.1463 21.1159 63.439 20.8598 63.439 18.0793V4.68903C63.439 1.7622 63.1646 1.61585 60.6951 1.45122V0.5C60.7134 0.536585 68.9268 0.536585 68.9268 0.536585ZM66.2378 11.7866C66.6768 11.9512 67.5731 12.1707 68.689 12.1707C70.8658 12.1707 73.5366 11 73.5366 6.7378C73.5366 3.13414 71.2317 1.59756 68.4878 1.59756C67.5366 1.59756 66.8414 1.7622 66.6219 1.98171C66.3475 2.18293 66.2561 2.58537 66.2561 3.55488V11.7866H66.2378Z" fill="#004780"/>
  <path d="M85.7196 22.2495V21.3532L86.3598 21.28C87.3476 21.1337 87.5671 20.8959 87.0915 19.6703L86.1403 17.1459H80.6708C80.3964 17.8227 80.1403 18.5727 79.9025 19.469C79.5183 20.8044 79.8293 21.0605 80.7988 21.2068L81.6037 21.2983V22.1946H75.5488V21.3349C77.1037 21.1703 77.7257 20.9507 78.7318 18.4995L83.6525 6.53611L84.6403 6.26172L89.8171 19.0666C90.5854 21.0239 91.1708 21.2434 92.7257 21.3349V22.2312H85.7196V22.2495ZM83.4513 10.0483H83.3781L81.1647 15.8837H85.6281L83.4513 10.0483Z" fill="#004780"/>
  <path d="M107.671 7.67049C105.878 7.87171 105.494 8.20098 104.598 9.51806C103.793 10.6888 102.896 12.1888 101.671 14.512C101.305 15.2071 101.232 15.4815 101.232 15.9937V18.7559C101.232 20.9876 101.433 21.2071 103.902 21.39V22.2863H95.9085V21.3717C98.3049 21.1705 98.4695 20.9876 98.4695 18.7376V16.2863C98.4695 15.5912 98.3964 15.39 97.9573 14.64C97.2256 13.2863 96.3842 11.8778 94.9024 9.46318C94.0061 8.03635 93.6586 7.81683 92.1403 7.67049V6.77415H99V7.67049L97.9756 7.83513C97.2439 7.98147 97.1707 8.27415 97.5366 8.89611C98.3049 10.3229 99.7134 12.7742 100.537 14.1278C101.598 12.2803 102.75 10.1766 103.244 9.04244C103.628 8.1461 103.482 7.9083 102.476 7.74366L101.671 7.6522V6.75586H107.634V7.6522H107.671V7.67049Z" fill="#004780"/>
  <path d="M107.671 26.4199H0V27.4626H107.671V26.4199Z" fill="#004780"/>
  <path d="M4.884 36.3904V36.1892C5.34132 36.116 5.41449 36.0428 5.32302 35.7501C5.23156 35.4758 5.08522 35.0733 4.93888 34.6343H3.36571C3.25595 34.9636 3.16449 35.2562 3.03644 35.5855C2.8901 36.0428 2.94497 36.116 3.49375 36.1892V36.3904H1.84741V36.1892C2.32302 36.116 2.43278 36.0794 2.70717 35.4026L4.26205 31.4697L4.51814 31.3965C4.97546 32.6953 5.48766 34.1038 5.96327 35.3843C6.20107 36.0245 6.31083 36.0977 6.78644 36.1526V36.3538H4.884V36.3904ZM4.17058 32.4392C3.91449 33.0611 3.69497 33.6831 3.45717 34.305H4.79253L4.17058 32.4392Z" fill="#004780"/>
  <path d="M13.0792 31.7254C12.6585 31.7437 12.4755 31.8351 12.4572 32.1644C12.4389 32.4022 12.4024 32.7498 12.4024 33.4266V36.4449H12.1463L8.96333 32.5485H8.94504V34.3961C8.94504 35.0912 8.96333 35.4388 8.99992 35.6583C9.0548 36.0241 9.20114 36.1156 9.71333 36.1705V36.3717H7.93894V36.1705C8.37797 36.1522 8.5609 36.0242 8.57919 35.6949C8.59748 35.4571 8.63407 35.0912 8.63407 34.4327V32.7863C8.63407 32.2559 8.61577 32.201 8.46943 32.0181C8.3048 31.8351 8.17675 31.762 7.7926 31.7437V31.5059H8.94504L12.0365 35.1827H12.0548V33.4266C12.0548 32.7315 12.0365 32.3839 11.9999 32.1827C11.945 31.8534 11.7987 31.7437 11.2682 31.7254V31.5241H13.0426V31.7254H13.0792Z" fill="#004780"/>
  <path d="M19.6097 36.3904V36.1892C20.067 36.116 20.1402 36.0428 20.0487 35.7501C19.9572 35.4758 19.8109 35.0733 19.6646 34.6343H18.0914C17.9816 34.9636 17.8902 35.2562 17.7621 35.5855C17.6158 36.0428 17.6707 36.116 18.2194 36.1892V36.3904H16.5548V36.1892C17.0304 36.116 17.1402 36.0794 17.4146 35.4026L18.9694 31.4697L19.2255 31.3965C19.6829 32.6953 20.1951 34.1038 20.6707 35.3843C20.9085 36.0245 21.0182 36.0977 21.4938 36.1526V36.3538H19.6097V36.3904ZM18.8963 32.4392C18.6402 33.0611 18.4207 33.6831 18.1829 34.305H19.5182L18.8963 32.4392Z" fill="#004780"/>
  <path d="M25.8841 32.64C25.8109 32.3473 25.7743 32.201 25.6463 32.0363C25.4999 31.8351 25.3536 31.7802 24.8231 31.7802H24.2926C24.0548 31.7802 24.0365 31.7985 24.0365 32.0363V33.7924H24.7682C25.4451 33.7924 25.4816 33.7193 25.5731 33.2437H25.8109V34.6888H25.5731C25.4816 34.1766 25.4268 34.0851 24.7682 34.0851H24.0365V35.4205C24.0365 36.0973 24.1097 36.1156 24.7682 36.1522V36.3534H22.6829V36.1522C23.2682 36.0973 23.3231 36.0607 23.3231 35.4205V32.4754C23.3231 31.8351 23.2499 31.7802 22.6829 31.7437V31.5059H26.0304C26.0304 31.762 26.0853 32.2376 26.1036 32.6217L25.8841 32.64Z" fill="#004780"/>
  <path d="M30.6401 32.64C30.567 32.3473 30.5304 32.201 30.4023 32.0363C30.256 31.8351 30.1097 31.7802 29.5792 31.7802H29.0304C28.7926 31.7802 28.7743 31.7985 28.7743 32.0363V33.7924H29.506C30.1828 33.7924 30.2194 33.7193 30.3109 33.2437H30.5487V34.6888H30.3109C30.2194 34.1766 30.1645 34.0851 29.506 34.0851H28.7743V35.4205C28.7743 36.0973 28.8475 36.1156 29.506 36.1522V36.3534H27.4023V36.1522C27.9877 36.0973 28.0426 36.0607 28.0426 35.4205V32.4754C28.0426 31.8351 27.9694 31.7802 27.4023 31.7437V31.5059H30.7499C30.7499 31.762 30.8048 32.2376 30.8231 32.6217L30.6401 32.64Z" fill="#004780"/>
  <path d="M32.1584 36.3905V36.1893C32.7621 36.1344 32.8353 36.0978 32.8353 35.4576V32.4759C32.8353 31.8357 32.7621 31.7808 32.1584 31.7442V31.543H34.1889V31.7442C33.5853 31.7991 33.5121 31.8357 33.5121 32.4759V35.4576C33.5121 36.0978 33.5853 36.1527 34.1889 36.1893V36.3905H32.1584Z" fill="#004780"/>
  <path d="M40.6097 31.7254C40.189 31.7437 40.0061 31.8351 39.9878 32.1644C39.9695 32.4022 39.9329 32.7498 39.9329 33.4266V36.4449H39.6951L36.5122 32.5485H36.4939V34.3961C36.4939 35.0912 36.5122 35.4388 36.5487 35.6583C36.6036 36.0241 36.75 36.1156 37.2622 36.1705V36.3717H35.4878V36.1705C35.9268 36.1522 36.1097 36.0242 36.128 35.6949C36.1463 35.4571 36.1829 35.0912 36.1829 34.4327V32.7863C36.1829 32.2559 36.1646 32.201 36.0183 32.0181C35.8536 31.8351 35.7256 31.762 35.3414 31.7437V31.5059H36.4939L39.5853 35.1827H39.6036V33.4266C39.6036 32.7315 39.5853 32.3839 39.5487 32.1827C39.4939 31.8534 39.3475 31.7437 38.817 31.7254V31.5241H40.5914L40.6097 31.7254Z" fill="#004780"/>
  <path d="M41.8353 36.3905V36.1893C42.439 36.1344 42.5122 36.0978 42.5122 35.4576V32.4759C42.5122 31.8357 42.439 31.7808 41.8353 31.7442V31.543H43.8658V31.7442C43.2622 31.7991 43.189 31.8357 43.189 32.4759V35.4576C43.189 36.0978 43.2622 36.1527 43.8658 36.1893V36.3905H41.8353Z" fill="#004780"/>
  <path d="M47.1219 31.5059C47.6524 31.5059 48.0914 31.5973 48.3841 31.7985C48.6768 32.0363 48.8597 32.3839 48.8597 32.8595C48.8597 33.8473 48.128 34.3046 47.378 34.4144C47.2682 34.4327 47.1219 34.4327 47.0487 34.4144L46.4999 34.268V35.4205C46.4999 36.0424 46.5731 36.0973 47.2316 36.1339V36.3351H45.1829V36.1339C45.7865 36.079 45.8597 36.0241 45.8597 35.4022V32.4205C45.8597 31.7437 45.7865 31.7254 45.2377 31.6888V31.5059H47.1219ZM46.5365 34.0302C46.628 34.0851 46.8292 34.1217 47.0487 34.1217C47.4877 34.1217 48.0914 33.8656 48.0914 32.9144C48.0914 32.1095 47.5792 31.762 47.0121 31.762C46.8292 31.762 46.6646 31.8168 46.628 31.8534C46.5731 31.9083 46.5548 31.9998 46.5548 32.1827V34.0302H46.5365Z" fill="#004780"/>
  <path d="M52.4084 36.3904V36.1892C52.8657 36.116 52.9389 36.0428 52.8474 35.7501C52.756 35.4758 52.6096 35.0733 52.4633 34.6343H50.8901C50.7804 34.9636 50.6889 35.2562 50.5609 35.5855C50.4145 36.0428 50.4694 36.116 51.0182 36.1892V36.3904H49.3718V36.1892C49.8474 36.116 49.9572 36.0794 50.2316 35.4026L51.7865 31.4697L52.0426 31.3965C52.4999 32.6953 53.0121 34.1038 53.4877 35.3843C53.7255 36.0245 53.8352 36.0977 54.3109 36.1526V36.3538H52.3901V36.3904H52.4084ZM51.695 32.4392C51.4389 33.0611 51.2194 33.6831 50.9816 34.305H52.3169L51.695 32.4392Z" fill="#004780"/>
  <path d="M59.2864 31.7266C58.7742 31.7998 58.6828 31.873 58.3901 32.3303C58.0608 32.8608 57.8047 33.2815 57.4388 33.94C57.3474 34.123 57.3291 34.2144 57.3291 34.4156V35.44C57.3291 36.0803 57.4023 36.1352 58.0608 36.1717V36.373H55.884V36.1717C56.5608 36.1169 56.6157 36.0803 56.6157 35.44V34.4705C56.6157 34.3059 56.5974 34.2327 56.4693 34.0315C56.2132 33.5925 55.9388 33.0803 55.5181 32.3669C55.2254 31.8547 55.134 31.7632 54.6949 31.7266V31.5254H56.5608V31.7266C56.0303 31.7998 56.0486 31.8912 56.1949 32.1473C56.4876 32.7327 56.8718 33.3547 57.1828 33.9034C57.4388 33.4278 57.8596 32.6778 58.0608 32.2388C58.2254 31.873 58.2071 31.7998 57.6218 31.7632V31.5254H59.2864V31.7266Z" fill="#004780"/>
  <path d="M65.4511 32.6765C65.3048 32.2191 65.1036 31.6521 64.4633 31.6521C63.9145 31.6521 63.6584 32.0362 63.6584 32.4569C63.6584 32.9874 64.006 33.2435 64.6097 33.5362C65.2316 33.8655 65.9084 34.213 65.9084 35.0362C65.9084 35.8411 65.2316 36.463 64.2255 36.463C63.9328 36.463 63.6767 36.4082 63.4938 36.3533C63.3109 36.2801 63.2011 36.2435 63.1097 36.1886C63.0365 36.024 62.945 35.3838 62.9084 35.0179L63.1463 34.9447C63.256 35.4021 63.6036 36.1886 64.3902 36.1886C64.9389 36.1886 65.2682 35.8411 65.2682 35.3106C65.2682 34.7801 64.8841 34.5057 64.2987 34.1947C63.7682 33.9204 63.0548 33.5179 63.0548 32.713C63.0548 31.9813 63.6584 31.3594 64.628 31.3594C64.9938 31.3594 65.3414 31.4508 65.5975 31.5423C65.6158 31.8167 65.6706 32.1277 65.7438 32.585L65.4511 32.6765Z" fill="#004780"/>
  <path d="M72.2194 33.8843C72.2194 35.494 71.0852 36.5001 69.695 36.5001C68.3047 36.5001 67.2255 35.4392 67.2255 33.9758C67.2255 32.6404 68.1767 31.3965 69.7681 31.3965C71.0852 31.3965 72.2194 32.3843 72.2194 33.8843ZM68.0852 33.7928C68.0852 35.1831 68.8169 36.2075 69.8596 36.2075C70.6645 36.2075 71.3779 35.5123 71.3779 34.0855C71.3779 32.5123 70.5913 31.6709 69.6218 31.6709C68.8169 31.6709 68.0852 32.4209 68.0852 33.7928Z" fill="#004780"/>
  <path d="M77.1767 35.1832C77.1218 35.4393 76.9754 36.1527 76.9023 36.3905H73.4633V36.1893C74.0852 36.1344 74.1584 36.0978 74.1584 35.4576V32.4759C74.1584 31.8357 74.1035 31.7991 73.4816 31.7442V31.543H75.4937V31.7442C74.9084 31.7991 74.8169 31.8357 74.8169 32.4759V35.4393C74.8169 35.8235 74.8718 35.9698 74.9998 36.0613C75.1462 36.1527 75.384 36.1527 75.695 36.1527C76.0791 36.1527 76.3352 36.0978 76.5181 35.9149C76.6645 35.7686 76.7925 35.5308 76.9023 35.1832H77.1767Z" fill="#004780"/>
  <path d="M83.1036 31.7261C82.6645 31.781 82.4816 31.8724 82.4633 32.1651C82.445 32.3663 82.4084 32.6956 82.4084 33.3358V34.0127C82.4084 34.8724 82.2621 35.5127 81.8597 35.97C81.5121 36.3358 80.9999 36.5005 80.5243 36.5005C80.0853 36.5005 79.6462 36.3907 79.2987 36.1346C78.8597 35.7871 78.6584 35.2383 78.6584 34.3602V32.5127C78.6584 31.8176 78.5853 31.7993 78.0182 31.7444V31.5066H80.0121V31.7078C79.4267 31.7627 79.3718 31.7993 79.3718 32.4761V34.159C79.3718 35.3663 79.8292 36.0432 80.7255 36.0432C81.7682 36.0432 82.1157 35.1834 82.1157 33.9395V33.3358C82.1157 32.659 82.0975 32.3663 82.0609 32.1285C82.006 31.8541 81.8597 31.7444 81.3292 31.6895V31.4883H83.1218L83.1036 31.7261Z" fill="#004780"/>
  <path d="M88.2803 32.6955C88.1889 32.3296 88.1157 32.1467 88.0242 32.0003C87.8779 31.8357 87.7681 31.7625 87.2194 31.7625H86.7438V35.4394C86.7438 36.043 86.8169 36.1162 87.512 36.1528V36.354H85.2986V36.1528C85.9755 36.0979 86.0303 36.043 86.0303 35.4394V31.7625H85.5913C84.9694 31.7625 84.823 31.8357 84.7133 32.0003C84.6218 32.1467 84.5486 32.3479 84.4572 32.6955H84.2194C84.2377 32.2381 84.2925 31.7259 84.3108 31.3418H84.4755C84.5852 31.5064 84.6767 31.5247 84.8962 31.5247H87.8962C88.0974 31.5247 88.1706 31.4698 88.2803 31.3418H88.445C88.445 31.6894 88.4998 32.2381 88.5181 32.6772L88.2803 32.6955Z" fill="#004780"/>
  <path d="M89.7255 36.3905V36.1893C90.3291 36.1344 90.4023 36.0978 90.4023 35.4576V32.4759C90.4023 31.8357 90.3291 31.7808 89.7255 31.7442V31.543H91.7559V31.7442C91.1523 31.7991 91.0791 31.8357 91.0791 32.4759V35.4576C91.0791 36.0978 91.1523 36.1527 91.7559 36.1893V36.3905H89.7255Z" fill="#004780"/>
  <path d="M98.0121 33.8843C98.0121 35.494 96.8779 36.5001 95.4877 36.5001C94.0975 36.5001 93.0182 35.4392 93.0182 33.9758C93.0182 32.6404 93.9694 31.3965 95.5609 31.3965C96.8597 31.3965 98.0121 32.3843 98.0121 33.8843ZM93.8596 33.7928C93.8596 35.1831 94.5914 36.2075 95.634 36.2075C96.4389 36.2075 97.1523 35.5123 97.1523 34.0855C97.1523 32.5123 96.3657 31.6709 95.3962 31.6709C94.5914 31.6709 93.8596 32.4209 93.8596 33.7928Z" fill="#004780"/>
  <path d="M104.415 31.7254C103.994 31.7437 103.811 31.8351 103.793 32.1644C103.774 32.4022 103.738 32.7498 103.738 33.4266V36.4449H103.482L100.299 32.5485H100.28V34.3961C100.28 35.0912 100.299 35.4388 100.335 35.6583C100.39 36.0241 100.537 36.1156 101.049 36.1705V36.3717H99.2744V36.1705C99.7134 36.1522 99.8963 36.0242 99.9146 35.6949C99.9329 35.4571 99.9695 35.0912 99.9695 34.4327V32.7863C99.9695 32.2559 99.9512 32.201 99.8049 32.0181C99.6585 31.8351 99.5122 31.762 99.1281 31.7437V31.5059H100.28L103.372 35.1827H103.39V33.4266C103.39 32.7315 103.372 32.3839 103.335 32.1827C103.28 31.8534 103.134 31.7437 102.604 31.7254V31.5241H104.378V31.7254H104.415Z" fill="#004780"/>
  <path d="M109.756 2.58446C109.756 2.93202 109.646 3.22471 109.39 3.4808C109.134 3.7369 108.86 3.84666 108.512 3.84666C108.165 3.84666 107.872 3.7369 107.616 3.4808C107.36 3.22471 107.25 2.93202 107.25 2.58446C107.25 2.40154 107.305 2.21861 107.36 2.05397C107.433 1.88934 107.543 1.72471 107.707 1.61495C107.945 1.43202 108.183 1.32227 108.494 1.32227C108.677 1.32227 108.86 1.37714 109.024 1.43202C109.262 1.52349 109.409 1.68812 109.555 1.88934C109.701 2.12714 109.756 2.32836 109.756 2.58446ZM108.494 1.52349C108.22 1.52349 107.963 1.63324 107.762 1.85276C107.561 2.05397 107.47 2.31007 107.47 2.62105C107.47 2.93202 107.561 3.16983 107.762 3.38934C107.963 3.59056 108.22 3.71861 108.494 3.71861C108.768 3.71861 109.024 3.60885 109.226 3.38934C109.427 3.18812 109.518 2.93202 109.518 2.62105C109.518 2.45641 109.463 2.29178 109.409 2.14544C109.354 1.99909 109.226 1.87105 109.079 1.77958C108.933 1.57836 108.732 1.52349 108.494 1.52349ZM108.64 2.71251L109.098 3.31617H108.75L108.311 2.7308V3.31617H108.037V1.87105H108.329C108.53 1.87105 108.677 1.92593 108.768 1.9808C108.86 2.07227 108.933 2.16373 108.933 2.31007C108.933 2.40154 108.915 2.493 108.841 2.56617C108.805 2.63934 108.732 2.67593 108.64 2.71251ZM108.329 2.52958H108.384C108.585 2.52958 108.677 2.45641 108.677 2.32836C108.677 2.21861 108.585 2.14544 108.384 2.14544H108.329V2.52958Z" fill="#004780"/>
</svg>