<svg xmlns="http://www.w3.org/2000/svg" width="24" height="24" viewBox="0 0 24 24" fill="none">
  <path fill-rule="evenodd" clip-rule="evenodd" d="M9.47737 18.1928L11.7548 20.4703C12.0287 20.7441 12.0287 21.1908 11.7548 21.4646L10.8152 22.4042C10.5414 22.6781 10.0947 22.6781 9.82087 22.4042L7.00893 19.5923L9.17179 18.3436C9.27342 18.2926 9.37527 18.2423 9.47737 18.1928ZM23.1428 9.56279C23.4378 9.6587 23.5992 9.97562 23.5033 10.2706C23.4073 10.5656 23.0904 10.727 22.7954 10.6311L20.75 9.96648C20.455 9.87058 20.2936 9.55365 20.3895 9.25867C20.4854 8.96369 20.8023 8.80229 21.0973 8.89825L23.1428 9.56279ZM20.8263 6.55398C20.5572 6.70933 20.2132 6.61712 20.0579 6.34806C19.9026 6.07904 19.9948 5.73498 20.2638 5.57969L22.1114 4.51295C22.3804 4.35761 22.7244 4.44981 22.8797 4.71883C23.0351 4.98789 22.9429 5.3319 22.6739 5.48725L20.8263 6.55398ZM17.7175 1.83573C17.7819 1.53231 18.0801 1.33858 18.3836 1.40298C18.687 1.46739 18.8807 1.76561 18.8163 2.06908L18.3691 4.17283C18.3047 4.47625 18.0065 4.66998 17.703 4.60558C17.3996 4.54117 17.2059 4.24295 17.2703 3.93953L17.7175 1.83573ZM11.8379 2.48078C11.3006 2.791 11.1147 3.48456 11.425 4.02189L17.5911 14.7019C17.9013 15.2393 18.5948 15.425 19.1322 15.1148C19.6695 14.8046 19.8554 14.111 19.5451 13.5737L17.4474 9.94042L17.7216 9.78212C18.6772 9.23036 19.0077 7.99708 18.456 7.04139C17.9042 6.08575 16.6709 5.75528 15.7153 6.307L15.4411 6.46529L13.379 2.89365C13.0688 2.35642 12.3753 2.17056 11.8379 2.48078ZM1.36518 16.9088L1.85657 17.76C2.69202 19.207 4.55948 19.7074 6.00656 18.8719L8.15249 17.633L4.1317 10.6688L1.98576 11.9077C0.538728 12.7432 0.0383374 14.6106 0.873791 16.0577L1.36518 16.9088ZM5.08274 10.0757C7.41074 8.47684 9.20292 6.69831 10.5932 4.83123L16.4386 14.9559C14.1266 15.2263 11.6902 15.8892 9.14151 17.1058L5.08274 10.0757Z" fill="#FCAF3B"/>
</svg>