<svg xmlns="http://www.w3.org/2000/svg" width="24" height="24" viewBox="0 0 24 24" fill="none">
  <g clip-path="url(#clip0_79_21511)">
    <path fill-rule="evenodd" clip-rule="evenodd" d="M15.8673 14.3381C15.8673 12.2214 17.5827 10.506 19.6993 10.506C21.816 10.506 23.5314 12.2214 23.5314 14.3381C23.5314 15.0278 23.3494 15.6749 23.0305 16.2329C22.8445 15.4755 22.2492 14.9374 21.513 14.6265C21.723 14.2943 21.8452 13.9023 21.8452 13.4797C21.8452 12.2958 20.8832 11.3352 19.6993 11.3352C18.5154 11.3352 17.5534 12.2958 17.5534 13.4797C17.5534 13.9023 17.6743 14.2943 17.8856 14.6265C17.1494 14.9374 16.5542 15.4755 16.3681 16.2329C16.0492 15.6748 15.8672 15.0278 15.8672 14.3381H15.8673ZM6.50496 13.4L4.61815 15.2868C3.49671 16.4083 3.49671 18.2605 4.61815 19.382C5.73959 20.5035 7.59185 20.5035 8.71334 19.382L10.6002 17.4952L12.9401 19.8351L11.0532 21.7219C8.64026 24.1349 4.69123 24.1349 2.27824 21.7219C-0.13474 19.3089 -0.13474 15.3599 2.27824 12.9469L4.16506 11.0601L6.50496 13.4ZM14.4947 11.9504C14.3844 12.0607 14.2063 12.0607 14.0974 11.9504C13.9871 11.8401 13.9871 11.662 14.0974 11.553L15.2108 10.4382C15.3211 10.3279 15.4992 10.3279 15.6094 10.4382C15.7184 10.5485 15.7184 10.7265 15.6094 10.8355L14.4946 11.9504H14.4947ZM12.4471 9.90277C12.3368 10.0131 12.1587 10.0131 12.0498 9.90277C11.9395 9.79383 11.9395 9.61575 12.0498 9.50545L13.1632 8.39067C13.2735 8.28173 13.4516 8.28173 13.5619 8.39067C13.6708 8.50097 13.6708 8.679 13.5619 8.7893L12.4471 9.90277ZM9.55043 10.7518C9.44013 10.8621 9.2621 10.8621 9.15312 10.7518C9.04282 10.6429 9.04282 10.4648 9.15312 10.3545L10.2666 9.23967C10.3769 9.13073 10.5549 9.13073 10.6652 9.23967C10.7741 9.34997 10.7741 9.528 10.6652 9.6383L9.55038 10.7518L9.55043 10.7518ZM11.598 12.7994C11.4877 12.9097 11.3097 12.9097 11.2007 12.7994C11.0904 12.6905 11.0904 12.5124 11.2007 12.4021L12.3142 11.2873C12.4245 11.1783 12.6025 11.1783 12.7128 11.2873C12.8218 11.3976 12.8218 11.5756 12.7128 11.6859L11.598 12.7994L11.598 12.7994ZM13.6456 14.847C13.5353 14.9573 13.3573 14.9573 13.247 14.847C13.138 14.7367 13.138 14.5587 13.247 14.4497L14.3618 13.3349C14.4721 13.2246 14.6502 13.2246 14.7591 13.3349C14.8694 13.4452 14.8694 13.6232 14.7591 13.7322L13.6457 14.847H13.6456ZM10.9974 17.0965L12.568 15.526L14.9079 17.8659L13.3373 19.4365L10.9974 17.0966L10.9974 17.0965ZM8.47413 11.4308L6.90223 13.0027L4.56232 10.6628L6.13423 9.0922L8.47413 11.4308ZM19.6993 11.8972C20.5737 11.8972 21.2819 12.6054 21.2819 13.4797C21.2819 14.354 20.5737 15.0636 19.6993 15.0636C18.825 15.0636 18.1155 14.3553 18.1155 13.4797C18.1155 12.6041 18.825 11.8972 19.6993 11.8972ZM9.66204 1.85991C8.78773 1.85991 8.07818 2.56945 8.07818 3.44377C8.07818 4.31808 8.78773 5.02627 9.66204 5.02627C10.5364 5.02627 11.2446 4.31803 11.2446 3.44377C11.2446 2.5695 10.5364 1.85991 9.66204 1.85991ZM19.6993 1.85991C20.5737 1.85991 21.2819 2.56945 21.2819 3.44377C21.2819 4.31808 20.5737 5.02627 19.6993 5.02627C18.825 5.02627 18.1155 4.31803 18.1155 3.44377C18.1155 2.5695 18.825 1.85991 19.6993 1.85991ZM22.5282 16.9225C21.828 17.6892 20.8195 18.1702 19.6993 18.1702C18.5792 18.1702 17.5707 17.6892 16.8691 16.9225V16.7458C16.8691 15.9233 17.4657 15.3692 18.2696 15.0795C19.0828 15.8077 20.3145 15.8077 21.129 15.0795C21.9329 15.3692 22.5282 15.9233 22.5282 16.7458V16.9225H22.5282ZM22.5282 6.88519C21.828 7.65188 20.8195 8.13286 19.6993 8.13286C18.5792 8.13286 17.5707 7.65188 16.8691 6.88519V6.70847C16.8691 5.88731 17.4657 5.33189 18.2696 5.04356C19.0841 5.77172 20.3145 5.77172 21.129 5.04356C21.9329 5.33189 22.5282 5.88731 22.5282 6.70847V6.88519H22.5282ZM6.83313 6.88519C7.5334 7.65188 8.54192 8.13286 9.66204 8.13286C10.7822 8.13286 11.7907 7.65188 12.4909 6.88519V6.70847C12.4909 5.88731 11.8957 5.33189 11.0918 5.04356C10.2773 5.77172 9.04685 5.77172 8.23235 5.04356C7.42845 5.33189 6.83318 5.88731 6.83318 6.70847L6.83313 6.88519ZM9.66204 1.29783C10.8473 1.29783 11.808 2.25848 11.808 3.44377C11.808 3.86498 11.6857 4.25827 11.4758 4.58916C12.2119 4.90139 12.8072 5.43825 12.9932 6.19561C13.3121 5.63752 13.4942 4.99045 13.4942 4.30083C13.4942 2.18414 11.7788 0.46875 9.66209 0.46875C7.5454 0.46875 5.83001 2.18414 5.83001 4.30083C5.83001 4.99045 6.01203 5.63756 6.33096 6.19692C6.51701 5.4382 7.11228 4.90139 7.8484 4.58916C7.63845 4.25831 7.51624 3.86498 7.51624 3.44377C7.51624 2.25853 8.47695 1.29783 9.66214 1.29783H9.66204ZM19.6993 1.29783C20.8833 1.29783 21.8452 2.25848 21.8452 3.44377C21.8452 3.86498 21.723 4.25827 21.5131 4.58916C22.2492 4.90139 22.8445 5.43825 23.0305 6.19561C23.3494 5.63752 23.5315 4.99045 23.5315 4.30083C23.5315 2.18414 21.8161 0.46875 19.6994 0.46875C17.5827 0.46875 15.8673 2.18414 15.8673 4.30083C15.8673 4.99045 16.0494 5.63756 16.3683 6.19561C16.5543 5.43825 17.1495 4.90139 17.8857 4.58916C17.6744 4.25831 17.5535 3.86498 17.5535 3.44377C17.5535 2.25853 18.5142 1.29783 19.6994 1.29783H19.6993Z" fill="#FCAF3B"/>
  </g>
  <defs>
    <clipPath id="clip0_79_21511">
      <rect width="24" height="24" fill="white"/>
    </clipPath>
  </defs>
</svg>