<svg xmlns="http://www.w3.org/2000/svg" width="10" height="11" viewBox="0 0 10 11" fill="none">
  <g clip-path="url(#clip0_213_7689)">
    <path d="M5.00003 0.5C2.243 0.5 0 2.74297 0 5.49997C0 8.25697 2.243 10.4999 5.00003 10.4999C7.75703 10.4999 10 8.25697 10 5.49997C10 2.74297 7.75703 0.5 5.00003 0.5ZM5.00003 9.68027C2.69497 9.68027 0.819667 7.80503 0.819667 5.49997C0.819667 3.19493 2.69497 1.31967 5.00003 1.31967C7.30507 1.31967 9.18033 3.19493 9.18033 5.49997C9.18033 7.80503 7.30507 9.68027 5.00003 9.68027Z" fill="#6A6A6A"/>
    <path d="M7.16333 3.58096L4.19462 6.54969L2.83732 5.19239C2.67726 5.03236 2.41778 5.03236 2.25772 5.19239C2.09769 5.35245 2.09769 5.61193 2.25772 5.77199L3.90482 7.4191C3.98486 7.49909 4.08974 7.53913 4.19462 7.53913C4.29951 7.53913 4.40439 7.49909 4.48443 7.4191L7.74293 4.16059C7.90296 4.00053 7.90296 3.74105 7.74293 3.58099C7.58286 3.42093 7.32336 3.42093 7.16333 3.58096Z" fill="#6A6A6A"/>
  </g>
  <defs>
    <clipPath id="clip0_213_7689">
      <rect width="10" height="10" fill="white" transform="translate(0 0.5)"/>
    </clipPath>
  </defs>
</svg>