<svg xmlns="http://www.w3.org/2000/svg" width="24" height="24" viewBox="0 0 24 24" fill="none">
  <g clip-path="url(#clip0_193_2933)">
    <path d="M5.62995 16.3809L0.205945 21.8049C-0.0686484 22.0795 -0.0686484 22.5246 0.205945 22.7992L1.2003 23.7936C1.33216 23.9255 1.51099 23.9995 1.69751 23.9995C1.88398 23.9995 2.0628 23.9255 2.19471 23.7936L7.61871 18.3696C6.8412 17.8332 6.16638 17.1584 5.62995 16.3809Z" fill="#FCAF3B"/>
    <path d="M22.4881 19.2757C21.822 19.881 20.9377 20.2504 19.9688 20.2504C19.1518 20.2504 18.3746 19.9913 17.7212 19.501C17.627 19.4304 17.5367 19.3547 17.4497 19.2754C16.556 20.0066 15.9844 21.1176 15.9844 22.3598V23.2973C15.9844 23.6856 16.2992 24.0004 16.6875 24.0004H23.25C23.6383 24.0004 23.9531 23.6856 23.9531 23.2973V22.3598C23.9531 21.1178 23.3817 20.007 22.4881 19.2757Z" fill="#FCAF3B"/>
    <path d="M19.9687 18.8438C21.2611 18.8438 22.3125 17.7923 22.3125 16.5C22.3125 15.2077 21.2611 14.1562 19.9687 14.1562C19.7754 14.1562 19.5876 14.1803 19.4077 14.2246C19.0723 15.3394 18.492 16.3493 17.7289 17.1907C18.0244 18.147 18.9167 18.8438 19.9687 18.8438Z" fill="#FCAF3B"/>
    <path d="M22.535 5.11914C21.8688 5.72448 20.9846 6.09386 20.0156 6.09386C19.047 6.09386 18.163 5.72467 17.4969 5.1197C17.2177 5.34836 16.9698 5.61381 16.7611 5.90898C18.0222 6.89687 18.9698 8.26731 19.4282 9.84386H23.2969C23.6852 9.84386 24 9.52905 24 9.14073V8.20323C24 6.96123 23.4286 5.85044 22.535 5.11914Z" fill="#FCAF3B"/>
    <path d="M1.46498 5.11914C0.571453 5.85039 0 6.96123 0 8.20323V9.14073C0 9.52905 0.314812 9.84386 0.703125 9.84386H4.57186C5.03025 8.26727 5.97778 6.89687 7.23891 5.90898C7.03022 5.61381 6.7823 5.34836 6.50316 5.1197C5.83702 5.72467 4.953 6.09386 3.98438 6.09386C3.01547 6.09386 2.13122 5.72448 1.46498 5.11914Z" fill="#FCAF3B"/>
    <path d="M3.98438 4.6875C2.69203 4.6875 1.64062 3.63609 1.64062 2.34375C1.64062 1.05141 2.69208 0 3.98438 0C5.27667 0 6.32812 1.05141 6.32812 2.34375C6.32812 3.63609 5.27672 4.6875 3.98438 4.6875Z" fill="#FCAF3B"/>
    <path d="M20.0156 4.6875C18.7233 4.6875 17.6719 3.63609 17.6719 2.34375C17.6719 1.05141 18.7233 0 20.0156 0C21.308 0 22.3594 1.05141 22.3594 2.34375C22.3594 3.63609 21.308 4.6875 20.0156 4.6875Z" fill="#FCAF3B"/>
    <path d="M9.42798 17.7813C10.2143 18.1325 11.0847 18.3281 12 18.3281C12.9153 18.3281 13.7858 18.1325 14.572 17.7813V16.5806C14.5153 15.1938 13.3878 14.1094 12 14.1094C10.6122 14.1094 9.4847 15.1938 9.42798 16.5805V17.7813Z" fill="#FCAF3B"/>
    <path d="M12 12.7031C12.7767 12.7031 13.4062 12.0735 13.4062 11.2969C13.4062 10.5202 12.7767 9.89062 12 9.89062C11.2233 9.89062 10.5938 10.5202 10.5938 11.2969C10.5938 12.0735 11.2233 12.7031 12 12.7031Z" fill="#FCAF3B"/>
    <path d="M12 5.67188C8.51067 5.67188 5.67188 8.51067 5.67188 12C5.67188 13.9833 6.58927 15.7561 8.02172 16.9173V16.567C8.02172 16.5585 8.02186 16.5499 8.02219 16.5414C8.05983 15.508 8.48986 14.5426 9.23302 13.8231C9.46186 13.6014 9.7132 13.4108 9.98142 13.2524C9.49055 12.7458 9.1875 12.0563 9.1875 11.2969C9.1875 9.74606 10.4492 8.48438 12 8.48438C13.5508 8.48438 14.8125 9.74606 14.8125 11.2969C14.8125 12.0563 14.5095 12.7458 14.0186 13.2524C14.2868 13.4108 14.5381 13.6015 14.767 13.8231C15.5101 14.5427 15.9401 15.5081 15.9778 16.5414C15.978 16.55 15.9782 16.5585 15.9782 16.567V16.9173C17.4107 15.7561 18.3281 13.9833 18.3281 12C18.3281 8.51067 15.4893 5.67188 12 5.67188Z" fill="#FCAF3B"/>
  </g>
  <defs>
    <clipPath id="clip0_193_2933">
      <rect width="24" height="24" fill="white"/>
    </clipPath>
  </defs>
</svg>