<svg xmlns="http://www.w3.org/2000/svg" width="24" height="24" viewBox="0 0 24 24" fill="none">
  <path fill-rule="evenodd" clip-rule="evenodd" d="M17 6C17 8.76142 14.7614 11 12 11C9.23858 11 7 8.76142 7 6C7 3.23858 9.23858 1 12 1C14.7614 1 17 3.23858 17 6ZM10 13C6.13401 13 3 16.134 3 20C3 21.6569 4.34315 23 6 23H13.4093C13.8415 23 14.087 22.4721 13.8632 22.1023C13.3153 21.1971 13 20.1354 13 19C13 16.9659 14.0122 15.1682 15.5604 14.0831C15.9238 13.8285 15.8928 13.2442 15.4587 13.1522C14.9882 13.0525 14.5002 13 14 13H10ZM19 15C19.5523 15 20 15.4477 20 16V18H22C22.5523 18 23 18.4477 23 19C23 19.5523 22.5523 20 22 20H20V22C20 22.5522 19.5523 23 19 23C18.4477 23 18 22.5522 18 22V20H16C15.4477 20 15 19.5523 15 19C15 18.4477 15.4477 18 16 18H18V16C18 15.4477 18.4477 15 19 15Z" fill="#FCAF3B"/>
</svg>