<svg xmlns="http://www.w3.org/2000/svg" width="15" height="19" viewBox="0 0 15 19" fill="none">
  <path d="M6.13636 2.00053V17.0005C6.13636 17.543 5.92086 18.0633 5.53726 18.4469C5.15367 18.8305 4.6334 19.046 4.09091 19.046H2.04545C1.50297 19.046 0.982697 18.8305 0.5991 18.4469C0.215503 18.0633 0 17.543 0 17.0005V2.00053C0 1.45804 0.215503 0.937775 0.5991 0.554178C0.982697 0.170581 1.50297 -0.0449219 2.04545 -0.0449219H4.09091C4.6334 -0.0449219 5.15367 0.170581 5.53726 0.554178C5.92086 0.937775 6.13636 1.45804 6.13636 2.00053ZM12.9545 -0.0449219H10.9091C10.3666 -0.0449219 9.84633 0.170581 9.46274 0.554178C9.07914 0.937775 8.86364 1.45804 8.86364 2.00053V17.0005C8.86364 17.543 9.07914 18.0633 9.46274 18.4469C9.84633 18.8305 10.3666 19.046 10.9091 19.046H12.9545C13.497 19.046 14.0173 18.8305 14.4009 18.4469C14.7845 18.0633 15 17.543 15 17.0005V2.00053C15 1.45804 14.7845 0.937775 14.4009 0.554178C14.0173 0.170581 13.497 -0.0449219 12.9545 -0.0449219Z" fill="#FCAF3B"/>
</svg>