<svg xmlns="http://www.w3.org/2000/svg" width="24" height="24" viewBox="0 0 24 24" fill="none">
  <path d="M16.2188 5.62512H20.7286L15.5156 0.412109V4.922C15.5156 5.30994 15.8308 5.62512 16.2188 5.62512Z" fill="#126C9B"/>
  <path d="M4.96875 24H19.0312C20.1944 24 21.1406 23.0538 21.1406 21.8906V7.03125H16.2188C15.0556 7.03125 14.1094 6.08503 14.1094 4.92188V0H4.96875C3.80559 0 2.85938 0.946219 2.85938 2.10938V21.8906C2.85938 23.0538 3.80559 24 4.96875 24ZM9.1875 11.2969H16.2188C16.6074 11.2969 16.9219 11.6114 16.9219 12C16.9219 12.3886 16.6074 12.7031 16.2188 12.7031H9.1875C8.79886 12.7031 8.48438 12.3886 8.48438 12C8.48438 11.6114 8.79886 11.2969 9.1875 11.2969ZM9.1875 14.1094H16.2188C16.6074 14.1094 16.9219 14.4239 16.9219 14.8125C16.9219 15.2011 16.6074 15.5156 16.2188 15.5156H9.1875C8.79886 15.5156 8.48438 15.2011 8.48438 14.8125C8.48438 14.4239 8.79886 14.1094 9.1875 14.1094ZM9.1875 16.9219H16.2188C16.6074 16.9219 16.9219 17.2364 16.9219 17.625C16.9219 18.0136 16.6074 18.3281 16.2188 18.3281H9.1875C8.79886 18.3281 8.48438 18.0136 8.48438 17.625C8.48438 17.2364 8.79886 16.9219 9.1875 16.9219ZM6.375 11.2969C6.76331 11.2969 7.07812 11.6117 7.07812 12C7.07812 12.3883 6.76331 12.7031 6.375 12.7031C5.98669 12.7031 5.67188 12.3883 5.67188 12C5.67188 11.6117 5.98669 11.2969 6.375 11.2969ZM6.375 14.1094C6.76331 14.1094 7.07812 14.4242 7.07812 14.8125C7.07812 15.2008 6.76331 15.5156 6.375 15.5156C5.98669 15.5156 5.67188 15.2008 5.67188 14.8125C5.67188 14.4242 5.98669 14.1094 6.375 14.1094ZM6.375 16.9219C6.76331 16.9219 7.07812 17.2367 7.07812 17.625C7.07812 18.0133 6.76331 18.3281 6.375 18.3281C5.98669 18.3281 5.67188 18.0133 5.67188 17.625C5.67188 17.2367 5.98669 16.9219 6.375 16.9219Z" fill="#126C9B"/>
</svg>