<svg xmlns="http://www.w3.org/2000/svg" width="14" height="14" viewBox="0 0 14 14" fill="none">
  <g clip-path="url(#clip0_79_30280)">
    <path d="M10.1274 11.7085C10.2707 11.397 10.5259 11.1687 10.8344 11.0611V9.89844C10.8344 9.21996 11.3863 8.66797 12.0648 8.66797H12.7695C12.9133 8.66797 13.0513 8.69299 13.1797 8.73851V1.23047C13.1797 0.551988 12.6277 0 11.9492 0H3.74609C3.06761 0 2.51562 0.551988 2.51562 1.23047V1.83203H9.57031C10.475 1.83203 11.2109 2.56802 11.2109 3.47266V7.30078C11.2109 8.20542 10.475 8.94141 9.57031 8.94141H2.51562V12.7695C2.51562 13.448 3.06761 14 3.74609 14H11.1481L10.3111 13.0234C9.99458 12.6542 9.9242 12.1503 10.1274 11.7085Z" fill="white"/>
    <path d="M13.5887 11.8125H13.1793V9.89844C13.1793 9.67192 12.9957 9.48828 12.7692 9.48828H12.0645C11.8379 9.48828 11.6543 9.67192 11.6543 9.89844V11.8125H11.2449C10.8945 11.8125 10.7055 12.2235 10.9335 12.4896L12.1054 13.8568C12.2691 14.0477 12.5645 14.0477 12.7282 13.8568L13.9001 12.4896C14.1281 12.2235 13.9391 11.8125 13.5887 11.8125Z" fill="white"/>
    <path d="M5.2505 4.29297H4.75C4.75057 4.62714 4.75148 5.17349 4.75148 5.38368C4.75148 5.63423 4.75306 6.15691 4.7541 6.47913C4.93173 6.47812 5.15122 6.47653 5.26838 6.47448C5.82691 6.46472 6.08129 5.90376 6.08129 5.38672C6.08129 4.85797 5.86305 4.29297 5.2505 4.29297Z" fill="white"/>
    <path d="M2.59452 4.29297H2.10742C2.10794 4.47398 2.10852 4.69489 2.10852 4.79117C2.10852 4.9047 2.1095 5.11752 2.11038 5.29123C2.27895 5.29033 2.48343 5.2894 2.59452 5.2894C2.87277 5.2894 3.10785 5.06125 3.10785 4.7912C3.10785 4.52115 2.87277 4.29297 2.59452 4.29297Z" fill="white"/>
    <path d="M10.3906 7.30078V3.47266C10.3906 3.0196 10.0234 2.65234 9.57031 2.65234H0.820312C0.367254 2.65234 0 3.0196 0 3.47266V7.30078C0 7.75384 0.367254 8.12109 0.820312 8.12109H9.57031C10.0234 8.12109 10.3906 7.75384 10.3906 7.30078ZM2.59539 5.83625C2.4838 5.83625 2.27656 5.83721 2.10746 5.83811V6.75391C2.10746 6.90493 1.98505 7.02734 1.83403 7.02734C1.68301 7.02734 1.56059 6.90493 1.56059 6.75391V4.02041C1.56037 3.94773 1.58908 3.87797 1.64035 3.82651C1.69165 3.77505 1.76135 3.74612 1.83403 3.74612H2.59539C3.17997 3.74612 3.65559 4.21496 3.65559 4.7912C3.65559 5.36744 3.18 5.83625 2.59539 5.83625ZM6.27963 6.51178C6.03323 6.83334 5.67746 7.01427 5.27778 7.02127C5.05761 7.02513 4.50587 7.02726 4.48249 7.02734C4.48213 7.02734 4.4818 7.02734 4.48145 7.02734C4.40929 7.02734 4.34005 6.99882 4.28881 6.94796C4.23735 6.89686 4.20829 6.82741 4.20801 6.75489C4.20798 6.74496 4.20446 5.75961 4.20446 5.38368C4.20446 5.07191 4.20249 4.02005 4.20249 4.02002C4.20235 3.94743 4.23109 3.87773 4.28239 3.82635C4.33368 3.77497 4.4033 3.74609 4.4759 3.74609H5.25033C6.07436 3.74609 6.62799 4.40541 6.62799 5.38672C6.62799 5.81902 6.50429 6.21857 6.27963 6.51178ZM8.55657 4.29297H7.72174V5.08739H8.46852C8.61954 5.08739 8.74196 5.2098 8.74196 5.36082C8.74196 5.51184 8.61954 5.63426 8.46852 5.63426H7.72174V6.75391C7.72174 6.90493 7.59932 7.02734 7.4483 7.02734C7.29728 7.02734 7.17486 6.90493 7.17486 6.75391V4.01953C7.17486 3.94702 7.20368 3.87745 7.25495 3.82618C7.30622 3.77491 7.37578 3.74609 7.4483 3.74609H8.55657C8.70759 3.74609 8.83001 3.86851 8.83001 4.01953C8.83001 4.17055 8.70759 4.29297 8.55657 4.29297Z" fill="white"/>
  </g>
  <defs>
    <clipPath id="clip0_79_30280">
      <rect width="14" height="14" fill="white"/>
    </clipPath>
  </defs>
</svg>