<svg xmlns="http://www.w3.org/2000/svg" width="14" height="15" viewBox="0 0 14 15" fill="none">
  <path d="M9.51018 3.01041C9.63932 2.8767 9.7938 2.77004 9.96461 2.69667C10.1354 2.6233 10.3191 2.58468 10.505 2.58306C10.6909 2.58145 10.8753 2.61687 11.0473 2.68726C11.2194 2.75765 11.3757 2.86161 11.5071 2.99306C11.6386 3.12451 11.7425 3.28082 11.8129 3.45288C11.8833 3.62493 11.9187 3.80928 11.9171 3.99517C11.9155 4.18106 11.8769 4.36477 11.8035 4.53558C11.7301 4.70638 11.6235 4.86087 11.4898 4.99001L10.9347 5.54511L8.95508 3.56551L9.51018 3.01041ZM7.96528 4.55531L2.09998 10.4206V12.4002H4.07958L9.94558 6.53491L7.96458 4.55531H7.96528Z" fill="#126C9B"/>
</svg>