<svg xmlns="http://www.w3.org/2000/svg" width="19" height="19" viewBox="0 0 19 19" fill="none">
  <g clip-path="url(#clip0_193_3085)">
    <path fill-rule="evenodd" clip-rule="evenodd" d="M17.3969 8.72126L2.50267 0.121904C2.36645 0.0426105 2.21175 0.000567476 2.05413 0H2.05153C1.89383 0.000626352 1.73906 0.042691 1.60273 0.121979C1.46544 0.200274 1.35146 0.313691 1.27249 0.45059C1.19351 0.587488 1.15239 0.742936 1.15334 0.900979V18.0995C1.15271 18.2577 1.19388 18.4132 1.27268 18.5503C1.35148 18.6874 1.46511 18.8013 1.60207 18.8803C1.73902 18.9594 1.89444 19.0009 2.05258 19.0006C2.21073 19.0003 2.36598 18.9582 2.50263 18.8786L17.3969 10.2792C17.5336 10.2003 17.6472 10.0867 17.7261 9.94999C17.8051 9.81325 17.8466 9.65814 17.8466 9.50024C17.8466 9.34234 17.8051 9.18723 17.7261 9.05049C17.6472 8.91375 17.5336 8.8002 17.3969 8.72126Z" fill="#FCAF3B"/>
  </g>
  <defs>
    <clipPath id="clip0_193_3085">
      <rect width="19" height="19" fill="white"/>
    </clipPath>
  </defs>
</svg>