<svg xmlns="http://www.w3.org/2000/svg" width="24" height="24" viewBox="0 0 24 24" fill="none">
  <g clip-path="url(#clip0_79_21502)">
    <path d="M23.8725 16.8157C23.7938 16.5382 23.5875 16.2869 23.3138 16.1407C22.9313 15.9419 22.4663 15.9682 22.0838 16.2044L17.0363 19.3357C16.7288 19.6657 16.1213 20.0594 15.3038 20.0594C14.9438 20.0594 14.5463 19.9844 14.1188 19.7932C13.3163 19.5644 11.1 19.1369 9.88503 19.7107C9.59628 19.8494 9.24753 19.7257 9.10878 19.4332C8.97003 19.1407 9.09378 18.7957 9.38628 18.6569C11.2763 17.7607 14.355 18.6457 14.4863 18.6832C14.5125 18.6907 14.5388 18.7019 14.565 18.7132C15.5063 19.1444 16.0538 18.6757 16.1813 18.5482C16.4063 18.1094 16.4625 17.7457 16.3463 17.4607C16.1663 17.0107 15.5963 16.8269 15.5888 16.8232L10.5338 15.1694C7.11003 13.7969 4.44003 14.7832 3.59253 15.1807V22.0357L12.09 23.7157C12.1275 23.7232 13.5188 24.0307 15.5963 23.0257L23.3363 18.1057C23.9138 17.7157 23.9588 17.1269 23.8725 16.8157Z" fill="#FCAF3B"/>
    <path d="M0.09375 14.4102H2.42625V22.8064H0.09375V14.4102Z" fill="#FCAF3B"/>
    <path d="M14.9812 9.57734C16.305 9.57734 17.3812 8.50109 17.3812 7.17734C17.3812 5.85359 16.305 4.77734 14.9812 4.77734C13.6575 4.77734 12.5812 5.85359 12.5812 7.17734C12.5812 8.50109 13.6575 9.57734 14.9812 9.57734Z" fill="#FCAF3B"/>
    <path d="M10.0725 9.55852L9.01497 11.0398L11.1187 13.1435L12.6 12.086C12.7912 12.1798 12.9862 12.2623 13.1925 12.3335L13.4925 14.126H16.47L16.77 12.3335C16.9725 12.2623 17.1712 12.1798 17.3625 12.086L18.8437 13.1435L20.9475 11.0398L19.89 9.55852C19.9837 9.36727 20.0662 9.17227 20.1375 8.96601L21.93 8.66602V5.68852L20.1375 5.38852C20.0662 5.18602 19.9837 4.98727 19.89 4.79602L20.9475 3.31477L18.8437 1.21102L17.3625 2.26852C17.1712 2.17477 16.9762 2.09227 16.77 2.02102L16.47 0.228516H13.4925L13.1925 2.02102C12.99 2.09227 12.7912 2.17477 12.6 2.26852L11.1187 1.21102L9.01497 3.31477L10.0725 4.79602C9.97872 4.98727 9.89622 5.18227 9.82497 5.38852L8.03247 5.68852V8.66602L9.82497 8.96601C9.89622 9.17227 9.97872 9.36727 10.0725 9.55852ZM14.9812 3.79102C16.8525 3.79102 18.3712 5.31352 18.3712 7.18102C18.3712 9.05227 16.8487 10.571 14.9812 10.571C13.11 10.571 11.5912 9.04852 11.5912 7.18102C11.5912 5.30977 13.11 3.79102 14.9812 3.79102Z" fill="#FCAF3B"/>
  </g>
  <defs>
    <clipPath id="clip0_79_21502">
      <rect width="24" height="24" fill="white"/>
    </clipPath>
  </defs>
</svg>