<svg xmlns="http://www.w3.org/2000/svg" width="10" height="10" viewBox="0 0 10 10" fill="none">
  <g clip-path="url(#clip0_79_18200)">
    <path d="M9.05748 0.942517C7.80078 -0.314182 5.75598 -0.314163 4.49928 0.942517C3.64096 1.80084 3.34291 3.06605 3.71441 4.21367L0.0858398 7.84226C0.0308789 7.89721 0 7.97174 0 8.04945V9.70699C0 9.86883 0.131191 10 0.293008 10H1.95055C2.02828 10 2.10277 9.96912 2.15775 9.91416L2.57221 9.49971C2.63551 9.43639 2.66641 9.34762 2.65605 9.25867L2.60434 8.81369L3.22121 8.75555C3.36129 8.74234 3.47223 8.63142 3.48543 8.49135L3.54361 7.87439L3.98863 7.92611C4.07172 7.93582 4.15488 7.90949 4.21734 7.85388C4.27977 7.7983 4.31549 7.71867 4.31549 7.63506V7.08939H4.85123C4.92836 7.08939 5.00236 7.05898 5.05723 7.00476L5.78519 6.28519C6.93308 6.65728 8.19893 6.35929 9.0575 5.5007C10.3142 4.24402 10.3142 2.1992 9.05748 0.942517ZM8.6431 5.08635C7.90353 5.8259 6.79416 6.05674 5.81687 5.67451C5.70902 5.63234 5.58648 5.65762 5.50416 5.739L4.73086 6.50338H4.02246C3.86064 6.50338 3.72945 6.63457 3.72945 6.79639V7.30601L3.31383 7.25771C3.23553 7.24863 3.15689 7.27144 3.09562 7.32101C3.03437 7.3706 2.99566 7.44277 2.98826 7.52125L2.92473 8.19486L2.25117 8.25834C2.1727 8.26574 2.10053 8.30443 2.05092 8.3657C2.00133 8.42695 1.9785 8.50562 1.9876 8.5839L2.05756 9.18554L1.82916 9.414H0.585996V8.17086L4.25977 4.49709C4.34207 4.41478 4.36787 4.29156 4.32547 4.18316C3.9432 3.20586 4.17408 2.09652 4.91363 1.35693C5.94187 0.328728 7.61488 0.328728 8.64309 1.35693C9.67129 2.38512 9.67129 4.05814 8.6431 5.08635Z" fill="#6A6A6A"/>
    <path d="M8.22871 1.77073C7.88598 1.42798 7.32828 1.428 6.98557 1.77073C6.64283 2.11346 6.64283 2.67114 6.98557 3.01387C7.32828 3.35661 7.88598 3.35665 8.22871 3.01387C8.57145 2.67114 8.57145 2.11346 8.22871 1.77073ZM7.81434 2.5995C7.7001 2.71374 7.51422 2.71376 7.39996 2.5995C7.28572 2.48526 7.28572 2.29938 7.39996 2.18512C7.51451 2.07059 7.6998 2.07059 7.81434 2.18512C7.92887 2.29966 7.92885 2.48497 7.81434 2.5995Z" fill="#6A6A6A"/>
  </g>
  <defs>
    <clipPath id="clip0_79_18200">
      <rect width="10" height="10" fill="white"/>
    </clipPath>
  </defs>
</svg>