<svg xmlns="http://www.w3.org/2000/svg" width="14" height="14" viewBox="0 0 14 14" fill="none">
  <path fill-rule="evenodd" clip-rule="evenodd" d="M5.83335 2.33329C4.9051 2.33329 4.01486 2.70204 3.35848 3.35842C2.7021 4.0148 2.33335 4.90503 2.33335 5.83329C2.33335 6.29292 2.42388 6.74805 2.59978 7.17268C2.77567 7.59732 3.03347 7.98316 3.35848 8.30817C3.68349 8.63317 4.06932 8.89098 4.49396 9.06687C4.9186 9.24276 5.37373 9.33329 5.83335 9.33329C6.29298 9.33329 6.74811 9.24276 7.17275 9.06687C7.59738 8.89098 7.98322 8.63317 8.30823 8.30817C8.63323 7.98316 8.89104 7.59732 9.06693 7.17268C9.24282 6.74805 9.33335 6.29292 9.33335 5.83329C9.33335 4.90504 8.9646 4.0148 8.30823 3.35842C7.65185 2.70204 6.76161 2.33329 5.83335 2.33329ZM2.53352 2.53346C3.40869 1.65829 4.59568 1.16663 5.83335 1.16663C7.07103 1.16663 8.25802 1.65829 9.13318 2.53346C10.0084 3.40863 10.5 4.59562 10.5 5.83329C10.5 6.44613 10.3793 7.05296 10.1448 7.61915C9.98506 8.00478 9.77465 8.36641 9.51978 8.69476L12.6625 11.8375C12.8903 12.0653 12.8903 12.4346 12.6625 12.6624C12.4347 12.8902 12.0653 12.8902 11.8375 12.6624L8.69482 9.51972C8.36648 9.77459 8.00484 9.985 7.61921 10.1447C7.05302 10.3793 6.44619 10.5 5.83335 10.5C5.22052 10.5 4.61368 10.3793 4.0475 10.1447C3.48131 9.91021 2.96686 9.56646 2.53352 9.13312C2.10018 8.69978 1.75644 8.18534 1.52192 7.61915C1.28739 7.05296 1.16669 6.44613 1.16669 5.83329C1.16669 4.59562 1.65835 3.40863 2.53352 2.53346Z" fill="#6A6A6A"/>
</svg>