<svg xmlns="http://www.w3.org/2000/svg" width="20" height="20" viewBox="0 0 20 20" fill="none">
  <path d="M9.99995 13.3332C9.89028 13.3338 9.78156 13.3128 9.68003 13.2713C9.5785 13.2298 9.48615 13.1687 9.40828 13.0915L4.40828 8.0915C4.25136 7.93458 4.16321 7.72175 4.16321 7.49983C4.16321 7.27791 4.25136 7.06508 4.40828 6.90816C4.5652 6.75124 4.77803 6.66309 4.99995 6.66309C5.22187 6.66309 5.4347 6.75124 5.59162 6.90816L9.99995 11.3248L14.4083 6.9165C14.5677 6.77997 14.7728 6.70864 14.9825 6.71674C15.1922 6.72484 15.3912 6.81178 15.5396 6.96019C15.688 7.10861 15.7749 7.30755 15.783 7.51728C15.7911 7.72701 15.7198 7.93208 15.5833 8.0915L10.5833 13.0915C10.4281 13.2454 10.2186 13.3322 9.99995 13.3332Z" fill="#6A6A6A"/>
</svg>