<svg xmlns="http://www.w3.org/2000/svg" width="9" height="9" viewBox="0 0 9 9" fill="none">
  <path fill-rule="evenodd" clip-rule="evenodd" d="M4.04961 0.900391C3.96606 0.900435 3.88418 0.923738 3.81312 0.967689C3.74207 1.01164 3.68466 1.0745 3.64731 1.14924L3.32151 1.80039H1.79961C1.68026 1.80039 1.5658 1.8478 1.48141 1.93219C1.39702 2.01658 1.34961 2.13104 1.34961 2.25039C1.34961 2.36974 1.39702 2.4842 1.48141 2.56859C1.5658 2.65298 1.68026 2.70039 1.79961 2.70039V7.20039C1.79961 7.43909 1.89443 7.668 2.06321 7.83679C2.232 8.00557 2.46091 8.10039 2.69961 8.10039H6.29961C6.5383 8.10039 6.76722 8.00557 6.93601 7.83679C7.10479 7.668 7.19961 7.43909 7.19961 7.20039V2.70039C7.31896 2.70039 7.43342 2.65298 7.51781 2.56859C7.6022 2.4842 7.64961 2.36974 7.64961 2.25039C7.64961 2.13104 7.6022 2.01658 7.51781 1.93219C7.43342 1.8478 7.31896 1.80039 7.19961 1.80039H5.67771L5.35191 1.14924C5.31456 1.0745 5.25715 1.01164 5.1861 0.967689C5.11504 0.923738 5.03316 0.900435 4.94961 0.900391H4.04961ZM3.14961 3.60039C3.14961 3.48104 3.19702 3.36658 3.28141 3.28219C3.3658 3.1978 3.48026 3.15039 3.59961 3.15039C3.71896 3.15039 3.83342 3.1978 3.91781 3.28219C4.0022 3.36658 4.04961 3.48104 4.04961 3.60039V6.30039C4.04961 6.41974 4.0022 6.5342 3.91781 6.61859C3.83342 6.70298 3.71896 6.75039 3.59961 6.75039C3.48026 6.75039 3.3658 6.70298 3.28141 6.61859C3.19702 6.5342 3.14961 6.41974 3.14961 6.30039V3.60039ZM5.39961 3.15039C5.28026 3.15039 5.1658 3.1978 5.08141 3.28219C4.99702 3.36658 4.94961 3.48104 4.94961 3.60039V6.30039C4.94961 6.41974 4.99702 6.5342 5.08141 6.61859C5.1658 6.70298 5.28026 6.75039 5.39961 6.75039C5.51896 6.75039 5.63342 6.70298 5.71781 6.61859C5.8022 6.5342 5.84961 6.41974 5.84961 6.30039V3.60039C5.84961 3.48104 5.8022 3.36658 5.71781 3.28219C5.63342 3.1978 5.51896 3.15039 5.39961 3.15039Z" fill="#E11C48"/>
</svg>