<svg xmlns="http://www.w3.org/2000/svg" width="10" height="11" viewBox="0 0 10 11" fill="none">
  <g clip-path="url(#clip0_213_7683)">
    <path d="M6.3797 4.12305C6.25035 4.12305 6.14551 4.22788 6.14551 4.35724V8.78345C6.14551 8.91272 6.25035 9.01765 6.3797 9.01765C6.50905 9.01765 6.61389 8.91272 6.61389 8.78345V4.35724C6.61389 4.22788 6.50905 4.12305 6.3797 4.12305Z" fill="#6A6A6A"/>
    <path d="M3.61603 4.12305C3.48667 4.12305 3.38184 4.22788 3.38184 4.35724V8.78345C3.38184 8.91272 3.48667 9.01765 3.61603 9.01765C3.74538 9.01765 3.85022 8.91272 3.85022 8.78345V4.35724C3.85022 4.22788 3.74538 4.12305 3.61603 4.12305Z" fill="#6A6A6A"/>
    <path d="M1.60166 3.4771V9.24708C1.60166 9.58812 1.72672 9.90839 1.94518 10.1382C2.16263 10.3686 2.46525 10.4995 2.78195 10.5H7.21293C7.52972 10.4995 7.83234 10.3686 8.0497 10.1382C8.26816 9.90839 8.39321 9.58812 8.39321 9.24708V3.4771C8.82747 3.36183 9.10887 2.9423 9.05078 2.49669C8.9926 2.05118 8.61304 1.71792 8.16369 1.71783H6.96465V1.42509C6.96602 1.17891 6.86868 0.942524 6.69441 0.768619C6.52014 0.594805 6.28339 0.498018 6.03721 0.500031H3.95767C3.71149 0.498018 3.47474 0.594805 3.30047 0.768619C3.1262 0.942524 3.02886 1.17891 3.03023 1.42509V1.71783H1.83119C1.38184 1.71792 1.00228 2.05118 0.9441 2.49669C0.886009 2.9423 1.1674 3.36183 1.60166 3.4771ZM7.21293 10.0316H2.78195C2.38154 10.0316 2.07005 9.68765 2.07005 9.24708V3.49768H7.92483V9.24708C7.92483 9.68765 7.61334 10.0316 7.21293 10.0316ZM3.49861 1.42509C3.49706 1.30314 3.545 1.18577 3.63154 1.09969C3.71799 1.01361 3.83563 0.966309 3.95767 0.968413H6.03721C6.15925 0.966309 6.27689 1.01361 6.36334 1.09969C6.44988 1.18568 6.49782 1.30314 6.49626 1.42509V1.71783H3.49861V1.42509ZM1.83119 2.18621H8.16369C8.39651 2.18621 8.58523 2.37493 8.58523 2.60775C8.58523 2.84057 8.39651 3.0293 8.16369 3.0293H1.83119C1.59837 3.0293 1.40965 2.84057 1.40965 2.60775C1.40965 2.37493 1.59837 2.18621 1.83119 2.18621Z" fill="#6A6A6A"/>
    <path d="M4.99786 4.12305C4.86851 4.12305 4.76367 4.22788 4.76367 4.35724V8.78345C4.76367 8.91272 4.86851 9.01765 4.99786 9.01765C5.12722 9.01765 5.23205 8.91272 5.23205 8.78345V4.35724C5.23205 4.22788 5.12722 4.12305 4.99786 4.12305Z" fill="#6A6A6A"/>
  </g>
  <defs>
    <clipPath id="clip0_213_7683">
      <rect width="10" height="10" fill="white" transform="translate(0 0.5)"/>
    </clipPath>
  </defs>
</svg>