<svg xmlns="http://www.w3.org/2000/svg" width="24" height="24" viewBox="0 0 24 24" fill="none">
  <path fill-rule="evenodd" clip-rule="evenodd" d="M14.9065 10.3474C14.7759 10.5342 14.5214 10.5779 14.3379 10.445C14.1544 10.312 14.1115 10.0528 14.242 9.86595L17.2439 5.58601C17.3744 5.39919 17.6289 5.35549 17.8124 5.48839C17.9959 5.62134 18.0388 5.88054 17.9083 6.06742L14.9065 10.3474ZM4.58682 5.54333H7.61971C7.64562 5.54333 7.66745 5.52544 7.67291 5.49963C7.94594 4.21972 8.9664 2.51921 9.31226 1.23572C9.32418 1.19138 9.28064 1.15222 9.23892 1.16972C7.76124 1.78895 7.30152 2.40511 5.56073 1.44164C5.11869 1.19701 4.66349 0.960611 4.10075 1.00553C3.95181 1.01741 3.21586 1.18902 2.9503 1.26454C2.91893 1.27348 2.90231 1.30766 2.91429 1.33846L4.53607 5.50832C4.54454 5.52991 4.56399 5.54333 4.58682 5.54333ZM4.69165 7.60002H7.49154C7.52536 7.60002 7.55083 7.56948 7.54531 7.53549C7.48383 7.1563 7.4726 6.82158 7.51519 6.43779C7.5189 6.4047 7.49374 6.37608 7.46105 6.37608H4.72189C4.68977 6.37608 4.66487 6.40374 4.66756 6.43633C4.7 6.82088 4.69498 7.15829 4.63776 7.53607C4.63268 7.56987 4.65809 7.60002 4.69165 7.60002ZM10.2675 12.6313C9.34111 11.3669 8.28584 9.92671 7.78433 8.46995C7.77655 8.44727 7.75648 8.43283 7.73289 8.43283H4.45382C4.43036 8.43283 4.41035 8.44721 4.4025 8.46976C3.98218 9.67307 3.13688 10.8647 2.13537 12.2765C1.79816 12.7519 1.44239 13.2534 1.07137 13.8013C-0.30323 15.8311 -0.389241 18.7052 1.01177 20.7448C2.09076 22.3155 4.18375 22.9983 6.08865 22.9983V23C7.9913 23 10.0865 22.3156 11.1655 20.7448C12.5665 18.7052 12.4805 15.8311 11.1059 13.8013C10.8743 13.4593 10.5782 13.0553 10.2675 12.6313ZM8.45109 13.511C8.65391 13.6116 8.73829 13.8606 8.63954 14.0672C8.54073 14.2737 8.29619 14.3597 8.09337 14.2591C7.46902 13.9495 6.79336 13.8134 6.06023 13.7966C5.74687 13.7894 5.33777 13.8868 5.05401 14.0101L5.0542 14.0105C4.65539 14.1829 4.36355 14.4317 4.33506 14.8544C4.32653 14.9813 4.41028 15.1706 4.49899 15.2826C4.61907 15.4342 4.80514 15.5717 5.05728 15.6949L5.0574 15.6946C5.77949 16.011 6.12441 15.8364 6.81375 15.9797C7.73182 16.1706 8.63001 16.7471 8.69042 17.7712C8.69143 17.7888 8.69136 17.8062 8.69042 17.8233C8.6211 18.9517 7.54895 19.5293 6.54543 19.6537C6.51795 19.6571 6.4975 19.6806 6.4975 19.7088V20.1693C6.4975 20.3992 6.31444 20.5857 6.08865 20.5857C5.86286 20.5857 5.6798 20.3992 5.6798 20.1693V19.7141C5.6798 19.6852 5.65828 19.6614 5.63005 19.6589C4.97026 19.6 4.32697 19.4274 3.72164 19.1405C3.51699 19.0435 3.42835 18.7958 3.52358 18.5875C3.61881 18.3791 3.86197 18.2888 4.06656 18.3858C4.9116 18.7864 6.23438 19.0648 7.14769 18.6409C7.5411 18.4605 7.83163 18.2146 7.87329 17.7984C7.87367 17.7945 7.87367 17.7913 7.87329 17.7874C7.7997 17.0214 6.75126 16.74 6.1049 16.7388C5.63093 16.7379 5.15922 16.6451 4.73469 16.459L4.73494 16.4585C4.04378 16.1425 3.56643 15.6289 3.52013 14.8829C3.519 14.8665 3.51869 14.8498 3.5195 14.833C3.55626 14.0637 4.03594 13.5494 4.73789 13.2461L4.73801 13.2464C5.02754 13.1162 5.32039 13.0366 5.63193 12.997C5.65935 12.9935 5.67968 12.9701 5.67968 12.9419V12.4788C5.67968 12.2489 5.86274 12.0624 6.08852 12.0624C6.31431 12.0624 6.49737 12.2489 6.49737 12.4788V12.9366C6.49737 12.9654 6.51883 12.9893 6.54706 12.9918C7.23037 13.054 7.86325 13.2195 8.45109 13.511ZM17.4117 9.28615C17.1951 9.5067 17.524 9.84155 17.7405 9.621C17.957 9.40045 17.6282 9.0656 17.4117 9.28615ZM14.8067 6.47983C14.8067 6.16811 14.3418 6.16811 14.3418 6.47983C14.3418 6.79156 14.8067 6.79156 14.8067 6.47983ZM21.0717 7.7899H23.9111C23.9395 7.7899 23.9631 7.7678 23.9654 7.73892C24.0603 6.54686 24.1165 2.11779 21.8997 3.02261C21.8525 3.04184 21.8272 3.09844 21.7902 3.14042C21.3101 3.68515 21.0172 4.40436 21.0172 5.19015V7.73438C21.0172 7.76499 21.0416 7.7899 21.0717 7.7899ZM16.8336 10.2097C17.2437 10.6275 17.9085 10.6275 18.3186 10.2097C18.9788 9.53743 18.5083 8.38408 17.5761 8.38408C16.6439 8.38408 16.1734 9.53749 16.8336 10.2097ZM20.1288 19.4666V5.19015C20.1288 4.35906 20.4573 3.59845 20.9916 3.04279C21.0254 3.00765 21.001 2.94843 20.9527 2.94843L14.3363 2.94836C13.1265 2.94836 12.1352 3.95802 12.1352 5.19002V13.908C12.1352 13.9177 12.1372 13.9261 12.1418 13.9346C13.3482 16.1904 13.2923 19.0957 11.8331 21.2196C11.7384 21.3574 11.6371 21.4897 11.5295 21.6166C11.499 21.6526 11.5241 21.7083 11.5707 21.7083H17.9276V21.71C19.1343 21.71 20.1288 20.6997 20.1288 19.4666ZM13.8317 7.23604C14.2419 7.65375 14.9066 7.65375 15.3168 7.23604C15.977 6.56372 15.5065 5.41038 14.5743 5.41038C13.642 5.41031 13.1716 6.56385 13.8317 7.23604ZM14.091 13.1112C14.091 12.8813 14.2741 12.6948 14.4999 12.6948H18.5493C18.7751 12.6948 18.9582 12.8813 18.9582 13.1112C18.9582 13.3411 18.7751 13.5276 18.5493 13.5276H14.4999C14.2741 13.5276 14.091 13.3411 14.091 13.1112ZM14.091 19.1202C14.091 18.8903 14.2741 18.7038 14.4999 18.7038H18.5493C18.7751 18.7038 18.9582 18.8903 18.9582 19.1202C18.9582 19.3501 18.7751 19.5366 18.5493 19.5366H14.4999C14.2741 19.5366 14.091 19.3501 14.091 19.1202ZM14.091 16.1157C14.091 15.8858 14.2741 15.6993 14.4999 15.6993H18.5493C18.7751 15.6993 18.9582 15.8858 18.9582 16.1157C18.9582 16.3456 18.7751 16.5321 18.5493 16.5321H14.4999C14.2741 16.5321 14.091 16.3456 14.091 16.1157Z" fill="#FCAF3B"/>
</svg>