<svg xmlns="http://www.w3.org/2000/svg" width="25" height="24" viewBox="0 0 25 24" fill="none">
  <path d="M3.25905 2.87722L15.829 1.08222C15.9 1.07204 15.9723 1.07724 16.041 1.09745C16.1098 1.11766 16.1734 1.15241 16.2275 1.19935C16.2817 1.2463 16.3251 1.30433 16.3549 1.36953C16.3846 1.43472 16.4 1.50555 16.4 1.57722V22.4232C16.4 22.4947 16.3846 22.5655 16.3549 22.6306C16.3252 22.6957 16.2819 22.7537 16.2279 22.8006C16.1738 22.8475 16.1103 22.8823 16.0417 22.9026C15.9731 22.9229 15.9009 22.9282 15.83 22.9182L3.25805 21.1232C3.01967 21.0892 2.80155 20.9704 2.64374 20.7885C2.48594 20.6067 2.39906 20.374 2.39905 20.1332V3.86722C2.39906 3.62643 2.48594 3.39373 2.64374 3.21186C2.80155 3.03 3.02067 2.91117 3.25905 2.87722ZM17.4 3.00022H21.4C21.6652 3.00022 21.9196 3.10558 22.1071 3.29311C22.2947 3.48065 22.4 3.735 22.4 4.00022V20.0002C22.4 20.2654 22.2947 20.5197 22.1071 20.7073C21.9196 20.8948 21.6652 21.0002 21.4 21.0002H17.4V3.00022ZM10.6 12.0002L13.4 8.00022H11L9.40005 10.2862L7.80005 8.00022H5.40005L8.20005 12.0002L5.40005 16.0002H7.80005L9.40005 13.7142L11 16.0002H13.4L10.6 12.0002Z" fill="#FCAF3B"/>
</svg>